<svg xmlns="http://www.w3.org/2000/svg" viewBox="0 0 61.7148 61.7148"><defs><style>.cls-1{fill:none;}</style></defs><title>cub_icon</title><path class="cls-1" d="M58.2148,1H3.5A2.5026,2.5026,0,0,0,1,3.5V58.2148a2.5026,2.5026,0,0,0,2.5,2.5H58.2148a2.5026,2.5026,0,0,0,2.5-2.5V3.5A2.5026,2.5026,0,0,0,58.2148,1ZM26.2038,41.3493V20.3655L39.5111,30.8574Z"/><path d="M58.2148,0H3.5A3.5042,3.5042,0,0,0,0,3.5V58.2148a3.5042,3.5042,0,0,0,3.5,3.5H58.2148a3.5042,3.5042,0,0,0,3.5-3.5V3.5A3.5042,3.5042,0,0,0,58.2148,0Zm2.5,58.2148a2.5026,2.5026,0,0,1-2.5,2.5H3.5a2.5026,2.5026,0,0,1-2.5-2.5V3.5A2.5026,2.5026,0,0,1,3.5,1H58.2148a2.5026,2.5026,0,0,1,2.5,2.5Z" style="fill-rule:nonzero;stroke:#fff;stroke-width:1px;"/><polygon points="26.204 41.349 39.511 30.857 26.204 20.366 26.204 41.349" style="fill:#fff;fill-rule:nonzero;"/></svg>
