<svg xmlns="http://www.w3.org/2000/svg" viewBox="0 0 32.3326 28.0174">
  <path id="Vimeo" d="M27.5977.0063q-6.7416-.2255-9.1241,7.5683a6.2566,6.2566,0,0,1,2.3975-.5111c1.6384,0,2.3674.9169,2.172,2.7658a12.5711,12.5711,0,0,1-2.172,4.8777q-2.0292,3.2017-3.0439,3.2017c-.8718,0-1.6685-1.6535-2.3975-4.9453q-.3608-1.4543-1.3-7.4255C13.5433,1.8552,12.0026.1266,9.4923.3746q-1.59.1353-4.78,2.9011C3.1641,4.6811,1.5933,6.0941,0,7.4995L1.5182,9.4611a9.8129,9.8129,0,0,1,2.54-1.5257q1.6685,0,3.119,5.2384c.8643,3.2017,1.7436,6.4034,2.608,9.6051q1.95,5.2422,4.78,5.2385,4.5658,0,11.1608-8.5829,6.37-8.2184,6.5913-12.95Q32.5994.1491,27.5977.0063Z"/>
</svg>
