<svg class="logo logo-svg logo-full" xmlns="http://www.w3.org/2000/svg" width="100" height="23.0223" viewBox="0 0 100 23.0223">
    <path d="M21.2227,5.241A5.2252,5.2252,0,0,0,19.48,9.2486a5.564,5.564,0,0,0,1.8215,4.1729,7.4753,7.4753,0,0,0,5.3466,1.9042h8.0194v-2.07H26.6484a4.9782,4.9782,0,0,1-3.6035-1.2583,3.4811,3.4811,0,0,1-1.109-2.7486,3.5847,3.5847,0,0,1,1.2472-2.5833A5.0288,5.0288,0,0,1,26.6484,5.49h8.0194v-2.07H26.6484A7.709,7.709,0,0,0,21.2227,5.241M50.3693,9.96a2.8023,2.8023,0,0,1-1.3861,2.666,7.76,7.76,0,0,1-3.584.6292h-.8514a7.7638,7.7638,0,0,1-3.584-.6292A2.8029,2.8029,0,0,1,39.5783,9.96V3.4195H37.1033V9.96a4.6221,4.6221,0,0,0,2.02,4.19,10.1037,10.1037,0,0,0,5.4249,1.1757h.8514A10.002,10.002,0,0,0,50.8054,14.15a4.6088,4.6088,0,0,0,2.0388-4.19V3.4195h-2.475Zm25.098,5.3653h2.475V3.4195h-2.475ZM83.3083,5.241a5.2253,5.2253,0,0,0-1.7424,4.0076,5.565,5.565,0,0,0,1.8216,4.1729,7.4753,7.4753,0,0,0,5.3465,1.9042h8.0194v-2.07H88.734A4.98,4.98,0,0,1,85.13,11.9973a3.4854,3.4854,0,0,1-1.1091-2.7486,3.5861,3.5861,0,0,1,1.2479-2.5833A5.029,5.029,0,0,1,88.734,5.49h8.0194v-2.07H88.734A7.7058,7.7058,0,0,0,83.3083,5.241M72.28,6.9466a2.9056,2.9056,0,0,0-1.4257-2.434,7.2383,7.2383,0,0,0-4.2577-1.11H56.3992V15.3091H66.5964a7.4029,7.4029,0,0,0,4.2577-1.0764A2.83,2.83,0,0,0,72.28,11.8646a2.8549,2.8549,0,0,0-1.5049-2.434A2.943,2.943,0,0,0,72.28,6.9466m-3.1091,5.8618a4.66,4.66,0,0,1-2.1778.4306H58.8741V10.4736h8.1188a4.4053,4.4053,0,0,1,2.1584.4472q.7323.3813.7326.9438a1.1027,1.1027,0,0,1-.7132.9438M69.1513,7.94a4.2737,4.2737,0,0,1-2.1584.4632H58.8741V5.4729h8.1188a4.513,4.513,0,0,1,2.1778.4472,1.1871,1.1871,0,0,1,.7132,1.01,1.1882,1.1882,0,0,1-.7326,1.01m27.9182,5.61h.4819v1.7111h.2368V13.55h.4847v-.21H97.0695Zm2.5326-.21-.3847,1.5236h-.0056L98.8271,13.34h-.3987v1.9215h.2369V13.582h.0055l.425,1.6792h.2368l.4257-1.6792h.0048v1.6792H100V13.34ZM16.1664,4.6236Q12.1227,2.3111,8.0831,0,4.0393,2.3511.0032,4.6965v.11q0,4.5125.0007,9.0257a.3442.3442,0,0,0,.009.1528c.0229.04.0812.06.1264.0868q3.9188,2.324,7.8375,4.6472c.0188.0111.0382.0208.0549.0306l.0312-.0174q4.0177-2.3677,8.0368-4.7333a.1217.1217,0,0,0,.0681-.1229q-.0021-4.5844-.0014-9.1674ZM8.0837,4.0313a.15.15,0,0,1,.0535.0035.47.47,0,0,1,.0687.0424c.01-.0146.0153-.0333.0278-.04a.8429.8429,0,0,1,.125-.0563.347.347,0,0,1,.1951.0819.07.07,0,0,1-.0118.0979c-.0118.0125-.0292.0229-.034.0382-.02.0583-.0618.0528-.1083.0444-.0437-.0076-.0875-.01-.1389-.0167-.0132-.0507-.0132-.0507-.0965-.0722l.0167-.05H8.0831c-.0451-.0257.0125-.0479.0007-.0729m-.4965-.2875h.2222c-.016.0576-.0035.12-.075.1535-.0534.025-.0993.0632-.1667.0236.0562.04.032.0965.032.14-.0007.0333-.0354.0674-.057.1a.0418.0418,0,0,1-.0257.0132.1289.1289,0,0,0-.1208.0979c-.0014.0063-.0146.01-.02.0132a.3836.3836,0,0,1,.04.1194.4321.4321,0,0,1-.0451.1271c.0514.059.0056.1382.0195.2125a.0976.0976,0,0,1-.1507-.0056.0656.0656,0,0,0-.08-.0181.14.14,0,0,1-.1257-.0486c-.0076-.0125-.01-.0306-.0209-.0382a.839.839,0,0,1-.2028-.33.2072.2072,0,0,1-.0007-.2222c.0042-.0056.0056-.0167.0111-.0188.0667-.0285.0694-.0882.0708-.1542-.0174-.0014-.0382-.0021-.0639-.0035.0021.0153.0042.0243.0048.0333.0021.0285-.0187.0319-.0389.0319-.0222-.0007-.04-.0125-.0347-.0375s.0139-.0465.0215-.0715h.1062c-.0284-.0347-.05-.06-.0729-.0889-.0187.01-.0368.0187-.0535.0264.009-.0806.016-.1583.0292-.2347a.07.07,0,0,0-.0424-.0854c.0472-.01.0806-.0188.1139-.0257A1.1154,1.1154,0,0,1,7.2872,3.43a1.4251,1.4251,0,0,1,.2083.0736c.016.0424.0576.0514.091.0722.06.0375.1194.0771.1764.1146-.0354.0111-.0354.0111-.0785-.0083-.0674-.0306-.091-.016-.0972.0618m.0771-.0326c-.0173.0014-.0347.0028-.052.0035l-.0014-.0181.0521-.0042.0014.0188M7.6615,17.7639q-3.3938-1.98-6.76-3.9438L.9,13.8077l.0028-.0062c.01-.0069.0195-.0146.03-.0208.6187-.3694,1.2375-.7389,1.8625-1.1118a6.164,6.164,0,0,0,3.3674,2.5639,5.6909,5.6909,0,0,0,1.3118.2507V14.2612c-.0882.01-.1111-.0694-.1611-.11a.7868.7868,0,0,1-.0715-.0868c-.0083-.009-.0292-.0181-.0375-.0139-.032.0146-.0451-.0132-.0514-.0271a.1738.1738,0,0,0-.0708-.09c-.0048-.0028.0042-.0306.0083-.0549-.0167-.0319-.0389-.0743-.0653-.1236H6.9435c.007-.0257.0132-.0458.0195-.0674l.0618.0062c-.0368-.1181-.0715-.2313-.1063-.3465-.04.0132-.0542.0285-.0375.0625.0125.025.0375.05.0118.0819-.0375,0-.0445-.0306-.0493-.0556a1.033,1.033,0,0,0-.1292-.3535A.0835.0835,0,0,1,6.71,13.041c-.0007-.0861-.0007-.1729,0-.26a.2527.2527,0,0,0-.041-.14.4032.4032,0,0,1-.0409-.1014.9529.9529,0,0,1-.0465-.29.1357.1357,0,0,0-.0076-.0438,1.4024,1.4024,0,0,1-.0584-.2431,1.0972,1.0972,0,0,0-.0632-.2431.2109.2109,0,0,0-.1382-.1438c-.06-.0222-.1215-.04-.1833-.059-.0563-.0174-.1139-.0326-.1709-.05a.1912.1912,0,0,1-.1305-.1118.1546.1546,0,0,0-.0528-.06.7447.7447,0,0,1-.157-.1667.854.854,0,0,0-.2875-.2625.13.13,0,0,1-.0354-.1847c.0223-.03.0479-.0569.0368-.0993a.0743.0743,0,0,1-.09-.1069.2661.2661,0,0,0,.0209-.1222c-.0014-.0132.0118-.03.0222-.0417s.0278-.0167.0333-.0285c.0188-.0382.0243-.0882.0521-.116a.1416.1416,0,0,0,.0583-.0986,1.0137,1.0137,0,0,1-.0243-.11.2871.2871,0,0,0-.0938-.2028.12.12,0,0,1-.0215-.0368A.0771.0771,0,0,0,5.1678,9.7c-.0181.016-.0389.0306-.0611.0472.0195.025.0306.04.0424.0542a.0449.0449,0,0,1-.0757.0056.1432.1432,0,0,0-.1375-.0354A.09.09,0,0,1,4.849,9.741c-.0368-.034-.07-.0674-.1292-.0569-.0153.0028-.0486-.0257-.0521-.0437-.0118-.0639-.059-.0937-.1021-.13A.986.986,0,0,1,4.49,9.4341a.4673.4673,0,0,1-.33-.0389.7439.7439,0,0,1-.0917-.0632A.12.12,0,0,0,3.9053,9.33a.1093.1093,0,0,1-.11.0188,1.2329,1.2329,0,0,1-.2055-.06,1.0579,1.0579,0,0,1-.2486-.1215l-.0333-.0292A.0737.0737,0,0,1,3.281,9.06a.2519.2519,0,0,0-.0618-.2271c-.0319-.0368-.0542-.0812-.0826-.1215a.2255.2255,0,0,0-.0334-.0285c-.0083-.0083-.025-.0194-.0236-.0257.0146-.0639-.0444-.0958-.0611-.1458-.0028-.009-.0048-.0208-.0118-.0257-.0722-.0514-.0722-.1306-.0778-.2062-.0035-.0424-.0118-.0785-.0687-.0854a.3888.3888,0,0,0,.0181.1931c.0431.1187.0827.2382.12.3583a.1156.1156,0,0,0,.0424.066c.0285.0215.0292.0479.0048.0785-.0354-.0424-.07-.0806-.1007-.1208A.065.065,0,0,1,2.933,8.72a.1223.1223,0,0,0-.0555-.1278l-.0542-.0465a.1079.1079,0,0,0,.0125-.1424A.5317.5317,0,0,1,2.7713,8.14a.1882.1882,0,0,0-.0722-.1611A.073.073,0,0,1,2.6733,7.93c-.0063-.0563-.0042-.1139-.0111-.17a1.5418,1.5418,0,0,1,.1764-.7847c.0056-.0139.0118-.0271.0215-.0493-.1361-.08-.2722-.159-.4139-.2424a6.1579,6.1579,0,0,0,.0674,5.4889q-.9541.5469-1.8993,1.09l-.0118-.0049-.0049-.0042a.1151.1151,0,0,1-.0035-.0215c.007-2.607.0132-5.2139.02-7.8361.0333.0181.0548.0285.0757.041q3.4406,2.0146,6.8806,4.03c.0194.0111.0382.0236.0583.0333a.056.056,0,0,1,.034.06c-.0007.0222,0,.0444,0,.0667v5.7174q.001,1.16.0021,2.3195c0,.0285-.0021.0569-.0035.1007M4.3837,10.54l.0827.0188c-.01.0236-.0173.041-.0306.0715-.0181-.0313-.0306-.0535-.0521-.09M7.9643,8.8841Q5.4425,7.41,2.92,5.9389,1.9949,5.4,1.0705,4.8611c-.0229-.0132-.0444-.0278-.0778-.0486Q4.3688,2.849,7.7254.8951c.0195.059.0223,2.2486.0042,2.3222A6.1562,6.1562,0,0,0,3.0157,5.7354l.1868.1111A2.6949,2.6949,0,0,0,3.41,5.4577a.1429.1429,0,0,1,.0389-.0535c.1041-.11.2076-.2188.3132-.3271a5.078,5.078,0,0,1,.8611-.7042,1.7813,1.7813,0,0,1,.2549-.1194l.0132.0125-.0354.08c.0139.0076.0284.0153.0451.025a.1575.1575,0,0,0,.0285-.034.265.265,0,0,1,.182-.14c.0222-.0063.0222-.0063.0375-.0472l.0035-.0056a.7238.7238,0,0,1,.0666-.0472c.025-.0132.0042-.0451.0354-.06.134-.0646.2646-.1347.3965-.2021.0056-.0028.0139,0,.0285.0007l-.0632.05.0333.0132-.0048.01c-.0486.034-.0972.0674-.1465.1014a.5451.5451,0,0,0-.1368.134.3856.3856,0,0,1-.0833.0687c-.0132.01-.0271.02-.04.0312-.0208.0174-.04.0368-.0611.0535-.0271.02-.0555.0347-.0785-.0076a.1887.1887,0,0,0-.0562.1313c.0882.0222.1326-.0458.19-.0826.0639.0257.0667.0278.109-.02s.0771-.1014.116-.1514a.3057.3057,0,0,1,.0514-.0521,1.2478,1.2478,0,0,0,.16-.1333l-.0556.016c-.0028-.0521.3306-.2354.4687-.2528a.8416.8416,0,0,1-.1951.1174.5809.5809,0,0,0-.2382.1944,1.0429,1.0429,0,0,1-.0778.0785.2683.2683,0,0,0-.0382.0507.49.49,0,0,0-.03.0625c.0236-.01.041-.0174.0653-.0271-.0173.0722-.0972.0993-.1063.1785.016-.0063.0306-.0069.0348-.0139a.3741.3741,0,0,1,.13-.1167.3182.3182,0,0,0,.08-.0958c.0215-.0312.0437-.0535.0868-.041a.067.067,0,0,1-.0215.0875.4121.4121,0,0,0-.0827.1194.45.45,0,0,1-.1222.1146.8536.8536,0,0,1-.0861.0542l-.0195-.0333-.0153.0049c-.0229.0257-.0445.0521-.0667.0785-.0306.0354-.059.0722-.0931.1049a.5786.5786,0,0,1-.1243.1028.4832.4832,0,0,0-.1271.0993.77.77,0,0,1-.0736.06c-.0188.0146-.04.0271-.0584.0431a1.5272,1.5272,0,0,0-.2854.3472.4054.4054,0,0,0-.0222.0486l.05.0278c-.007.0458-.0146.0917-.0222.1444a.1663.1663,0,0,1,.1986.0681.2194.2194,0,0,0,.1709.0576c.0236,0,.0479-.0021.084-.0042-.0125.066-.0236.1243-.0347.1861l.0667.0132.0007.0146c-.0181.0021-.0368.0035-.0583.0049-.0132.066.0618.0868.0632.1438.0382-.0139.0667-.0236.0986-.0354a.4867.4867,0,0,0,.0229-.2979c.0417-.034.0833-.0646.1215-.0993a.28.28,0,0,0,.0479-.37.145.145,0,0,0,.03-.0132.128.128,0,0,0,.0667-.1229.2667.2667,0,0,1,.025-.0917c.01-.0257.0334-.0424.0181-.08-.0132-.0312.0375-.066.0813-.0625.0889.0063.0889.0063.1465-.0243a.1437.1437,0,0,1,.0771.109c.0284.0014.0576.0028.0937.0042a.81.81,0,0,0-.0222.1931l.0952.066c.0472-.0521.1139-.0847.1291-.1639a.2918.2918,0,0,1,.0465-.0764c.0306.0549.0556.1.08.1444.0132.0236.0229.05.0382.0722a.1175.1175,0,0,1,.0181.1368.421.421,0,0,0,.2618.1146l.009.0194c-.0187.01-.0375.0194-.0632.0319.059.0167.1049.03.1507.0437a.0418.0418,0,0,1,.0215.0194.1592.1592,0,0,1-.0284.1736H6.73c-.0195.0542-.0368.1035-.0583.1646a.1622.1622,0,0,1,.05-.0194c.007,0,.0139.0167.0278.0354.0375-.0021.0875-.0042.141-.0062-.0042.0257-.007.0465-.01.0667l.0292.0111-.0118.0708L6.95,6.0028a.09.09,0,0,1-.01.125.0761.0761,0,0,1-.06-.09c-.0306.0361-.0556.0653-.0889.1056a.085.085,0,0,0-.1063-.0549c-.0445.0062-.0875.0181-.1313.0257A.227.227,0,0,1,6.5046,6.11c.0535-.1285.1042-.2514.1584-.3806a.1728.1728,0,0,0-.1486.0681.3137.3137,0,0,1-.2521.1132c-.0736.009-.1458.025-.2188.0382a.0543.0543,0,0,0-.0271.0125c-.0632.0569-.1264.1139-.1882.1722a.0422.0422,0,0,0-.007.04c.032-.0215.0632-.0437.0958-.0632a.7316.7316,0,0,1,.1181-.0611.1119.1119,0,0,1,.1264.0208c-.0208.0243-.0409.0472-.0625.0715A.6055.6055,0,0,0,6.1,6.2209a.1422.1422,0,0,0,.1389.11c.0625.0042.1188-.0063.1424-.0778a.4384.4384,0,0,1,.0437-.0694l.0049.0806.04-.0028c-.0035.009-.0035.0181-.0077.0208a1.346,1.346,0,0,1-.27.1736c-.0278.0111-.0479.0417-.07.0646-.0153.0153-.0285.0326-.0417.0486-.0625-.0306-.0694-.0549-.0292-.0993.0222-.0243.0479-.0458.0785-.0757a.2293.2293,0,0,0-.1833.0847.2047.2047,0,0,1-.091.0576.2463.2463,0,0,0-.1723.184c-.0056.0229.01.0507.0167.0778-.0736.0444-.1521.091-.23.141a.1247.1247,0,0,0-.0313.0444.8592.8592,0,0,1-.0423.084c-.0063.01-.0271.01-.0458.0167-.0077.0368.0278.0465.0542.0625.2041.1215.409.2417.6139.3632Q7,8.09,7.9817,8.6695c.0236.0139.0472.0271.0743.0424l.284-.1611c.3375-.1924.675-.3854,1.0139-.5764.04-.0222.0694-.0431.0632-.0951a.1935.1935,0,0,1,.0139-.0729c.0285-.0944.0584-.1889.09-.2819.01-.0278.0271-.0528.0382-.08a.3407.3407,0,0,1,.16-.1986c.025-.0125.04-.0493.057-.0764a.096.096,0,0,0,.0028-.1118.107.107,0,0,1-.007-.0993.365.365,0,0,1,.1049-.191.2.2,0,0,0,.0556-.134c.0035-.02.0076-.04.0139-.0694a.37.37,0,0,0,.275.0174.0765.0765,0,0,0,.0431-.025.7037.7037,0,0,1,.3791-.1986,1.3906,1.3906,0,0,1,.2209-.0486c.0181-.0014.0347-.0174.0528-.0264.02-.01.0382-.0181.06.0014.0111.01.0334.0063.0535.009,0,.0375-.0014.0785.043.1049.0125.0076.0139.0389.0146.06a.66.66,0,0,1-.0063.08.6638.6638,0,0,1,.0847.0389.1977.1977,0,0,0,.1368.0222A.2185.2185,0,0,1,11.5,6.657a.11.11,0,0,0,.1431.0132.7658.7658,0,0,0,.0771-.0444.0891.0891,0,0,0,.0292-.0389c.0305-.0958.0618-.11.1618-.0694.1632-.0931.3285-.1868.5035-.2868-.0257-.0514-.0493-.0986-.0729-.1465L12.28,6.0806c-.0417.1125-.1069.0271-.1639.0208-.0187.0153.0257.0611-.0257.0569a.296.296,0,0,1-.07-.0271l-.009.03c-.0715-.0431-.1069-.1368-.21-.1458l.0278-.05c-.0548-.0028-.0694-.04-.0882-.0785-.0375-.0792-.0709-.0868-.1563-.04l.0354.0486c-.025.0028-.0431.0049-.0632.0076.04.0792.12.0965.1965.134l-.0618.0389c.01.034.02.0674.0326.11-.0208-.0014-.0465.0042-.059-.0063a.3323.3323,0,0,1-.0868-.09.2254.2254,0,0,0-.1139-.1007.2685.2685,0,0,1-.1361-.1306.1757.1757,0,0,0-.0937-.09,1.14,1.14,0,0,0-.2195-.0875.2792.2792,0,0,1-.0938-.0569c-.0292-.02-.05-.0549-.0965-.0361-.01.0035-.03-.0215-.0465-.03a.24.24,0,0,0-.0465-.0125c-.0014.0181-.0111.041-.0035.0528a.28.28,0,0,0,.068.075c.0486.0375.1028.0681.1528.1042.0382.0278.0715.0632.125.0479a.0172.0172,0,0,1,.0146.0014c.0479.0535.1229.0451.18.0785a.326.326,0,0,1,.0438.0368c-.034-.0056-.0549-.0083-.0771-.0118a.0481.0481,0,0,0,.0181.07.0922.0922,0,0,1,.0347.0993.307.307,0,0,1-.0382.0722l.0292.0924c-.0771-.0417-.1562-.0306-.2146-.1007.0632-.0188.1278.0042.1736-.0625a.09.09,0,0,0-.0541-.1042c-.0695-.0368-.1438-.066-.2153-.0965a.51.51,0,0,1-.0695-.0243.9234.9234,0,0,1-.2243-.141.0957.0957,0,0,0-.1618.0181.1293.1293,0,0,1-.1528.07.1618.1618,0,0,0-.0368-.0049.0463.0463,0,0,0-.0431.0625.1215.1215,0,0,0,.016.0333c.0312.0528.0292.05-.0146.0972a.3552.3552,0,0,0-.066.0965.1074.1074,0,0,0,.0278.1486.26.26,0,0,1-.0625.159.0891.0891,0,0,1-.0528.034.2577.2577,0,0,0-.1632.0785A.0407.0407,0,0,1,9.9,6.5306a.1554.1554,0,0,0-.19-.0368.28.28,0,0,1-.0348.0042c-.0083-.0229-.0146-.0465-.0243-.0674-.007-.0146-.0174-.0326-.03-.0368a.0708.0708,0,0,1-.05-.0812.4023.4023,0,0,0-.1153-.2958.1565.1565,0,0,1,.1458-.0847c.0958-.01.1909-.0208.2868-.0312.0195-.0021.0382-.0076.0632-.0125a.34.34,0,0,0-.0979-.234.524.524,0,0,0-.1278-.0882.2668.2668,0,0,0-.1077-.0187.0849.0849,0,0,1-.0854-.0514.1.1,0,0,1,.0958-.0382.4592.4592,0,0,0,.0944-.0042c-.0243-.034-.0423-.059-.0632-.0889l.0264-.0014c.0257,0,.0625.0111.0757-.0021.0271-.0257.059-.0667.0556-.0986a.0767.0767,0,0,1,.04-.0778A.057.057,0,0,0,9.88,5.1028a.7911.7911,0,0,1-.0313-.0965c.0451-.0264.0917-.0535.1479-.0854,0,.0014.0049-.0153-.0007-.0215-.04-.04-.0806-.0792-.1222-.1174a.9041.9041,0,0,1-.0778-.0674c-.0507-.0583-.0528-.0743-.007-.1354.0389.0354.0785.07.1292.1153l.0076.0556c.0528.0111.057-.0306.0695-.06.0132-.0319-.0056-.05-.0306-.066-.0938-.06-.1868-.1208-.2778-.1813-.0646.0188-.02.0847-.0632.1194a.1846.1846,0,0,1-.1687-.0785.3331.3331,0,0,0-.0833-.0771,1.9013,1.9013,0,0,1-.1507-.1194c-.0111-.009-.0284-.0292-.0264-.0333.034-.0521-.0271-.11.01-.1611a.0257.0257,0,0,0-.0014-.02.4514.4514,0,0,0-.1236-.17c-.0653-.0528-.1222-.1153-.1847-.1708A.1151.1151,0,0,0,8.83,3.7035a.1.1,0,0,1-.09-.0556c-.0146-.0313-.0562-.0486-.0465-.0938.0014-.0076-.0271-.0215-.0521-.041a.3536.3536,0,0,1,.1993.0076,1.7548,1.7548,0,0,0,.31.0549c.1549.0326.31.0611.4639.0972a.7866.7866,0,0,1,.1389.06l-.0049.016c-.05-.0035-.1-.0069-.1507-.0111a2.1737,2.1737,0,0,0,.4945.1826c-.04-.0431-.0986-.034-.1375-.0667l.04-.0153C9.94,3.81,9.8935,3.7861,9.847,3.7611a.1066.1066,0,0,1-.0514-.0465.181.181,0,0,0-.0785-.0618c-.0542-.0285-.1118-.0514-.1639-.0826a5.9715,5.9715,0,0,1,3.3577,2.3743c.0215-.0111.043-.0208.0639-.0326s.0382-.0222.0569-.0333A6.0325,6.0325,0,0,0,10.156,3.61a6.1818,6.1818,0,0,0-1.8111-.3861V.91c2.31,1.3056,4.6125,2.607,6.9257,3.9139-.0347.0208-.059.0361-.084.05q-2.2958,1.299-4.5931,2.5972-1.2479.7063-2.4958,1.4132a.1136.1136,0,0,1-.1333,0M6.2337,4.5111a.2877.2877,0,0,1-.0035.21l-.15-.06-.01.016a.5859.5859,0,0,1,.0653.066.127.127,0,0,1,.0146.0507.1058.1058,0,0,1-.0451.0083c-.0417-.0111-.0826-.0271-.134-.0444l-.04.0132A.2069.2069,0,0,1,5.9,4.6778C5.8969,4.65,5.8643,4.625,5.8379,4.59c-.0292.016-.0667.0354-.1049.0556a.0554.0554,0,0,1-.0722-.0125.1428.1428,0,0,1,.1285-.1021.4063.4063,0,0,0,.1069-.0382.08.08,0,0,1,.0389-.0965.3416.3416,0,0,0,.0549-.05.126.126,0,0,0,.0153-.18c-.0028-.0042-.0132-.0035-.02-.0042l-.0007-.0063.0146-.1-.0223-.0007c-.0771.09-.1681.0375-.27.03a1.02,1.02,0,0,1,.2285-.2208.5847.5847,0,0,1,.3695-.1375c-.0229.0451-.0451.09-.0584.1167.0368.0639.0639.1111.091.159l-.066.0965a.0407.0407,0,0,0,.0139.0632A.7487.7487,0,0,1,6.397,4.26c.0465.0438.0493.04.0139.09-.0284.04-.0562.0806-.09.1292-.0194-.02-.0472-.0361-.0562-.06a.0884.0884,0,0,0-.08-.0556c-.0035.06-.0507.1312.0493.1479m-.384-.175c.0375-.1007.0771-.1222.1639-.0778-.0757-.0049-.0917.0847-.1639.0778m.3875-.6667c-.0132.0014-.0278-.0215-.043-.025a.133.133,0,0,0-.0486.0069l-.0028-.016c.0986-.0292.1979-.0583.3-.0889l.025.0431a.51.51,0,0,1-.2306.08m-.8736.5375c-.0243.0993-.0618.125-.1194.0847.041-.0292.08-.0569.1194-.0847m.09.575c-.0173-.0194-.0312-.0347-.0479-.0542-.0451.0361-.091.0722-.1361.1083-.0153-.0181-.0292-.0347-.0451-.0528l.1792-.2222c.0785.0257.0583.1264.1333.1472l.0021.0174-.0854.0563m.041.1028c-.0222.0312-.0361.0507-.0493.07L5.431,4.9438c.0042-.0278.0167-.0479.0639-.059m-.1125-.0236c-.0236.0208-.0473.0417-.0709.0618l-.0139-.0167.0729-.059.0118.0139m.7868,1.11a.1529.1529,0,0,1,.1569.0278c-.0653.0382-.11-.0049-.1569-.0278m.141.2979c-.0146.0167-.0236.0333-.03.0326A.8118.8118,0,0,1,6.1733,6.28c-.0076-.0021-.0125-.0153-.0222-.0271.0542.0056.1007.01.159.016m2.575-1.5826c-.0014-.0056.01-.0139.0159-.0208.007.0069.0174.0132.0209.0215.0021.0056-.0056.0153-.0118.03-.0125-.0146-.0222-.0215-.025-.0306m.091-.0563c.0243-.0062.0534-.0132.0882-.0222.0042.0389.0069.0674.0111.1007a.7169.7169,0,0,0,.08-.0188c.0354-.0118.0521.0028.06.034a.1094.1094,0,0,1,.0056.0368.0734.0734,0,0,0,.06.0806.3255.3255,0,0,1,.0785.041c.0479.03.0972.059.1431.0924.0354.0257.0674.0563.1049.0882.1007-.0028.109.0069.1049.1257l.0465.0236a.45.45,0,0,1-.0764.0431c-.0465.0146-.0944.0229-.1417.0354-.009.0021-.0222.0063-.0243.0125-.0139.0507-.0667.034-.0938.0653-.01-.059-.01-.059.03-.1382-.0382-.0014-.0743-.0035-.1139-.0056.01-.0257.02-.0479.0313-.0743a.1477.1477,0,0,1-.0445-.0236c-.0083-.01-.0062-.0278-.01-.0451l.052-.0229c-.0042-.0667-.0944-.0514-.0882-.1208-.0348.0153-.057.025-.0861.0382l-.0347-.0778c-.0174.0014-.0472.0063-.0486.0021-.0125-.04-.0306.0007-.0465-.0056l.009-.0458c-.0382-.0347-.075-.0694-.1139-.1049.0445-.025-.0014-.07.0174-.1139m.0181.3451a.0829.0829,0,0,1,.0542-.0306.3184.3184,0,0,1,.0729-.0014l-.0125.0125.0722.0569c-.0174.07.0632.1167.0674.1813-.0493.0312-.0944.0639-.1431.0889a.0689.0689,0,0,1-.06-.0063.0779.0779,0,0,1-.0264-.0542.2427.2427,0,0,1,.0132-.0681.1207.1207,0,0,1-.0945-.0917c.0223-.0083.0417-.0153.059-.0208-.0014-.0243-.01-.05-.0021-.0667m1.3736,1.1882.0354-.0472c.0125.0181.0222.0312.0312.0451l-.0111.0139c-.016-.0035-.0312-.0063-.0556-.0118m.291-.3535c.03.0514.0562.1007.0861.1479.0292.0451.0625.0882.0951.1347l-.0417.0583c-.0312-.0437-.0576-.084-.0882-.1208a.0538.0538,0,0,1-.0007-.08c-.0743-.091-.0743-.091-.0507-.14m1.15.46a.3125.3125,0,0,1,.1681.0076.1411.1411,0,0,1-.1681-.0076m.4618-.06c.0083-.0167.0278-.0285.0548-.0549a.3046.3046,0,0,1-.0021.0764c-.0028.009-.0215.0125-.0334.0187-.007-.0139-.0229-.0319-.0194-.04m3.3035,7.1334-.007.0014q-1.0187-.62-2.0375-1.24a.3383.3383,0,0,1-.0334-.0257,6.1481,6.1481,0,0,0,.566-3.6083,5.9492,5.9492,0,0,0-.5382-1.7674l-.13.0743c.009.0285.0167.0535.0264.0861-.0542-.0125-.1076-.0757-.1618.0069a.9181.9181,0,0,0,.0417.0826.0435.0435,0,0,0,.0354.016c.0083-.0028.0159-.0222.0167-.034a.32.32,0,0,0-.009-.0639.8318.8318,0,0,1,.1681.2729,1.148,1.148,0,0,1,.0639.341.6307.6307,0,0,1-.1083.3618c-.0222.0285-.0423.0583-.068.0938-.009.059.0292.1035.0757.1507.0451-.041.0917-.0819.1445-.13a.8745.8745,0,0,1,.0292.12,1.7133,1.7133,0,0,1-.0785.8111,1.6613,1.6613,0,0,0-.1125.3986.3837.3837,0,0,0-.0014.2021.1519.1519,0,0,1,.0014.059.5481.5481,0,0,0,.0215.1833.2706.2706,0,0,1,.01.0944c-.0062.0965-.0146.1924-.025.2882a.2586.2586,0,0,1-.0868.1833c-.0764.0639-.1049.16-.1673.234a.1256.1256,0,0,0-.0181.07c-.0063.0757-.0083.1521-.0146.2285a.1774.1774,0,0,1-.0778.13.1928.1928,0,0,0-.0743.1236.6026.6026,0,0,1-.1049.2278c-.0722.1-.1354.2069-.209.3062a.457.457,0,0,1-.284.1729,1.5793,1.5793,0,0,0-.1979.0708.1075.1075,0,0,1-.0409-.1458.1173.1173,0,0,0,.0118-.091c-.01-.0507-.0153-.1028-.0257-.1535a.19.19,0,0,0-.025-.0771.2368.2368,0,0,1-.0361-.1479c.0014-.0958.0021-.1924,0-.2882a.148.148,0,0,0-.0153-.0563c-.03-.0708-.057-.1431-.0924-.2111a.3335.3335,0,0,1-.0292-.2236.8316.8316,0,0,1,.1035-.2924.2.2,0,0,0,.01-.1972.168.168,0,0,1-.0174-.0632.6035.6035,0,0,0-.1646-.3938c-.06-.0625-.118-.1257-.1778-.19a.7961.7961,0,0,0,.0319-.3264c.0049-.0681-.08-.1167-.1486-.0972-.0208.0063-.0437.009-.0639.0167-.08.0326-.08.0326-.1236-.0465l-.0111-.0194a.1006.1006,0,0,0-.0951-.0472.7024.7024,0,0,0-.1778.0493,1.4194,1.4194,0,0,0-.1951.1208.1535.1535,0,0,1-.1236.0306.41.41,0,0,0-.2889.0715.1608.1608,0,0,1-.1535.0229,1.35,1.35,0,0,1-.1695-.0722.4152.4152,0,0,0-.2132-.08c-.0292-.0417-.059-.0826-.09-.1271-.4354.2563-.8729.5139-1.309.7708V10.04a.3055.3055,0,0,1,.31.0556.2788.2788,0,0,0,.1583.0319c.0688-.0035.08.0042.1035.0674a.3027.3027,0,0,1-.0354.29,2.0569,2.0569,0,0,1-.157.2417.2343.2343,0,0,0-.0451.225.6793.6793,0,0,1-.0618.3972c-.0146.034-.0264.0694-.0417.1028a.1887.1887,0,0,1-.1445.1243.448.448,0,0,0-.0847.0306c0,.0507-.0007.0972,0,.1438l.0042,1.725q.0031.7542.0042,1.509a.1508.1508,0,0,0,.0521.1146.5934.5934,0,0,0,.2319.1618c-.0986.0653-.1861.0056-.2694-.009-.032.034.0056.041.0111.0583-.0361.009-.0222.0389-.0243.0611-.0014.0243,0,.0493.0007.0743a.1509.1509,0,0,0,.0076.0292,6.0758,6.0758,0,0,0,2.6355-.9118,6.159,6.159,0,0,0,1.9646-1.9847c.6764.4063,1.3479.81,2.0326,1.2215-2.2847,1.3313-4.559,2.6563-6.8445,3.9875-.0014-.04-.0035-.0674-.0035-.0958q.0011-1.8354.0021-3.6722V9.6091a.2179.2179,0,0,0-.0007-.0368.086.086,0,0,1,.0542-.0937c.21-.1215.418-.2458.6271-.3694Q11.2585,7.8247,13.431,6.541q1.0229-.6052,2.0465-1.2111c.0208-.0118.0423-.0222.0743-.04.01,2.6938.0215,5.3722.032,8.0493l-.01.0042m-2.0785-2.4229c-.0028.0062-.0111.009-.0271.02a.499.499,0,0,1-.0118-.066.7723.7723,0,0,1,.0542-.3118.56.56,0,0,0,.04-.2028.2544.2544,0,0,1,.0542-.1806.52.52,0,0,0,.0979-.2056c.0077-.0257.0167-.0514.025-.0771a.3869.3869,0,0,1,.0063.2472c-.0576.2181-.1153.4354-.1757.6521a.6916.6916,0,0,1-.0625.1243M10.765,14.6285A5.0755,5.0755,0,0,1,9.13,15.223a.3109.3109,0,0,1,.04-.0333c.075-.0368.15-.075.2271-.1083a.6232.6232,0,0,1,.243-.0681.6807.6807,0,0,0,.1431-.0347c.0285-.0069.057-.0347.0875-.0007.0056.0049.0278-.0035.0409-.0083.0563-.02.1118-.041.1674-.0618a.1213.1213,0,0,1,.0847-.0132c.0167.0049.0417-.01.0611-.0194q.2562-.1177.5125-.2368l.0271-.01M10.3095,4.4868c.0486-.0083.0833.0437.1285.0292a.8888.8888,0,0,0-.0653-.0743.0705.0705,0,0,0-.0993-.0139c-.0076.0063-.0236.0014-.0437.0014l.0264-.0306a.2138.2138,0,0,1-.0243-.0708c0-.01.0271-.025.0437-.0271.0514-.0062.0514-.0042.0618-.0618a.4033.4033,0,0,1-.0569-.0146.0815.0815,0,0,0-.1188.0375.0487.0487,0,0,1-.0708.0188c-.0618-.0292-.1257-.0569-.1861-.09-.0431-.0236-.0813-.0563-.1229-.0826a.1806.1806,0,0,1-.0805-.0937.2772.2772,0,0,0-.14-.1479.153.153,0,0,0-.1535-.0125.3061.3061,0,0,0,.118.09.1119.1119,0,0,1,.0694.0882.2365.2365,0,0,0,.0514.0951.9528.9528,0,0,0,.0833.0847.3087.3087,0,0,0,.1451.0854.2416.2416,0,0,1,.0868.04c.0236.0167.0576.0361.032.0778-.0035.0056.0028.0215.009.03a.4745.4745,0,0,0,.0479.0569c.0347.0347.0708.0674.1049.1021a.1348.1348,0,0,1,.0188.0389c-.0209.0125-.0368.0229-.0514.0319.0014.02.0076.05.0028.0514-.0437.0174-.0313.0528-.025.0931l-.1389-.03c.0236.07.1055.0458.1431.0938.0257-.0278.0479-.0528.0708-.0771.0306.0215.0528.0368.0868.06.0132-.0167.0236-.0306.0348-.0437.07-.0819.07-.0819.1653-.0472.0035-.0333.0076-.0667.0111-.0986-.0292-.0312-.0583-.0611-.0868-.0924-.0264-.0306-.066-.0521-.0778-.0986m-.1229.0653c-.01-.0132-.0208-.0257-.0306-.0389l.0111-.01.0389.0313-.0195.0174M12.21,5.591a1.7312,1.7312,0,0,0-.3035-.184.0455.0455,0,0,0-.0722.0243c-.0048.0111-.0111.0208-.0173.034-.0451-.0375-.1118-.0493-.1125-.1139-.0431-.016-.0806-.03-.1327-.0486a.4262.4262,0,0,0,.0063.0868c.0257.0882.0548.1764.084.2639.0035.0111.0146.0194.0222.0292a.2342.2342,0,0,0,.2132.0771.06.06,0,0,0,.0111-.0181c.0188-.0778.0736-.1076.159-.0632a.5271.5271,0,0,0,.0972.0361.067.067,0,0,0,.0806-.0361c.0076-.0188-.01-.0493-.0188-.0736-.0021-.0056-.0111-.01-.0167-.0139m.3889.2285a.7377.7377,0,0,0,.1264.1417.0564.0564,0,0,0,.0722.0181c.0153-.03-.0056-.0472-.0181-.0674-.059-.0944-.1556-.1625-.19-.2743-.0014-.0063-.0111-.009-.0167-.0139-.0819-.0708-.166-.14-.2452-.2139-.03-.0285-.075-.06-.0423-.1153.0021-.0035-.0056-.0139-.01-.0188a.3636.3636,0,0,0-.1583-.1042.3507.3507,0,0,0,.1076.2347c.0764.07.1493.1438.2264.2132a.8209.8209,0,0,1,.1479.2m-7.9722.73a.1956.1956,0,0,1,.141-.03l-.0132-.1056c-.0215-.0118-.0451-.0167-.0493-.0285-.0132-.0375-.0292-.0549-.07-.0361-.0083.0042-.025-.01-.0375-.0153-.0785.0639-.1549.1264-.2313.1889.0625.08.1028-.0035.1479-.0083a.2134.2134,0,0,0,.0528.0312c.0195.0056.0479.0125.06.0035m.3924.1063c.0306-.0722.0195-.1014-.0507-.11-.0681-.0083-.14-.0292-.2014.0271-.0111.01-.0326.009-.0493.0125a.2642.2642,0,0,0-.1437.0674c.0243.0153.0444.0278.0646.041.0368-.0326.0695-.0625.1007-.091.0833.0243.0917.02.0528.1542l.04-.0056.034.0708a.3747.3747,0,0,0,.0785-.2063l.0743.04m6.8632-1.3014a.6512.6512,0,0,0-.0334-.0618.7149.7149,0,0,0-.0479-.059c-.0576.0486-.0674.0743-.0417.1139.0243.0368.0542.04.1229.0069M5.0734,6.7674c.0646-.0139.1243-.0257.1826-.041.0319-.0083.0507-.0292.0312-.0646-.1285.0194-.1931.0493-.2139.1056M3.9456,5.2361a.3185.3185,0,0,0,.0028.0417l.0132.01a.59.59,0,0,0,.1979-.1347L4.122,5.11c-.0459.0556-.0827.1236-.1764.1257m.4833-.584-.0965.0549c.007.0507-.0423.0569-.0674.0833l-.034.0347.0083.01c.0743-.0472.1486-.0938.2229-.1417-.0125-.016-.0215-.0264-.0334-.041m.5347-.2729a.27.27,0,0,0-.2188.1035A.5209.5209,0,0,0,4.88,4.4611c.0333-.0153.0562-.0542.084-.0819M3.9678,5.484c.04-.0215.08-.0424.1285-.0687C4.0352,5.4,4.0352,5.4,3.9678,5.484M5.0664,6.8132c-.0486.0174-.0861.0312-.1333.0479.0618.04.0785.034.1333-.0479m6.6889-1.0146c-.009.01-.0049.0319-.0077.0618.0382-.0229.0625-.0368.0993-.0583-.0444-.0208-.0715-.025-.0916-.0035M5.3011,4.6181l-.0472-.0424c-.0125.0368-.0056.0521.0472.0424m7.6459,2.49a.4058.4058,0,0,0-.034-.0444c-.0285.0167-.0556.0326-.0889.0514.0111.0188.0139.0292.0208.0347a.6009.6009,0,0,1,.1681.2569.6528.6528,0,0,0,.07.1118c.016.0236.0354.0458.0493.0708a.6309.6309,0,0,0,.06.1181c.057.066.1229.1236.1917.1924a1.4933,1.4933,0,0,0-.1417-.3521c-.0944-.1493-.2118-.2833-.2958-.44M13.12,9.007v.1882c.0618.0062.0618.0062.0729-.0431.0077-.0333.0153-.0667.0237-.1a.0624.0624,0,0,0-.025-.0715L13.12,9.007M11.915,8.1959l.0534-.0771c-.0646.0007-.0916-.06-.1611-.0507.0375.0444.0681.0806.1077.1278m1.1521,1.3854c-.0153-.0694-.0306-.1389-.0486-.2194-.0278.1125-.01.1819.0486.2194m.1875.434c.0028-.0528.0062-.1049.009-.1576-.0368.0736-.0382.1014-.009.1576M6.0768,8.7993a.1866.1866,0,0,0-.1507-.0319.3272.3272,0,0,0-.18.0757c-.041-.0014-.0736-.0056-.1056-.0042-.0292.0014-.0583.0118-.0875.0139a.216.216,0,0,1-.0507-.009.0674.0674,0,0,1,.0465-.03c.0361-.0035.0417-.0368.0569-.059.0035-.0056-.0208-.03-.04-.0542l.241-.0424a1.8272,1.8272,0,0,0-.2952-.1806H5.5115l-.0264.0472-.0236-.0472h.05V8.4771l.0007.0007h.0007a.42.42,0,0,0-.0354-.0257c-.1625-.0958-.325-.19-.4875-.2847A.1164.1164,0,0,0,4.9629,8.16a.6719.6719,0,0,1,.0153.0861.2621.2621,0,0,1-.0076.0806c-.0146.0451-.0493.0493-.0819.0125a.3885.3885,0,0,1-.1146-.2417.0945.0945,0,0,0-.1291-.0812c-.02.0076-.0389.0181-.059.0278a.1956.1956,0,0,0-.1174-.0417,2.1171,2.1171,0,0,0-.2333.06c.0576.0167.03.0514.0361.0757a.2451.2451,0,0,1-.1417.0056.2836.2836,0,0,0-.2132.0417c-.0062.0035-.0146.009-.0153.0146-.0035.0417-.0334.0562-.066.0722-.01.0049-.0153.0229-.0222.0354s-.0083.0319-.0188.0389a.1128.1128,0,0,0-.0361.1319.1874.1874,0,0,1-.0118.1139.4482.4482,0,0,0,.0035.2618.8094.8094,0,0,0,.0785.1667.1374.1374,0,0,0,.1959.07c.025-.01.0514-.03.0757-.0278.0625.0049.0827-.0347.0993-.08.0111-.0319.0139-.0674.0243-.1.0062-.02.0153-.0465.0306-.0549A1.2951,1.2951,0,0,1,4.4178,8.76a.0546.0546,0,0,1,.0729.0236.0977.0977,0,0,1-.0063.0264.3462.3462,0,0,0-.04.1861.0914.0914,0,0,1-.007.05.65.65,0,0,0-.0472.19A.7342.7342,0,0,0,4.48,9.2292c.0438-.0083.0861-.0208.1292-.0326A.2243.2243,0,0,1,4.78,9.22a.0588.0588,0,0,1,.0354.06c-.0035.0493-.0042.0986-.0076.1479a.2112.2112,0,0,0,.0729.1993.4558.4558,0,0,0,.1.0625.1526.1526,0,0,0,.1507-.0382.1578.1578,0,0,1,.1972-.0069c.0187.0118.0375.0229.0576.0347.0493-.0521.1042-.0965.1-.1764a.06.06,0,0,1,.025-.0424,1.03,1.03,0,0,1,.1222-.0653A.2172.2172,0,0,0,5.7594,9.31c.0146-.0271.0382-.025.0625-.0069-.007.0333-.059.0625-.0035.0993.0375-.0361.1153-.0306.1118-.1187a.1541.1541,0,0,0,.1222.0535.07.07,0,0,1,.0389.0181.0822.0822,0,0,0,.0757.0146.3434.3434,0,0,1,.16-.0062.09.09,0,0,0,.118-.0625c.0507-.0028.0979-.0049.1465-.0069-.0146.04.007.0514.0486.0569l.0187-.0771h.0632c-.0229.0312-.0382.0514-.0465.0639.0361.0292.07.0569.1083.0875a.19.19,0,0,1,.1784.0632c.0465.0507.1146.0549.1681.09.0063.0042.0188.0014.0278,0,.0576-.01.1153-.0215.19-.0347-.0333-.02-.0555-.034-.0778-.0465q-.5969-.3479-1.193-.6972M5.5678,8.582l.009.0118-.0333.0236-.009-.0125.0333-.0229M5.1456,8.325c.0132.0285.0208.0431.03.0625-.05-.0083-.05-.0083-.03-.0625m.0368.5715a.1394.1394,0,0,1,.157-.0063.0957.0957,0,0,1-.157.0063m.034-.1285.0132-.041c-.0347-.02-.0694-.041-.1049-.06a.1084.1084,0,0,0-.04-.0146c-.066-.0049-.1319-.0056-.1979-.0118a.2252.2252,0,0,1-.0625-.0312c-.05.03-.1083.0639-.1792.1056a.166.166,0,0,1,.0736-.1118.4669.4669,0,0,1,.2472-.0646.1143.1143,0,0,1,.0486.0139.098.098,0,0,0,.09.0125A.0945.0945,0,0,1,5.181,8.58a1.2085,1.2085,0,0,0,.2431.0826A.6892.6892,0,0,0,5.5,8.6834a.6071.6071,0,0,1-.284.0847m2.1882,4.8465c.0007.04.0319.0424.0639.0556v-.1375a.0719.0719,0,0,0-.0639.0819m.0639-.31v-.0931c-.0264-.0042-.0486-.0076-.08-.0132.016.05.0243.0917.08.1063M5.847,9.5348c.0479-.0465-.0083-.07-.0243-.1132-.0368.0729-.0333.0868.0243.1132M21.8911,19.5941c.075-.3521.01-.7965-.3736-.7965-.4639,0-.7507.4778-1.0014,1.66-.2417,1.1424-.2882,1.86.2611,1.86a.9108.9108,0,0,0,.75-.7569l.1027-.4854h-.6291l.1493-.7035h1.543l-.5424,2.557h-.7021l.0931-.4382h-.0132a1.3411,1.3411,0,0,1-1.1055.5313c-1.1722,0-1.218-.8764-.87-2.5174.3382-1.5945.882-2.4111,2.1007-2.4111,1.0458,0,1.3555.5375,1.1514,1.5007Zm2.2195-1.4083h.9138l-1.0056,4.7431h-.9138Zm2.9438,1.0764c1.1035-.02,1.268.6375,1.0049,1.88-.2591,1.2229-.7563,1.88-1.8022,1.88-1.1035.02-1.2688-.6375-1.0049-1.88.2591-1.2222.7556-1.88,1.8022-1.88m-.6653,3.1354c.3708,0,.5674-.3653.7562-1.2556s.1472-1.2556-.2236-1.2556c-.45,0-.6007.525-.7562,1.2556s-.2264,1.2556.2236,1.2556m3.1187-4.2118h.9139l-.3187,1.5014h.0131a1.086,1.086,0,0,1,.8584-.425c.7479,0,.9756.5514.6937,1.88s-.743,1.88-1.491,1.88A.6728.6728,0,0,1,29.47,22.55h-.0138l-.08.3785h-.8743Zm.5208,4.132c.3972,0,.5611-.3986.7257-1.1757s.17-1.1757-.2271-1.1757c-.4042,0-.5681.3986-.7327,1.1757s-.17,1.1757.2341,1.1757m2.634-1.8667.0187-.0861a1.359,1.359,0,0,1,1.4848-1.1028c1.0861,0,1.1959.4521,1.059,1.0958l-.3986,1.8806a1.3932,1.3932,0,0,0-.0341.69h-.8743a1.3549,1.3549,0,0,1-.0333-.3715h-.0131a1.1011,1.1011,0,0,1-1.0056.4646c-.6361,0-.7451-.5444-.6438-1.0229a1.3066,1.3066,0,0,1,1.1368-1.116l.5458-.14c.2868-.0729.4027-.1792.4528-.4181.0583-.2729-.0257-.4389-.3305-.4389a.5269.5269,0,0,0-.5223.4653l-.0209.0993Zm1.5222.691a1.4156,1.4156,0,0,1-.4284.1792.7045.7045,0,0,0-.64.5785c-.0576.2722-.0063.4979.2389.4979a.699.699,0,0,0,.68-.5514Zm2.5146-2.9563h.9132l-1.0056,4.7431h-.9132Zm2.0278,3.707-.2195,1.0361h-.8742l.22-1.0361ZM41.25,22.9288l1.0056-4.7431h.9535L42.203,22.9288Zm2.7244-3.5736h.8742l-.0888.4188h.0131a1.2411,1.2411,0,0,1,1.0153-.5118c.5695,0,.841.3125.6916,1.0167l-.5618,2.65h-.9139l.523-2.4639c.0757-.359-.0139-.4986-.2854-.4986-.3111,0-.5243.1931-.6083.5917L44.13,22.9288h-.9139Zm3.6424,0H48.49l-.0888.4188h.0131a1.2411,1.2411,0,0,1,1.0153-.5118c.5695,0,.841.3125.6916,1.0167l-.5625,2.65h-.9132l.5223-2.4639c.0764-.359-.0132-.4986-.2847-.4986-.3111,0-.5243.1931-.609.5917l-.5028,2.3708h-.9132Zm4.9465-.0931c1.1028-.02,1.2681.6375,1.0049,1.88-.2591,1.2229-.7562,1.88-1.8021,1.88-1.1035.02-1.2688-.6375-1.0049-1.88.2591-1.2222.7556-1.88,1.8021-1.88m-.6653,3.1354c.3709,0,.5681-.3653.7562-1.2556s.1472-1.2556-.2235-1.2556c-.45,0-.6015.525-.7563,1.2556s-.2263,1.2556.2236,1.2556m4.625-3.0424h.9139l-1.6521,3.5736h-1.059l-.1625-3.5736h.9535l-.0326,2.5576h.0131Zm1.2382,1.0958.0181-.0861a1.36,1.36,0,0,1,1.4854-1.1028c1.0861,0,1.1951.4521,1.0584,1.0958l-.3987,1.8806a1.41,1.41,0,0,0-.034.69h-.8737a1.3518,1.3518,0,0,1-.034-.3715H58.969a1.1,1.1,0,0,1-1.0056.4646c-.6354,0-.7451-.5444-.6438-1.0229a1.3075,1.3075,0,0,1,1.1375-1.116l.5458-.14c.2868-.0729.4021-.1792.4528-.4181.0576-.2729-.0264-.4389-.3305-.4389a.5265.5265,0,0,0-.5223.4653l-.0215.0993Zm1.5216.691a1.4087,1.4087,0,0,1-.4284.1792.7036.7036,0,0,0-.6389.5785c-.0576.2722-.0063.4979.2389.4979a.6983.6983,0,0,0,.6792-.5514Zm2.6493-2.81h.9139l-.2174,1.0229h.53l-.1327.6243h-.5291l-.41,1.9333c-.059.2792-.0236.3917.2417.3917a1.8767,1.8767,0,0,0,.2076-.0132l-.1347.6375a5.9353,5.9353,0,0,1-.6048.04c-.7146,0-.8007-.2194-.6472-.9431l.434-2.0465H61.119l.1319-.6243h.4632Zm1.909,1.0229h.9132l-.7577,3.5736h-.9138ZM64.1,18.133h.9132l-.1659.784h-.9139Zm3.3167,1.2222h.9132l-1.6513,3.5736h-1.06l-.1625-3.5736h.9535l-.0327,2.5576h.0139Zm1.9556,1.9264-.0611.2854c-.0889.4188-.0632.8306.2743.8306.3048,0,.48-.2326.6257-.6708h.8208a1.5018,1.5018,0,0,1-1.5659,1.2951c-1.3236,0-1.16-1.0229-.9709-1.9132.2028-.9563.5764-1.8465,1.8083-1.8465,1.066,0,1.1521.7174.9194,1.8132l-.0437.2063Zm1.0486-.5444c.0958-.5451.0944-.8507-.2827-.8507-.3645,0-.5507.3785-.6208.7111l-.03.14Zm2.3638,1.1556-.2195,1.0361h-.8736l.2195-1.0361Zm6.2493-3.707-.166.784H77.8343l-.84,3.959h-.9534l.84-3.959H75.8482l.166-.784Zm-.0222,1.1694h.8742l-.1021.4785h.0139a1.1962,1.1962,0,0,1,.9416-.5715,1.4239,1.4239,0,0,1,.1633.0132l-.1862.8771c-.0916-.0069-.19-.0132-.2819-.0132a.7938.7938,0,0,0-.8118.6444l-.4556,2.1451h-.9132Zm3.6944,3.1556h-.0131a1.24,1.24,0,0,1-1.0153.5111c-.5695,0-.841-.3118-.6916-1.016l.5618-2.6507h.9139l-.523,2.4646c-.0757.359.0139.4979.2854.4979.3111,0,.5236-.1924.6083-.591l.5035-2.3715h.9132l-.7577,3.5736h-.8742Zm2.6424-.7507-.025.1194c-.066.3125.0555.5181.3666.5181a.5192.5192,0,0,0,.5535-.425.3278.3278,0,0,0-.2452-.4056l-.5931-.2319a.78.78,0,0,1-.55-.9965,1.3993,1.3993,0,0,1,1.54-1.0764c.8271,0,1.14.3722,1.0028,1.0167l-.0312.1458h-.8208c.0757-.3583.0083-.5382-.29-.5382a.5016.5016,0,0,0-.5118.3854c-.0361.1729.025.3188.3083.4188l.51.1861A.76.76,0,0,1,87.133,21.9,1.4588,1.4588,0,0,1,85.57,23.0219c-1.0256,0-1.2146-.4514-1.0695-1.1354l.0264-.1264Zm3.5284-3.4278h.9139l-.2174,1.0229h.53l-.1326.6243h-.5292l-.41,1.9333c-.059.2792-.0237.3917.2417.3917a1.8767,1.8767,0,0,0,.2076-.0132l-.1347.6375a5.9353,5.9353,0,0,1-.6048.04c-.7146,0-.8007-.2194-.6472-.9431l.434-2.0465h-.464l.1327-.6243H88.66Zm2.248,2.9493-.06.2854c-.0888.4188-.0632.8306.2743.8306.3048,0,.48-.2326.6257-.6708h.8208a1.5019,1.5019,0,0,1-1.566,1.2951c-1.3236,0-1.16-1.0229-.9709-1.9132.2029-.9563.5764-1.8465,1.8083-1.8465,1.066,0,1.1521.7174.92,1.8132l-.0437.2063Zm1.0493-.5444c.0958-.5451.0944-.8507-.2833-.8507-.3639,0-.55.3785-.62.7111l-.03.14ZM95.299,22.55h-.0132a1.0994,1.0994,0,0,1-.9076.4715c-.7479,0-.9756-.5514-.6938-1.88s.7431-1.88,1.491-1.88a.667.667,0,0,1,.6777.425h.0139l.3181-1.5014h.9139l-1.0063,4.7431h-.8736Zm-.4736-.2326c.4042,0,.5681-.3986.7327-1.1757s.17-1.1757-.2341-1.1757c-.3972,0-.5611.3986-.7257,1.1757s-.17,1.1757.2271,1.1757m3.3549-.425-.2195,1.0361h-.8743l.22-1.0361Z"
          fill="#808285"/>
</svg>
