<?xml version="1.0" encoding="utf-8"?>
<!-- Generator: Adobe Illustrator 13.0.0, SVG Export Plug-In . SVG Version: 6.00 Build 14948)  -->
<!DOCTYPE svg PUBLIC "-//W3C//DTD SVG 1.1//EN" "http://www.w3.org/Graphics/SVG/1.1/DTD/svg11.dtd">
<svg version="1.1" id="Layer_1" xmlns="http://www.w3.org/2000/svg" xmlns:xlink="http://www.w3.org/1999/xlink" x="0px" y="0px"
	 width="100px" height="14.808px" viewBox="0 0 100 14.808" enable-background="new 0 0 100 14.808" xml:space="preserve">
<path fill="#FFFFFF" d="M2.164,2.283C0.75,3.546-0.041,5.365,0,7.26c-0.02,1.971,0.804,3.857,2.262,5.183
	c1.816,1.631,4.202,2.48,6.64,2.365h9.96v-2.572h-9.96c-1.64,0.095-3.25-0.467-4.476-1.562C3.482,9.798,2.978,8.546,3.05,7.26
	c0.047-1.238,0.609-2.401,1.549-3.208c1.2-1.01,2.736-1.531,4.303-1.46h9.96V0.021h-9.96C6.449-0.118,4.037,0.692,2.164,2.283
	 M38.362,8.144c0.117,1.344-0.554,2.635-1.721,3.311c-1.401,0.61-2.926,0.878-4.451,0.782h-1.058
	c-1.524,0.096-3.05-0.173-4.451-0.782c-1.167-0.676-1.837-1.967-1.721-3.311V0.021h-3.073v8.124
	c-0.161,2.06,0.796,4.047,2.508,5.203c1.508,0.975,3.753,1.461,6.737,1.461h1.058c2.984,0,5.222-0.487,6.714-1.461
	c1.723-1.148,2.691-3.139,2.532-5.203V0.021h-3.074V8.144z M69.532,14.808h3.073V0.021h-3.073V14.808z M79.27,2.283
	c-1.413,1.264-2.203,3.082-2.164,4.977c-0.02,1.971,0.805,3.857,2.263,5.183c1.816,1.631,4.202,2.48,6.64,2.365h9.961v-2.572h-9.961
	c-1.64,0.095-3.25-0.467-4.476-1.562c-0.944-0.876-1.449-2.127-1.378-3.414c0.049-1.238,0.609-2.401,1.551-3.208
	c1.2-1.01,2.736-1.531,4.303-1.46h9.961V0.021h-9.961C83.555-0.118,81.143,0.692,79.27,2.283 M65.573,4.401
	c-0.028-1.246-0.698-2.388-1.771-3.022C62.227,0.381,60.378-0.101,58.516,0H45.851v14.787h12.665c1.856,0.1,3.7-0.366,5.287-1.336
	c1.062-0.606,1.732-1.721,1.771-2.941c-0.036-1.27-0.749-2.423-1.868-3.023C64.826,6.858,65.537,5.687,65.573,4.401 M61.712,11.681
	c-0.845,0.394-1.772,0.576-2.704,0.535H48.924V8.781h10.083c0.926-0.045,1.848,0.146,2.68,0.557c0.607,0.314,0.91,0.706,0.91,1.172
	C62.555,11.039,62.21,11.496,61.712,11.681 M61.688,5.635c-0.827,0.423-1.752,0.622-2.68,0.575H48.924v-3.64h10.083
	c0.934-0.043,1.863,0.148,2.704,0.556c0.507,0.219,0.849,0.703,0.886,1.254C62.557,4.937,62.204,5.423,61.688,5.635 M96.359,12.602
	h0.6v2.126h0.293v-2.126h0.603v-0.261h-1.495V12.602z M99.506,12.341l-0.479,1.892h-0.007l-0.478-1.892h-0.495v2.387h0.294v-2.086
	h0.007l0.528,2.086h0.294l0.529-2.086h0.006v2.086H100v-2.387H99.506z"/>
</svg>
