<svg style="display: none;"><symbol viewBox="0 0 22.05157 18.1734" id="icon-arrow-bordered-inner"><title>arrow-bordered-inner</title> <path d="M12.96552,18.1734,11.2,16.4079l6.072-6.07324H0V7.83746H17.27191L11.2,1.7655,12.96552,0l9.08605,9.08606Z"/> </symbol><symbol viewBox="0 0 30.04297 26.64795" id="icon-arrow-bordered"><title>arrow-bordered</title> <path d="M30.043,13.32275,16.7207,26.648l-5.15234-5.15332,4.52734-4.52832H0V9.6792H16.09473L11.56787,5.15283,16.7207,0Z"/> </symbol><symbol id="icon-arrow-slider"><title>arrow-slider</title> <path d="M19.989,39.177 L19.207,39.990 L0.384,20.430 L0.775,20.024 L0.009,19.230 L18.506,0.010 L19.276,0.811 L1.171,19.622 L19.989,39.177 Z"/> </symbol><symbol viewBox="0 0 12 7" id="icon-arrow"><title>arrow</title> <path d="M11.369,1.709 L6.084,6.493 L5.878,6.306 L5.668,6.497 L0.354,1.687 L2.071,0.132 L5.878,3.579 L9.656,0.159 L11.369,1.709 Z"/> </symbol><symbol viewBox="0 0 10.63184 14.09277" id="icon-brochure"><title>brochure</title> <path d="M1.73,9.65233H7.1709v1.11425H1.73Zm0-5.46143V5.30614H8.90137V4.1909Zm0,3.84522H8.90137V6.92088H1.73ZM8.17969.0366,8.14258,0H0V14.09276H10.63184V2.48924ZM6.99414,1.11375,9.52148,3.64061v9.34082l-8.40625-.00488V1.11375Z" transform="translate(0 0.00002)"/> </symbol><symbol viewBox="0 0 51 50.999" id="icon-calendar"><title>calendar</title> <path d="M14.413,0H12.196a1.108,1.108,0,0,0-1.109,1.107V8.87a1.108,1.108,0,0,0,1.107,1.109h2.219a1.108,1.108,0,0,0,1.109-1.107V1.109A1.108,1.108,0,0,0,14.415,0ZM38.804,9.978H36.587A1.109,1.109,0,0,1,35.478,8.87V1.109A1.109,1.109,0,0,1,36.587,0h2.217a1.109,1.109,0,0,1,1.109,1.109h0V8.87A1.109,1.109,0,0,1,38.804,9.978Zm9.979-5.543H42.13v6.652a1.109,1.109,0,0,1-1.109,1.109H34.37a1.109,1.109,0,0,1-1.109-1.109h0V4.435H17.739v6.652a1.109,1.109,0,0,1-1.109,1.109H9.978A1.109,1.109,0,0,1,8.87,11.087V4.435H2.217A2.217,2.217,0,0,0,0,6.652v42.13a2.217,2.217,0,0,0,2.217,2.217H48.783A2.217,2.217,0,0,0,51,48.783V6.652A2.217,2.217,0,0,0,48.783,4.435ZM47.674,48.783H3.326a1.109,1.109,0,0,1-1.109-1.109h0V17.735a1.109,1.109,0,0,1,1.109-1.1H47.674a1.109,1.109,0,0,1,1.109,1.1V47.674a1.109,1.109,0,0,1-1.109,1.109Z"/> </symbol><symbol viewBox="0 0 15.19824 15.19824" id="icon-clock"><title>clock</title> <path d="M7.59961,0H7.59912A7.599,7.599,0,0,0,2.229,12.97366a7.55039,7.55039,0,0,0,5.37207,2.22461h.002A7.59912,7.59912,0,0,0,7.59961,0ZM1.97021,7.60012a5.62867,5.62867,0,1,1,5.62793,5.62842A5.635,5.635,0,0,1,1.97021,7.60012Zm9.64991,2.04834-.85254,1.38184L6.61377,8.47464V3.67483h1.6001V7.60549Z" transform="translate(-0.00195 -0.00003)"/> </symbol><symbol viewBox="0 0 15 15.00105" id="icon-close"><title>close</title> <path d="M15,2.2197,12.7803,0,7.50052,5.28082,2.2197,0,0,2.2197,5.27977,7.50052,0,12.78134l2.2197,2.21971L7.50052,9.72023l5.27978,5.28082L15,12.78134,9.72023,7.50052Z"/> </symbol><symbol viewBox="0 0 36.622 42.527" id="icon-cubic-box"><title>cubic-box</title> <g id="cubic-box-Group_63" data-name="Group 63" transform="translate(-682 -745.973)"> <g id="cubic-box-Group_62" data-name="Group 62" transform="translate(682 745.973)"> <path id="cubic-box-Path_7" data-name="Path 7" d="M0,10.618C6.122,7.1,12.189,3.576,18.311,0,24.433,3.467,30.5,6.989,36.622,10.456v21.02a.3.3,0,0,1-.163.271l-18.2,10.727a.053.053,0,0,0-.054.054.189.189,0,0,1-.108-.054C12.189,38.952,6.23,35.43.325,31.963a.541.541,0,0,1-.271-.217c-.054-.108,0-.217,0-.325v-20.8Zm18.257,9.1c-.054-.054-.108-.054-.163-.108-1.463-.867-2.98-1.734-4.442-2.655-.488-.271-.921-.542-1.409-.813-.054-.054-.163-.054-.108-.163.054,0,.108,0,.108-.054.054-.054.054-.108.108-.163a.189.189,0,0,1,.054-.108c.163-.108.379-.217.542-.325,0-.054-.054-.108-.054-.163a.607.607,0,0,1,.379-.433.411.411,0,0,0,.217-.108.563.563,0,0,1,.433-.217l-.163.163c-.108.108-.054.163.054.217l.108-.108.163-.163a5.71,5.71,0,0,0,.6-.379v-.054h-.108v-.163c-.054.054-.108.108-.108.163-.054.163-.163.163-.325.163a.343.343,0,0,1-.325-.271v-.163l.163-.163a.275.275,0,0,0-.271-.054c-.108.054-.163.108-.271.163-.054.054-.163.108-.217.163v-.108c.163-.108.271-.271.433-.379a.053.053,0,0,0,.054-.054c.163-.054.325-.054.488-.108a.69.69,0,0,0,.6-.271.386.386,0,0,1,.325-.163,6.019,6.019,0,0,1-.379.867h.108a2.346,2.346,0,0,0,.271-.054c.108,0,.163,0,.217.108a.423.423,0,0,1,.217-.217c0,.108.054.163.163.217.108-.108.054-.163,0-.271-.054,0-.054.054-.108.054v-.163h-.054v-.163h-.325l-.054-.054c-.054,0-.054,0-.108.054a1.378,1.378,0,0,0,.108-.379h-.108a.334.334,0,0,0,.054-.379l-.054-.054c-.108-.054-.217-.054-.325-.108a.2.2,0,0,1,.163-.054v-.054c-.217,0-.379-.163-.6-.271a.255.255,0,0,0-.054-.325c-.054-.054-.054-.108-.108-.163l-.163-.325c-.054.054-.108.108-.108.163a.972.972,0,0,1-.271.379c-.054-.054-.163-.108-.217-.163a1.193,1.193,0,0,1,.054-.433h-.217a.461.461,0,0,0-.163-.271c-.108.054-.108.054-.325.054-.108,0-.217.054-.163.163s0,.108-.054.163c0,.054-.054.163-.054.217a.3.3,0,0,1-.163.271.053.053,0,0,0-.054.054.646.646,0,0,1-.108.813c-.108.054-.163.163-.271.217a1.56,1.56,0,0,1-.054.7c-.054,0-.163.054-.217.054,0-.108-.163-.163-.163-.325h.108V13.11a.2.2,0,0,1-.163-.054c0-.163.054-.271.054-.433h-.217a.783.783,0,0,1-.379-.108.363.363,0,0,0-.433-.163c0-.108.054-.217.054-.325-.054,0-.054-.054-.108-.054,0-.054.054-.054.054-.108a4.272,4.272,0,0,1,.65-.813c.054-.054.108-.054.108-.108l.163-.163a.951.951,0,0,1,.271-.217,1.182,1.182,0,0,0,.271-.217l.217-.217.163-.163H12.3l.054.054c.054-.054.163-.054.217-.108a.653.653,0,0,0,.271-.271A1.184,1.184,0,0,1,13,9.372c.054-.054.108-.108.054-.217-.108-.054-.163,0-.217.108-.054.054-.108.163-.163.217a.653.653,0,0,0-.271.271.053.053,0,0,0-.054.054c0-.163.217-.217.217-.379-.054,0-.108.054-.163.054a.2.2,0,0,0,.054-.163.117.117,0,0,1,.108-.108l.163-.163a1.376,1.376,0,0,1,.542-.433,1.9,1.9,0,0,0,.433-.271c-.325.054-1.083.433-1.083.6l.108-.054a2.356,2.356,0,0,1-.379.325c-.054.054-.108.054-.108.108-.108.108-.163.217-.271.325s-.108.108-.271.054a.41.41,0,0,1-.433.163.414.414,0,0,1,.108-.271c.054.108.108.054.163,0s.108-.054.163-.108c.054,0,.054-.054.108-.054.054-.054.163-.108.163-.163l.325-.325c.108-.054.217-.163.325-.217h0a.053.053,0,0,1-.054-.054c.054-.054.108-.054.163-.108h-.054a7.052,7.052,0,0,1-.921.433c-.054.054,0,.108-.054.163s-.108.054-.163.108h0c-.054.108-.054.108-.108.108A.842.842,0,0,0,11,9.7a.053.053,0,0,1-.054.054c-.054,0-.054-.054-.108-.054a.2.2,0,0,0,.054-.163l-.054-.054c-.217.108-.379.163-.6.271a13.751,13.751,0,0,0-1.95,1.571c-.217.271-.488.488-.7.758l-.108.108a4.481,4.481,0,0,1-.488.867c-.163-.108-.271-.163-.433-.271a14.586,14.586,0,0,1,3.467-3.359,13.769,13.769,0,0,1,7.205-2.384c.054-.163.054-5.147,0-5.255-4.822,3.2-9.86,6.176-14.952,9.1.054.054.108.054.163.108,1.409.813,2.817,1.625,4.171,2.438C10.4,15.657,14.248,17.878,18.04,20.1a.345.345,0,0,0,.325,0c1.9-1.083,3.792-2.113,5.634-3.2L34.4,11c.054-.054.108-.054.163-.108C29.309,7.91,24.108,4.984,18.853,2V7.259a15.509,15.509,0,0,1,4.117.867,14.544,14.544,0,0,1,3.684,2.059,14.253,14.253,0,0,1,2.871,3.088.189.189,0,0,0-.108.054c-.054,0-.108.054-.163.054A13.354,13.354,0,0,0,21.67,8.018c.108.054.271.108.379.163.054.054.163.054.163.163l.108.108.325.163c-.054,0-.054,0-.108.054.108.054.217.054.325.163A4.121,4.121,0,0,1,21.724,8.4h.325V8.343l-.325-.163c-.325-.054-.7-.163-1.029-.217-.217-.054-.488-.054-.7-.108a.593.593,0,0,0-.433,0c.054.054.108.054.108.108a.383.383,0,0,0,.325.325c.054,0,.108.054.163.054.163.108.271.271.433.379a.972.972,0,0,1,.271.379v.054c-.108.108.054.271,0,.379l.054.054a1.436,1.436,0,0,0,.325.271c.054.054.163.108.163.163.108.163.217.163.379.163.108-.108,0-.217.163-.271a4.519,4.519,0,0,1,.65.433c.054.054.108.054.054.163-.054.054-.054.163-.163.163v-.108c-.108-.108-.217-.163-.271-.271-.108.163-.108.163,0,.325l.163.163.271.271v.054a1.133,1.133,0,0,0-.325.217c0,.108.054.163.054.217.054.108,0,.108-.054.163s-.108.054-.108.163a.411.411,0,0,1-.108.217c-.054.054-.108,0-.163,0h-.054a.748.748,0,0,1,.163.217h-.217c-.108,0-.163,0-.217.108.054.108.108.108.217.108a.488.488,0,0,1,.271.054.541.541,0,0,1,.271.217.7.7,0,0,1,.217.542.2.2,0,0,0-.163.054c-.217,0-.433.054-.65.054a.3.3,0,0,0-.325.217,1,1,0,0,1,.271.65c0,.054,0,.163.108.163.054,0,.054.054.054.108s.054.108.054.163H22a.34.34,0,0,1,.433.108.1.1,0,0,0,.163,0,.492.492,0,0,1,.379-.163.189.189,0,0,0,.108-.054.809.809,0,0,0,.163-.379.255.255,0,0,1-.054-.325c.054-.054.108-.163.163-.217.108-.108.108-.108.054-.217l-.054-.054c0-.054,0-.163.108-.163h.108c.163,0,.271,0,.325-.163a.232.232,0,0,1,.379-.054,2.544,2.544,0,0,0,.488.325.2.2,0,0,0,.163.054c.163.054.325.163.488.217.108.054.163.163.108.217-.108.163-.271.108-.379.163.108.163.325.108.488.217a.41.41,0,0,1-.054-.217c.054-.054.054-.108.108-.163,0-.108,0-.163-.054-.217-.163-.108-.217-.163-.163-.217h.163l-.108-.108a2.23,2.23,0,0,1-.433-.163h-.054c-.108.054-.217-.054-.271-.108a1.133,1.133,0,0,0-.325-.217l-.163-.163v-.108c.054,0,.054,0,.108.054a.189.189,0,0,1,.108.054c.108-.054.163.054.217.108a.281.281,0,0,0,.217.108,1.924,1.924,0,0,1,.488.217.423.423,0,0,1,.217.217.555.555,0,0,0,.325.271.541.541,0,0,1,.271.217c.054.054.108.163.217.217h.108a.488.488,0,0,1-.054-.271c.054,0,.108-.054.163-.108-.163-.108-.379-.108-.433-.325h.163c-.054-.054-.054-.054-.054-.108.217-.108.271-.108.379.108.054.108.054.163.217.163,0,.054-.054.054-.054.108.217,0,.325.217.488.325v-.054c.054,0,.108.054.163.054.108,0,0-.108.054-.108.108,0,.271.217.379-.054h.163l.163.325-1.138.65c-.217-.108-.271-.054-.379.163,0,.054-.054.054-.054.108-.054.054-.108.054-.163.108a.255.255,0,0,1-.325-.054.421.421,0,0,0-.433-.108.687.687,0,0,1-.325-.054c-.054-.054-.108-.054-.217-.108v-.163c0-.054,0-.108-.054-.108a.216.216,0,0,1-.108-.217h-.108a.1.1,0,0,0-.163,0c-.054,0-.054.054-.108.054a1.582,1.582,0,0,0-.488.108,1.651,1.651,0,0,0-.867.433.189.189,0,0,1-.108.054c-.217,0-.379.108-.65-.054a.2.2,0,0,1-.054.163.77.77,0,0,1-.108.325c-.163.108-.163.271-.217.433,0,.054-.054.163,0,.217a.246.246,0,0,1,0,.271c-.054.054-.054.163-.108.163-.217.108-.271.271-.379.433,0,.054-.054.108-.108.163-.054.217-.163.433-.217.65,0,.054-.054.108-.054.163,0,.108-.054.163-.163.217l-2.275,1.3-.65.325m17.011-7.747c-.054.054-.108.054-.163.108-1.571.921-3.088,1.842-4.659,2.763-3.3,1.95-6.555,3.9-9.86,5.8-.488.271-.921.542-1.409.813-.108.054-.163.108-.108.217V40.306c5.2-3.034,10.347-6.013,15.494-9.047-1.571-.921-3.088-1.842-4.6-2.763a13.558,13.558,0,0,1-4.442,4.5,14,14,0,0,1-5.959,2.059v-.217c0-.054-.054-.108.054-.163,0-.054-.108-.054,0-.108.217.054.379.163.6,0a1.238,1.238,0,0,1-.542-.379c-.108-.054-.163-.108-.163-.217V26.329c.054,0,.108-.054.217-.054.163,0,.271-.163.325-.271.054-.054.054-.163.108-.217a1.751,1.751,0,0,0,.163-.921.414.414,0,0,1,.108-.488c.163-.163.217-.379.379-.542a.576.576,0,0,0,.054-.65c-.054-.163-.054-.163-.217-.163a.922.922,0,0,1-.379-.054c-.271-.217-.488-.325-.758-.217v-.975c.975-.6,2-1.192,2.98-1.734a1.182,1.182,0,0,0,.217.271,1.722,1.722,0,0,1,.488.163c.108.054.271.108.379.163a.358.358,0,0,0,.325-.054.977.977,0,0,1,.65-.163.406.406,0,0,0,.271-.054,1.9,1.9,0,0,1,.433-.271,1,1,0,0,1,.379-.108.281.281,0,0,1,.217.108v.054c.108.163.108.163.271.108a.2.2,0,0,0,.163-.054.239.239,0,0,1,.325.217,1.862,1.862,0,0,1-.054.758,2.713,2.713,0,0,1,.379.433,1.781,1.781,0,0,1,.379.867.2.2,0,0,0,.054.163.593.593,0,0,1,0,.433,1.54,1.54,0,0,0-.217.65.765.765,0,0,0,.054.488c.054.163.163.325.217.488a.189.189,0,0,0,.054.108v.65a.4.4,0,0,0,.108.325.2.2,0,0,1,.054.163c0,.108.054.217.054.325v.217a.261.261,0,0,0,.108.325c.163-.054.271-.108.433-.163a1,1,0,0,0,.65-.379c.163-.217.325-.488.488-.7a.963.963,0,0,0,.217-.542.3.3,0,0,1,.163-.271.3.3,0,0,0,.163-.271,2.032,2.032,0,0,1,.054-.542.2.2,0,0,1,.054-.163c.163-.163.217-.379.379-.542a1.089,1.089,0,0,0,.217-.433c0-.217.054-.433.054-.65v-.217a1.056,1.056,0,0,1-.054-.433V21.4a1.156,1.156,0,0,1,0-.433,5.92,5.92,0,0,1,.271-.921,3.53,3.53,0,0,0,.163-1.842c0-.108-.054-.163-.054-.271a1.436,1.436,0,0,1-.325.271c-.108-.108-.217-.217-.163-.325.054-.054.108-.163.163-.217a2.062,2.062,0,0,0,.271-.813,3.125,3.125,0,0,0-.163-.758,1.83,1.83,0,0,0-.379-.6v.163c0,.054,0,.054-.054.054a.053.053,0,0,1-.054-.054c-.054-.054-.054-.108-.108-.163.108-.163.217-.054.379,0,0-.054-.054-.108-.054-.217a1.184,1.184,0,0,0,.271-.163,14.973,14.973,0,0,1,1.246,4.009,14.189,14.189,0,0,1-1.3,8.18.053.053,0,0,1,.054.054c1.517.921,3.088,1.9,4.6,2.817h0c-.054-6.013-.108-12.081-.108-18.2m-33.859.271c0,5.959-.054,11.864-.054,17.769v.054h0c1.409-.813,2.871-1.625,4.28-2.492a13.078,13.078,0,0,1-1.517-6.23,13.8,13.8,0,0,1,1.409-6.23c.325.163.65.379.921.542,0,.054-.054.054-.054.108a3.443,3.443,0,0,0-.379,1.788v.379a.189.189,0,0,0,.054.108.492.492,0,0,1,.163.379.775.775,0,0,0,.163.6.255.255,0,0,1-.054.325c.054.054.108.054.108.108a.2.2,0,0,1,.108.271v.108c.054.108.163.163.217.271a.1.1,0,0,0,0-.163c-.054-.054-.054-.108-.108-.163-.108-.271-.163-.542-.271-.813a1.193,1.193,0,0,1-.054-.433c.108,0,.163.108.163.217a.6.6,0,0,0,.163.488.053.053,0,0,0,.054.054c.054.108.163.163.163.325l.054.054a.053.053,0,0,1,.054.054,1.184,1.184,0,0,0,.163.271.874.874,0,0,1,.163.488.2.2,0,0,0,.054.163l.054.054c.163.163.379.163.542.271l.488.163c.108.054.163,0,.271-.054.108-.108.217-.108.379,0a.748.748,0,0,0,.217.163,1.191,1.191,0,0,0,.758.108l.163.163c.108.108.217.163.217.271,0,.054.108.108.108.108a.414.414,0,0,1,.271.108c.054.054.108.108.217.054s.217,0,.325.108a.1.1,0,0,0,.163,0c0-.054-.054-.054-.108-.108.054-.054.108-.054.163-.108.108-.108.217-.054.271.054a.168.168,0,0,0,.054.108.493.493,0,0,1,.217.433c0,.108.054.163.054.271a.281.281,0,0,1-.108.217c-.054.054-.054.163-.108.271l-.054.054c0,.054-.054.054-.054.108a.488.488,0,0,1-.054.271c-.054.163.054.271.217.217a.281.281,0,0,1-.108.217.3.3,0,0,0,.108.433,2.309,2.309,0,0,1,.65.6,1.266,1.266,0,0,0,.379.379c.054.054.108.108.108.163a.445.445,0,0,0,.271.271c.108.054.271.054.379.108a1.275,1.275,0,0,0,.433.108.488.488,0,0,1,.325.325c.054.163.108.379.163.542,0,.163.108.379.108.542v.108a2.719,2.719,0,0,0,.108.65.411.411,0,0,0,.108.217.77.77,0,0,1,.108.325v.7a2.4,2.4,0,0,1,.271.813.117.117,0,0,0,.108.108c.054-.054,0-.108,0-.163-.054-.054,0-.108.108-.163.054.271.163.542.217.758h-.163c0,.054-.054.108-.054.163h.163a1.184,1.184,0,0,0,.163.271c0,.054-.054.108,0,.108.108.054.108.108.163.217,0,.054.054.108.108.054a.168.168,0,0,1,.108.054c.054.054.108.163.163.217.108.108.163.271.379.271v2.763a11.193,11.193,0,0,1-2.98-.6,14.086,14.086,0,0,1-7.639-5.8c-1.409.867-2.817,1.679-4.226,2.546L2,31.313H2c5.092,2.98,10.185,5.959,15.332,8.939V21.67c0-.054,0-.108-.054-.108a.189.189,0,0,1-.108-.054c-5.2-3.088-10.4-6.122-15.6-9.21-.054,0-.108-.054-.163-.054M16.74,10.727c-.054-.163.054-.325-.054-.488a.915.915,0,0,0,.108-.271c0-.108-.054-.163-.108-.271a.053.053,0,0,0,.054-.054.276.276,0,0,1,.271-.217.053.053,0,0,0,.054-.054.411.411,0,0,0,.108-.217c0-.108.054-.217-.054-.325.163.108.271,0,.379-.054.163-.054.108-.217.163-.325h-.488c0-.163.054-.217.217-.163.108.054.108.054.163,0-.108-.108-.271-.163-.379-.271-.054-.054-.163-.054-.217-.163a1.722,1.722,0,0,0-.488-.163,2.959,2.959,0,0,0-.975.054,2.346,2.346,0,0,1-.271.054c.108.054.108.108.108.217a1.67,1.67,0,0,0-.054.542c.054,0,.054-.054.108-.054a.748.748,0,0,1,.163.217h-.217c0,.054-.054.108-.054.163a.189.189,0,0,0,.054.108c.054,0,.108,0,.108-.054V8.885H15.6c0,.163,0,.271-.163.325v.054a.518.518,0,0,0,0,.488,2.126,2.126,0,0,0,.433.758.189.189,0,0,1,.054.108c.054.054.217.163.271.108s.108,0,.163.054a.321.321,0,0,0,.379-.054m-3.9-.217a.2.2,0,0,0,.163.054c.108-.054.163-.108.217-.108a.748.748,0,0,1,.163.217c0,.054.054.163.054.217.054,0,.054-.054.108-.054.108.054.217.054.325.108h.108c0-.054,0-.108-.054-.108l-.163-.163v-.054l.325.163a.518.518,0,0,0,0-.488c-.217-.054-.108-.217-.108-.325.054,0,.163.054.163.108s.108.108.108.163a1.182,1.182,0,0,1,.217-.271c.163-.217.163-.217.054-.325-.108-.054-.163-.163-.271-.217a.2.2,0,0,1-.054-.163c.054-.054.108-.163.163-.217a3.108,3.108,0,0,0-.217-.379c.054-.054.054-.163.108-.271a1.37,1.37,0,0,0-.813.325,1.537,1.537,0,0,0-.542.488c.217,0,.433.163.6-.054h.054a.326.326,0,0,1-.054.217h.054a.286.286,0,0,1-.054.433c-.054.054-.054.108-.108.108a.281.281,0,0,0-.108.217c-.108.054-.163.108-.217.108a.381.381,0,0,0-.217.271m8.939.975c-.108-.054-.163-.163-.217-.217-.108-.054-.217-.163-.325-.217-.054-.054-.108-.054-.163-.108-.108-.054-.163-.108-.108-.163v-.108c0-.054-.054-.108-.163-.054-.054,0-.108.054-.163.054v-.217c-.054,0-.163.054-.217.054-.054.108.054.217-.054.271a.951.951,0,0,0,.271.217v.108c.054,0,.054-.054.108,0h.108c0,.054.054.108.054.163.054-.054.108-.054.217-.108,0,.163.217.108.217.271-.054,0-.054.054-.108.054v.108c0,.054.054.054.108.054,0,.054-.054.108-.054.163h.271c-.108.163-.108.163-.054.325.054-.054.163-.054.217-.163a.053.053,0,0,0,.054-.054c.108,0,.217-.054.325-.054.054,0,.108-.054.163-.108-.054-.054-.054-.054-.108-.054-.108-.217-.163-.217-.379-.217M31.1,22.428c0,.054-.054.108-.054.163a1.924,1.924,0,0,1-.217.488.584.584,0,0,0-.108.433,1.021,1.021,0,0,1-.108.433,1.6,1.6,0,0,0-.108.7v.163a.053.053,0,0,0,.054-.054c.054-.108.108-.163.163-.271a14.523,14.523,0,0,0,.379-1.463.756.756,0,0,0,0-.6M24.379,33.155h-.054c-.379.163-.758.379-1.138.542-.054,0-.108.054-.163.054a.41.41,0,0,0-.217.054c-.108.054-.271.108-.379.163-.054,0-.054.054-.108,0s-.108,0-.217,0-.217.108-.325.108a.915.915,0,0,0-.542.163,5.62,5.62,0,0,1-.542.217.189.189,0,0,1-.108.054,11.1,11.1,0,0,0,3.792-1.354M18.745,9.589a.687.687,0,0,1,.325.054c.108,0,.217.054.271-.108,0-.054.054-.054.054-.108a.165.165,0,0,0,0-.217c-.054-.054-.379-.217-.433-.163-.108.054-.217.054-.271.108a.189.189,0,0,0-.054.108c-.054-.054-.108-.054-.163-.108h-.108c0,.054-.108.108,0,.163h.217c0,.054,0,.054-.054.108.163.054.163.054.217.163m1.9,1.625h0c0-.054-.108-.054-.163,0a.189.189,0,0,0-.108.054v.163a.189.189,0,0,0-.108.054.423.423,0,0,0,.217.217c0,.054-.054.108-.054.163s0,.108.054.108.108.054.163,0a1.133,1.133,0,0,0,.325-.217c0-.163-.217-.271-.163-.433-.054,0-.108-.054-.163-.108m-8.072-.488h0c-.163-.108-.108-.325-.325-.379a2.977,2.977,0,0,0-.379.488l.108.108a1.436,1.436,0,0,0,.325-.271l.108.108a.546.546,0,0,1,.163-.054m11.7,2.763a.1.1,0,0,0,0,.163.951.951,0,0,0,.217.271c.054-.054.054-.108.108-.108-.054-.108-.163-.217-.217-.325a1.133,1.133,0,0,0-.217-.325c-.054.108-.054.108.108.325M13.923,8.235h0a.075.075,0,0,0,.108,0c.054,0,.054.054.108.054a2.064,2.064,0,0,0,.542-.163c0-.054-.054-.054-.054-.108a5.032,5.032,0,0,1-.7.217m-.65,1.571c.163,0,.217-.163.379-.163-.217-.108-.325-.054-.379.163m-1.138-.271a.951.951,0,0,0-.271.217c.163.054.217,0,.271-.217m1.842,4.009c.108.054.217.163.379.054a.342.342,0,0,0-.379-.054m.325.65a1.058,1.058,0,0,1-.379-.054.053.053,0,0,0,.054.054c.054,0,.163.054.217.054.054.054.054,0,.108-.054m12.839.054a.458.458,0,0,0-.379,0,.458.458,0,0,0,.379,0m.813-.271-.108.108a.168.168,0,0,0,.054.108.053.053,0,0,0,.054-.054q0-.081,0-.163M10.131,23.945a.2.2,0,0,1-.163-.054l.108.217c0-.108,0-.108.054-.163m1.9-12.839h0A.281.281,0,0,0,12.244,11l-.054-.054c-.054.108-.108.108-.163.163M23.62,13.977h0a.2.2,0,0,0-.054-.163c-.054.054-.054.054-.054.108.054.054.054.054.108.054M12.3,11.214h0c.054,0,.108-.054.163-.108-.108,0-.163.054-.163.108m7.91-.542c0-.054.054-.054,0-.054l-.054-.054-.054.054c.054,0,.054.054.108.054M17.228,8.4h0a.168.168,0,0,0,.108.054V8.4c0-.054-.054,0-.108,0" fill="#0067ac" fill-rule="evenodd"/> <path id="cubic-box-Path_8" data-name="Path 8" d="M41.3,18.354a.748.748,0,0,0-.217-.163l-.163.163c-.108-.108-.271-.054-.325-.217.108,0,.217.054.325.054,0-.108-.054-.163.054-.217v-.108c.054,0,.054-.054.108-.054,0-.054,0-.054-.054-.108l-.217-.217c-.054-.054-.054-.108-.108-.108,0,0-.054-.054,0-.054.054-.108,0-.163-.054-.163-.054-.054-.108-.054-.217-.108a1.133,1.133,0,0,1-.325-.217.748.748,0,0,1-.163-.217.411.411,0,0,1-.108-.217c0-.108-.054-.163-.163-.217a.541.541,0,0,1-.271-.217c.163-.054.271-.054.325.054a.488.488,0,0,1,.325.325.748.748,0,0,0,.163.217c.108.054.163.108.271.163.163.054.271.163.433.217.054.054.108,0,.163-.054.054-.108.163-.108.271-.108.054,0,.108,0,.108.054,0,.108,0,.108-.163.163a.189.189,0,0,0-.108.054c0,.054.054.108.054.163a.053.053,0,0,1-.054.054H41.3c.108-.054.163-.054.217.054l.163.163c-.108.054-.163-.108-.271-.054a.748.748,0,0,0,.163.217c.054.054.108.163.217.217v.217c-.217-.054-.217-.054-.379.108-.054.054-.054.108-.108.163m-.163-.758h0c0-.054,0-.108-.054-.108h0a.189.189,0,0,0,.054.108" transform="translate(-18.055 -7.302)" fill="#0067ac" fill-rule="evenodd"/> <path id="cubic-box-Path_9" data-name="Path 9" d="M48.4,22.2c.108.054.217.054.325.108,0,.163.163.163.271.271a.053.053,0,0,1,.054-.054c.054-.054.108-.108.163-.054a2.481,2.481,0,0,1,.7.433.053.053,0,0,1,.054.054c0,.054.054.108.054.163s-.108.108-.163.108a.411.411,0,0,1-.217-.108c-.217-.108-.325-.054-.379.163v.054c-.163,0-.379,0-.488-.163l-.054-.054c-.054-.217-.108-.379-.163-.6-.163-.217-.163-.271-.163-.325" transform="translate(-22.179 -10.173)" fill="#0067ac" fill-rule="evenodd"/> <path id="cubic-box-Path_10" data-name="Path 10" d="M50.7,21.6a2.356,2.356,0,0,1,.379.217v.054c-.054.108.054.217.108.271.163.163.379.325.542.488a.053.053,0,0,1,.054.054,1.223,1.223,0,0,0,.433.6.2.2,0,0,1,.054.163c-.054.054-.108,0-.163-.054a1.436,1.436,0,0,1-.271-.325,3,3,0,0,0-.325-.433,4.884,4.884,0,0,0-.542-.488A.667.667,0,0,1,50.7,21.6" transform="translate(-23.233 -9.898)" fill="#0067ac" fill-rule="evenodd"/> <path id="cubic-box-Path_11" data-name="Path 11" d="M19.213,26.617a.326.326,0,0,0,.054.217.687.687,0,0,0-.325.054h-.108c-.054,0-.054-.054-.108-.054-.108,0-.217.217-.325,0a4.737,4.737,0,0,1,.542-.433c.054,0,.054.054.108.054.108-.054.108,0,.163.054-.108.108-.054.108,0,.108" transform="translate(-8.432 -12.098)" fill="#0067ac" fill-rule="evenodd"/> <path id="cubic-box-Path_12" data-name="Path 12" d="M19.479,27.5c-.054.054-.163.108-.217.217-.054-.054-.108-.054-.163-.108a.457.457,0,0,1,.379-.108.053.053,0,0,1,.054-.054.642.642,0,0,1,.433-.054c.163,0,.163.108.108.271-.054-.054-.108-.054-.163-.108a1.722,1.722,0,0,1-.163.488.2.2,0,0,1-.054-.163h-.108c.108-.325.108-.325-.108-.379" transform="translate(-8.753 -12.545)" fill="#0067ac" fill-rule="evenodd"/> <path id="cubic-box-Path_13" data-name="Path 13" d="M49.281,21.9c.054.054.054.108.108.108a.2.2,0,0,1,.054.163c-.163.054-.217.054-.271,0-.054-.108-.054-.163.108-.271" transform="translate(-22.519 -10.036)" fill="#0067ac" fill-rule="evenodd"/> <path id="cubic-box-Path_14" data-name="Path 14" d="M21.688,27.9c.054.108,0,.108-.054.163-.108.054-.271.054-.433.108.054-.163.217-.217.488-.271" transform="translate(-9.715 -12.785)" fill="#0067ac" fill-rule="evenodd"/> <path id="cubic-box-Path_15" data-name="Path 15" d="M16.5,21.671c.217,0,.271-.163.379-.271l.108.108c-.163.108-.271.217-.433.325H16.5v-.163" transform="translate(-7.561 -9.807)" fill="#0067ac" fill-rule="evenodd"/> <path id="cubic-box-Path_16" data-name="Path 16" d="M18.133,19.5c0,.054.054.054.054.108l-.488.325h0l.054-.054c.054-.054.163-.054.163-.163.108-.163.163-.217.217-.217" transform="translate(-8.111 -8.936)" fill="#0067ac" fill-rule="evenodd"/> <path id="cubic-box-Path_17" data-name="Path 17" d="M19.9,18.617a.528.528,0,0,1,.488-.217c-.054.054-.108.163-.217.163a.406.406,0,0,0-.271.054" transform="translate(-9.119 -8.432)" fill="#0067ac" fill-rule="evenodd"/> <path id="cubic-box-Path_18" data-name="Path 18" d="M16.6,22.737c.163-.217.163-.217.271-.163-.108.108-.163.163-.271.163" transform="translate(-7.607 -10.331)" fill="#0067ac" fill-rule="evenodd"/> <path id="cubic-box-Path_19" data-name="Path 19" d="M20.6,28.608c.108-.054.217-.054.325-.108-.108.163-.163.217-.325.108" transform="translate(-9.44 -13.06)" fill="#0067ac" fill-rule="evenodd"/> <path id="cubic-box-Path_20" data-name="Path 20" d="M49.417,24.254c-.108.054-.163.108-.217.108V24.2a.41.41,0,0,1,.217.054" transform="translate(-22.546 -11.09)" fill="#0067ac" fill-rule="evenodd"/> <path id="cubic-box-Path_21" data-name="Path 21" d="M22.108,19.208c-.108,0-.108,0-.108-.108,0,.054.054.054.108.108" transform="translate(-10.082 -8.753)" fill="#0067ac" fill-rule="evenodd"/> <path id="cubic-box-Path_22" data-name="Path 22" d="M53.7,29.708c.054-.054.163-.054.217-.108.054.054.054.054.054.108.217.379.433.65.65.975a3.636,3.636,0,0,1,.325.813,3.27,3.27,0,0,1-.433-.433.414.414,0,0,1-.108-.271c-.054-.054-.054-.108-.108-.163-.054-.108-.108-.163-.163-.271a1.4,1.4,0,0,0-.379-.6.053.053,0,0,1-.054-.054" transform="translate(-24.608 -13.564)" fill="#0067ac" fill-rule="evenodd"/> <path id="cubic-box-Path_23" data-name="Path 23" d="M54.9,37.654c.054,0,.108-.054.163-.054a.2.2,0,0,1,.054.163c0,.054-.054.163-.054.217,0,.108,0,.108-.163.108Z" transform="translate(-25.158 -17.23)" fill="#0067ac" fill-rule="evenodd"/> <path id="cubic-box-Path_24" data-name="Path 24" d="M49.717,34.071c-.108-.108-.163-.217-.217-.271.163,0,.217.108.379.108q-.163.081-.163.163" transform="translate(-22.683 -15.489)" fill="#0067ac" fill-rule="evenodd"/> <path id="cubic-box-Path_25" data-name="Path 25" d="M54.473,39.2c.054.163.054.325.108.488-.163-.108-.163-.271-.108-.488" transform="translate(-24.947 -17.963)" fill="#0067ac" fill-rule="evenodd"/> <path id="cubic-box-Path_26" data-name="Path 26" d="M55.466,41.579c-.054-.108-.054-.163,0-.379v.379" transform="translate(-25.399 -18.88)" fill="#0067ac" fill-rule="evenodd"/> <path id="cubic-box-Path_27" data-name="Path 27" d="M19.72,34.446a4.519,4.519,0,0,1,.65.433c-.163.054-.379.054-.542.108l.108.108c-.054.054-.054.108-.108.108s-.054,0-.108.054h.108a.41.41,0,0,0,.217-.054h.217c.108-.108.271-.108.433-.163a.358.358,0,0,1,.325.054c.921.542,1.788,1.029,2.709,1.571.054.054.108.054.163.108-.217.108-.325.108-.433.163H23.4a1.358,1.358,0,0,1-.379-.217.585.585,0,0,0-.379-.163.951.951,0,0,1-.271-.217.67.67,0,0,0,.108-.163h-.163c0,.054-.054.108-.054.163-.108,0-.163-.054-.108-.108h-.325a.25.25,0,0,1-.271.163c-.108-.054-.217,0-.379,0a.2.2,0,0,1-.163-.054.189.189,0,0,0-.108-.054c-.108,0-.217,0-.271-.108,0,.217-.163.163-.271.271-.108-.108,0-.163,0-.217a.1.1,0,0,0-.163,0,.541.541,0,0,1-.271.217c-.108.054-.163.108-.271.163-.054,0-.054.054-.054.108a.548.548,0,0,1-.217.379.168.168,0,0,0-.108-.054.33.33,0,0,0-.433,0c-.108.054-.217.163-.325.108-.054-.054-.163-.108-.217-.163a.449.449,0,0,1-.163-.433v-.325a.117.117,0,0,0-.108-.108.476.476,0,0,0-.379-.054,2.346,2.346,0,0,0-.271.054h-.217c.054-.163.054-.325.108-.433v-.108a.651.651,0,0,1,.108-.433V35.1a.2.2,0,0,0-.163-.054c-.108.054-.271.108-.379.163-.054,0-.054.054-.054.108s-.054.163-.054.217c-.054.108-.108.217-.217.163-.054,0-.108.054-.163.054-.217.054-.325.054-.433-.163a1.147,1.147,0,0,1-.163-.379,1.113,1.113,0,0,1,0-.6.488.488,0,0,0,.054-.271c0-.108-.054-.217.054-.271a.168.168,0,0,1,.054-.108c0-.054.054-.054.054-.108.054-.054.163-.054.163-.163l.054-.054a.805.805,0,0,1,.488-.108h.325c0-.054.054-.108-.108-.163.217-.054.379-.108.542-.163.108,0,.163.054.271.108.054,0,.108-.054.163-.054a.19.19,0,0,1,.271.163.752.752,0,0,0,.271.542c.054.108.163.054.163-.054v-.163a.41.41,0,0,0-.054-.217h.054c.379.217.758.433,1.083.65,0,.217,0,.217.054.271h-.108c0,.054,0,.054.054.108,0-.054,0-.108.054-.108m-.054.433c-.054,0-.108-.054-.163-.054a2.064,2.064,0,0,1-.542-.163.2.2,0,0,0-.163-.054c-.108.054-.163,0-.217,0s-.054-.054-.108-.054a.915.915,0,0,0-.542.163.338.338,0,0,0-.163.271,3.109,3.109,0,0,1,.379-.217.2.2,0,0,0,.163.054h.433c.054,0,.054,0,.108.054a.748.748,0,0,1,.217.163.168.168,0,0,1-.054.108,3.314,3.314,0,0,0,.65-.271m-.7.488a.262.262,0,0,0,.379,0,.458.458,0,0,0-.379,0m-.108-1.3c-.054.108-.054.108.054.163a.2.2,0,0,0-.054-.163m.975.65H19.72v.054a.168.168,0,0,1,.108-.054" transform="translate(-7.206 -15.214)" fill="#0067ac" fill-rule="evenodd"/> <path id="cubic-box-Path_28" data-name="Path 28" d="M24.336,39.4c.054.108.163.163.054.271-.163-.054-.163-.108-.054-.271" transform="translate(-11.117 -18.055)" fill="#0067ac" fill-rule="evenodd"/> </g> </g> </symbol><symbol viewBox="0 0 13.99316 17.27344" id="icon-flag"><title>flag</title> <path d="M12.99219.55907A8.57374,8.57374,0,0,1,7.58594.89989,25.80525,25.80525,0,0,0,.11963.13622L0,.14159V17.13378l1.083.13965V9.22362a18.85715,18.85715,0,0,1,6.22265.68213,9.10447,9.10447,0,0,0,2.4336.33057h.06445a10.19956,10.19956,0,0,0,4.11621-.92139l.07324-.0332V0ZM1.08008,8.13573V1.26855a18.94807,18.94807,0,0,1,6.22314.68212A9.56664,9.56664,0,0,0,9.793,2.28075c.00781-.00049.01758,0,.02637,0a9.37246,9.37246,0,0,0,3.08789-.522V8.55663a8.5316,8.5316,0,0,1-5.31934.30859l.00147-.00537A19.9084,19.9084,0,0,0,1.08008,8.13573Z" transform="translate(0 0.00001)"/> </symbol><symbol viewBox="0 0 32 38" id="icon-left-arrow"><title>left-arrow</title> <g id="left-arrow-Group_76" data-name="Group 76" transform="translate(31.599 38.045) rotate(180)"> <g id="left-arrow-Group_70" data-name="Group 70" transform="translate(-0.126 0.045)"> <rect id="left-arrow-Rectangle_66" data-name="Rectangle 66" width="38" height="32" transform="translate(-0.275 38) rotate(-90)" fill="#00adbb"/> </g> <g id="left-arrow-Group_69" data-name="Group 69" transform="translate(22.791 30.19) rotate(180)"> <line id="left-arrow-Line_3" data-name="Line 3" y1="12.285" x2="8.896" transform="translate(0)" fill="none" stroke="#fff" stroke-width="0.75"/> <line id="left-arrow-Line_4" data-name="Line 4" x2="8.896" y2="11.861" transform="translate(0 12.285)" fill="none" stroke="#fff" stroke-width="0.75"/> </g> </g> </symbol><symbol viewBox="0 0 52.03916 52.04066" id="icon-link"><title>link</title> <path d="M22.99651,21.16115a9.99495,9.99495,0,0,1,5.145,16.88l-7.071,7.071a9.9999,9.9999,0,0,1-14.142-14.142l7.071-7.071a9.94394,9.94394,0,0,1,1.11-.943,16.10774,16.10774,0,0,1,.119-4.691,13.91977,13.91977,0,0,0-4.057,2.805l-7.071,7.071a14,14,0,0,0,19.799,19.799h0l7.071-7.071a13.98277,13.98277,0,0,0-7.036-23.591A7.96217,7.96217,0,0,0,22.99651,21.16115Zm5.144-17.061-7.071,7.071a13.98362,13.98362,0,0,0,7.033,23.591,7.99744,7.99744,0,0,0,.952-3.879,9.99584,9.99584,0,0,1-5.157-16.883l7.071-7.071a9.9999,9.9999,0,0,1,14.142,14.142l-7.071,7.071a10.08674,10.08674,0,0,1-1.106.941,16.10217,16.10217,0,0,1-.138,4.7,13.91054,13.91054,0,0,0,4.072-2.813l7.071-7.071a13.99966,13.99966,0,1,0-19.798-19.799Z"/> </symbol><symbol viewBox="0 0 14.83398 20.79102" id="icon-pin"><title>pin</title> <path d="M7.417,20.791l-.45947-.498C6.67383,19.98535,0,12.69434,0,7.417a7.417,7.417,0,0,1,14.834,0c0,5.27735-6.67382,12.56836-6.95752,12.876Zm0-19.541A6.1741,6.1741,0,0,0,1.25,7.417c0,4.03906,4.665,9.76856,6.167,11.50781,1.502-1.73925,6.167-7.46875,6.167-11.50781A6.1741,6.1741,0,0,0,7.417,1.25Zm-.001,9.05615A2.89117,2.89117,0,0,1,4.52783,7.41943V7.417A2.88892,2.88892,0,1,1,7.417,10.30615ZM5.77783,7.417A1.63875,1.63875,0,0,0,7.416,9.05615h.001A1.63916,1.63916,0,1,0,5.77783,7.417Z"/> </symbol><symbol viewBox="0 0 15 15" id="icon-plus"><title>plus</title> <path d="M12,8.5H8.5V12h-2V8.5H3v-2H6.5V3h2V6.5H12Z"/> </symbol><symbol viewBox="0 0 32 38" id="icon-right-arrow"><title>right-arrow</title> <g id="right-arrow-Group_77" data-name="Group 77" transform="translate(0.401 -0.045)"> <g id="right-arrow-Group_70" data-name="Group 70" transform="translate(-0.126 0.045)"> <rect id="right-arrow-Rectangle_66" data-name="Rectangle 66" width="38" height="32" transform="translate(-0.275 38) rotate(-90)" fill="#00adbb"/> </g> <g id="right-arrow-Group_69" data-name="Group 69" transform="translate(22.791 30.19) rotate(180)"> <line id="right-arrow-Line_3" data-name="Line 3" y1="12.285" x2="8.896" transform="translate(0)" fill="none" stroke="#fff" stroke-width="0.75"/> <line id="right-arrow-Line_4" data-name="Line 4" x2="8.896" y2="11.861" transform="translate(0 12.285)" fill="none" stroke="#fff" stroke-width="0.75"/> </g> </g> </symbol><symbol viewBox="0 0 17.1893 30.8455" id="icon-social-facebook"><title>social-facebook</title> <path d="M17.1893.2208l-.1624,5.5629s-.7106-.0289-3.2052,0c-2.4511.0291-2.48,1.8564-2.48,1.9435l-.0289,4.6266,5.7143.1015L16.2,18.3727H11.3416l-.1305,12.4728H5.3227L5.1632,18.4017,0,18.3727l.1451-6.0189H5.2212V8.0028a8.963,8.963,0,0,1,1.377-4.9693A6.4768,6.4768,0,0,1,10.19.5317,16.7346,16.7346,0,0,1,17.1893.2208Z"/> </symbol><symbol viewBox="0 0 100 100" id="icon-social-instagram"><title>social-instagram</title> <path d="M88.46262,42.30259H79.74331a30.7687,30.7687,0,1,1-59.51451,0H11.50949V84.61566A3.83648,3.83648,0,0,0,15.346,88.45215H84.61217a3.83649,3.83649,0,0,0,3.83649-3.83649h0Zm0-26.92173a3.8365,3.8365,0,0,0-3.8365-3.8365H73.07827a3.83649,3.83649,0,0,0-3.83649,3.8365V26.92173a3.83649,3.83649,0,0,0,3.83649,3.8365H84.61218a3.83649,3.83649,0,0,0,3.83649-3.8365ZM50,30.7687a19.22782,19.22782,0,1,0,.007,0H50M88.46262,100H11.53739A11.54087,11.54087,0,0,1,0,88.45912V11.53739A11.53739,11.53739,0,0,1,11.53739,0H88.46262A11.5339,11.5339,0,0,1,100,11.53042v76.9287A11.53739,11.53739,0,0,1,88.4661,100h-.0035"/> </symbol><symbol viewBox="0 0 30.083 30.0031" id="icon-social-linkedin"><title>social-linkedin</title> <path d="M30.0727,26.4118q-.0171-4.42-.0429-8.8379a13.4334,13.4334,0,0,0-.502-3.5671,5.9559,5.9559,0,0,0-3.3707-4.1649,8.9139,8.9139,0,0,0-5.7976-.4705,6.7611,6.7611,0,0,0-3.26,1.8365c.0007-.2373.0027-.4732.0087-.71a.9278.9278,0,0,0-.2232-.6823.8924.8924,0,0,0-.6769-.2373q-2.5285.0141-5.051.0013a.8568.8568,0,0,0-.6769.2265.9008.9008,0,0,0-.2312.6662q.0131,9.3158,0,18.6329a.9087.9087,0,0,0,.2319.67.8762.8762,0,0,0,.67.2279q2.6421-.0161,5.2836,0h.0174a.8841.8841,0,0,0,.6488-.2239.9118.9118,0,0,0,.2279-.6729q-.0171-4.4236-.0007-8.8473a18.9322,18.9322,0,0,1,.1314-2.13,3.2129,3.2129,0,0,1,.7782-1.87,2.8128,2.8128,0,0,1,2.2748-.7748,2.0888,2.0888,0,0,1,2.21,1.6676,8.71,8.71,0,0,1,.258,2.4947l.0007,9.417c0,.7064.2252.933.9256.933l5.16.0013a.8178.8178,0,0,0,1.0161-1.0107Z"/> <path d="M7.5376,19.8085l-.0007-2.2065q-.002-3.555.008-7.1087a.9225.9225,0,0,0-.2312-.69.8776.8776,0,0,0-.6783-.2265q-2.627.02-5.2494.0013a.94.94,0,0,0-.6883.2292.9256.9256,0,0,0-.2346.6837q.0141,9.2977,0,18.5981a.9335.9335,0,0,0,.2353.6863,1.03,1.03,0,0,0,.6843.2279q2.626-.02,5.25,0h.0194a.8931.8931,0,0,0,.6629-.2265.9186.9186,0,0,0,.2306-.6877q-.0161-3.5671-.0087-7.1382Z"/> <path d="M4.0262,0H3.9994A3.9848,3.9848,0,0,0,0,4.0148v.0013A4.0621,4.0621,0,0,0,1.2031,6.8848,3.9117,3.9117,0,0,0,3.97,8.0349l.0409-.0013A3.9574,3.9574,0,0,0,8.0363,4.0108,3.949,3.949,0,0,0,4.0262,0Z"/> </symbol><symbol viewBox="0 0 25.4127 25.4316" id="icon-social-rss"><title>social-rss</title> <path d="M0,8.6406V13.513a11.8,11.8,0,0,1,8.4023,3.4888,11.83,11.83,0,0,1,3.4837,8.423h4.8947A16.803,16.803,0,0,0,0,8.6406Z"/> <path d="M0,0V4.8758H.0018A20.56,20.56,0,0,1,20.5249,25.423h4.8878A25.45,25.45,0,0,0,0,0Z"/> <ellipse cx="3.386" cy="22.0577" rx="3.386" ry="3.3739"/> </symbol><symbol viewBox="0 0 29.9362 24.9598" id="icon-social-twitter"><title>social-twitter</title> <path d="M29.7907,3.0326a.624.624,0,0,0-.7488-.1248,5.94,5.94,0,0,1-.936.337A6.0526,6.0526,0,0,0,29.1668,1.248a.624.624,0,0,0-.9609-.6614,13.216,13.216,0,0,1-3.1574,1.248A6.3023,6.3023,0,0,0,20.5932,0a7.1259,7.1259,0,0,0-3.7439,1.1606c-2.3711,1.3353-2.783,4.4178-2.6083,6.3272a16.2236,16.2236,0,0,1-11.2317-5.94.6614.6614,0,0,0-.5117-.3.624.624,0,0,0-.4992.312A6.6766,6.6766,0,0,0,2.273,8.6734c-.1872-.1248-.3869-.2746-.5865-.4368a.624.624,0,0,0-1.0608.4992,7.1509,7.1509,0,0,0,3.12,5.7906l-.4867-.1373a.624.624,0,0,0-.7613.8361,8.0869,8.0869,0,0,0,5.229,4.5177A11.5063,11.5063,0,0,1,.7005,21.2155a.624.624,0,0,0-.3869,1.1606,18.9692,18.9692,0,0,0,9.6718,2.5833h0a16.66,16.66,0,0,0,12.48-5.7781A17.01,17.01,0,0,0,27.02,6.8015a12.2426,12.2426,0,0,0,2.8329-3.0575A.624.624,0,0,0,29.7907,3.0326Z"/> </symbol><symbol viewBox="0 0 32.3326 28.0174" id="icon-social-vimeo"><title>social-vimeo</title> <path id="social-vimeo-Vimeo" d="M27.5977.0063q-6.7416-.2255-9.1241,7.5683a6.2566,6.2566,0,0,1,2.3975-.5111c1.6384,0,2.3674.9169,2.172,2.7658a12.5711,12.5711,0,0,1-2.172,4.8777q-2.0292,3.2017-3.0439,3.2017c-.8718,0-1.6685-1.6535-2.3975-4.9453q-.3608-1.4543-1.3-7.4255C13.5433,1.8552,12.0026.1266,9.4923.3746q-1.59.1353-4.78,2.9011C3.1641,4.6811,1.5933,6.0941,0,7.4995L1.5182,9.4611a9.8129,9.8129,0,0,1,2.54-1.5257q1.6685,0,3.119,5.2384c.8643,3.2017,1.7436,6.4034,2.608,9.6051q1.95,5.2422,4.78,5.2385,4.5658,0,11.1608-8.5829,6.37-8.2184,6.5913-12.95Q32.5994.1491,27.5977.0063Z"/> </symbol><symbol viewBox="0 0 35.651 24.9598" id="icon-social-youtube"><title>social-youtube</title> <path d="M35.651,5.3326A5.3314,5.3314,0,0,0,30.3221,0H5.3289A5.3314,5.3314,0,0,0,0,5.3326V19.6259A5.3325,5.3325,0,0,0,5.3289,24.96H30.3221a5.3325,5.3325,0,0,0,5.3289-5.3338ZM14.26,18.5082V5.0826l10.1812,6.7128Z"/> </symbol></svg>