<svg xmlns="http://www.w3.org/2000/svg" width="13.99316" height="17.27344" viewBox="0 0 13.99316 17.27344">
  <path d="M12.99219.55907A8.57374,8.57374,0,0,1,7.58594.89989,25.80525,25.80525,0,0,0,.11963.13622L0,.14159V17.13378l1.083.13965V9.22362a18.85715,18.85715,0,0,1,6.22265.68213,9.10447,9.10447,0,0,0,2.4336.33057h.06445a10.19956,10.19956,0,0,0,4.11621-.92139l.07324-.0332V0ZM1.08008,8.13573V1.26855a18.94807,18.94807,0,0,1,6.22314.68212A9.56664,9.56664,0,0,0,9.793,2.28075c.00781-.00049.01758,0,.02637,0a9.37246,9.37246,0,0,0,3.08789-.522V8.55663a8.5316,8.5316,0,0,1-5.31934.30859l.00147-.00537A19.9084,19.9084,0,0,0,1.08008,8.13573Z" transform="translate(0 0.00001)"/>
</svg>
