<svg xmlns="http://www.w3.org/2000/svg" width="52.03916" height="52.04066" viewBox="0 0 52.03916 52.04066">
  <path d="M22.99651,21.16115a9.99495,9.99495,0,0,1,5.145,16.88l-7.071,7.071a9.9999,9.9999,0,0,1-14.142-14.142l7.071-7.071a9.94394,9.94394,0,0,1,1.11-.943,16.10774,16.10774,0,0,1,.119-4.691,13.91977,13.91977,0,0,0-4.057,2.805l-7.071,7.071a14,14,0,0,0,19.799,19.799h0l7.071-7.071a13.98277,13.98277,0,0,0-7.036-23.591A7.96217,7.96217,0,0,0,22.99651,21.16115Zm5.144-17.061-7.071,7.071a13.98362,13.98362,0,0,0,7.033,23.591,7.99744,7.99744,0,0,0,.952-3.879,9.99584,9.99584,0,0,1-5.157-16.883l7.071-7.071a9.9999,9.9999,0,0,1,14.142,14.142l-7.071,7.071a10.08674,10.08674,0,0,1-1.106.941,16.10217,16.10217,0,0,1-.138,4.7,13.91054,13.91054,0,0,0,4.072-2.813l7.071-7.071a13.99966,13.99966,0,1,0-19.798-19.799Z"/>
</svg>
