<svg xmlns="http://www.w3.org/2000/svg" viewBox="0 0 29.9362 24.9598">
  <path d="M29.7907,3.0326a.624.624,0,0,0-.7488-.1248,5.94,5.94,0,0,1-.936.337A6.0526,6.0526,0,0,0,29.1668,1.248a.624.624,0,0,0-.9609-.6614,13.216,13.216,0,0,1-3.1574,1.248A6.3023,6.3023,0,0,0,20.5932,0a7.1259,7.1259,0,0,0-3.7439,1.1606c-2.3711,1.3353-2.783,4.4178-2.6083,6.3272a16.2236,16.2236,0,0,1-11.2317-5.94.6614.6614,0,0,0-.5117-.3.624.624,0,0,0-.4992.312A6.6766,6.6766,0,0,0,2.273,8.6734c-.1872-.1248-.3869-.2746-.5865-.4368a.624.624,0,0,0-1.0608.4992,7.1509,7.1509,0,0,0,3.12,5.7906l-.4867-.1373a.624.624,0,0,0-.7613.8361,8.0869,8.0869,0,0,0,5.229,4.5177A11.5063,11.5063,0,0,1,.7005,21.2155a.624.624,0,0,0-.3869,1.1606,18.9692,18.9692,0,0,0,9.6718,2.5833h0a16.66,16.66,0,0,0,12.48-5.7781A17.01,17.01,0,0,0,27.02,6.8015a12.2426,12.2426,0,0,0,2.8329-3.0575A.624.624,0,0,0,29.7907,3.0326Z"/>
</svg>
