<svg xmlns="http://www.w3.org/2000/svg" viewBox="0 0 30.083 30.0031">
  <path d="M30.0727,26.4118q-.0171-4.42-.0429-8.8379a13.4334,13.4334,0,0,0-.502-3.5671,5.9559,5.9559,0,0,0-3.3707-4.1649,8.9139,8.9139,0,0,0-5.7976-.4705,6.7611,6.7611,0,0,0-3.26,1.8365c.0007-.2373.0027-.4732.0087-.71a.9278.9278,0,0,0-.2232-.6823.8924.8924,0,0,0-.6769-.2373q-2.5285.0141-5.051.0013a.8568.8568,0,0,0-.6769.2265.9008.9008,0,0,0-.2312.6662q.0131,9.3158,0,18.6329a.9087.9087,0,0,0,.2319.67.8762.8762,0,0,0,.67.2279q2.6421-.0161,5.2836,0h.0174a.8841.8841,0,0,0,.6488-.2239.9118.9118,0,0,0,.2279-.6729q-.0171-4.4236-.0007-8.8473a18.9322,18.9322,0,0,1,.1314-2.13,3.2129,3.2129,0,0,1,.7782-1.87,2.8128,2.8128,0,0,1,2.2748-.7748,2.0888,2.0888,0,0,1,2.21,1.6676,8.71,8.71,0,0,1,.258,2.4947l.0007,9.417c0,.7064.2252.933.9256.933l5.16.0013a.8178.8178,0,0,0,1.0161-1.0107Z"/>
  <path d="M7.5376,19.8085l-.0007-2.2065q-.002-3.555.008-7.1087a.9225.9225,0,0,0-.2312-.69.8776.8776,0,0,0-.6783-.2265q-2.627.02-5.2494.0013a.94.94,0,0,0-.6883.2292.9256.9256,0,0,0-.2346.6837q.0141,9.2977,0,18.5981a.9335.9335,0,0,0,.2353.6863,1.03,1.03,0,0,0,.6843.2279q2.626-.02,5.25,0h.0194a.8931.8931,0,0,0,.6629-.2265.9186.9186,0,0,0,.2306-.6877q-.0161-3.5671-.0087-7.1382Z"/>
  <path d="M4.0262,0H3.9994A3.9848,3.9848,0,0,0,0,4.0148v.0013A4.0621,4.0621,0,0,0,1.2031,6.8848,3.9117,3.9117,0,0,0,3.97,8.0349l.0409-.0013A3.9574,3.9574,0,0,0,8.0363,4.0108,3.949,3.949,0,0,0,4.0262,0Z"/>
</svg>
