<svg id="Layer_1" data-name="Layer 1" xmlns="http://www.w3.org/2000/svg" viewBox="0 0 26.2038 26.2038"><defs><style>.cls-1{fill:none;}</style></defs><title>cub_icon</title><path class="cls-1" d="M9.7329,2.9947A6.7381,6.7381,0,1,0,16.471,9.7328,6.71,6.71,0,0,0,9.7329,2.9947Z"/><path d="M18.717,16.471H17.5191l-.4491-.4492a9.3722,9.3722,0,0,0,2.3958-6.2889,9.7329,9.7329,0,1,0-9.7329,9.7329A9.3723,9.3723,0,0,0,16.0218,17.07l.4492.4492V18.717l7.4868,7.4869,2.246-2.2461Zm-8.9842,0A6.7381,6.7381,0,1,1,16.471,9.7328,6.71,6.71,0,0,1,9.7329,16.471Z"/></svg>