<?xml version="1.0" encoding="utf-8"?>
<!-- Generator: Adobe Illustrator 24.3.0, SVG Export Plug-In . SVG Version: 6.00 Build 0)  -->
<svg version="1.1" id="Layer_1" xmlns="http://www.w3.org/2000/svg" xmlns:xlink="http://www.w3.org/1999/xlink" x="0px" y="0px"
	 viewBox="0 0 1169.5 75.8" style="enable-background:new 0 0 1169.5 75.8;" xml:space="preserve">
<style type="text/css">
	.st0{fill:#808285;}
	.st1{fill:#22B259;}
	.st2{fill:#23B25A;}
	.st3{fill:#24B35B;}
	.st4{fill:#23B25B;}
	.st5{fill:#26B35D;}
	.st6{fill:#40BC70;}
	.st7{fill:#22B25A;}
	.st8{fill:#F0F9F3;}
</style>
<path class="st0" d="M11.8,14.5c-5.9,5.2-9.1,12.8-9,20.7c-0.1,8.2,3.3,16,9.4,21.5c7.5,6.8,17.4,10.3,27.6,9.8h41.3V55.8H39.8
	c-6.8,0.4-13.5-1.9-18.6-6.5c-3.9-3.6-6-8.8-5.7-14.2c0.2-5.1,2.5-10,6.4-13.3c5-4.2,11.4-6.4,17.9-6.1h41.3V5.2H39.8
	C29.6,4.6,19.6,7.9,11.8,14.5 M162,38.9c0.5,5.6-2.3,10.9-7.1,13.7c-5.8,2.5-12.1,3.6-18.5,3.2H132c-6.3,0.4-12.7-0.7-18.5-3.2
	c-4.8-2.8-7.6-8.2-7.1-13.7V5.2H93.7v33.7C93,47.4,97,55.7,104.1,60.5c8.6,4.6,18.3,6.7,28,6.1h4.4c9.7,0.6,19.3-1.5,27.9-6.1
	c7.2-4.8,11.2-13,10.5-21.6V5.2H162L162,38.9z M291.4,66.5h12.8V5.2h-12.8V66.5z M331.8,14.5c-5.9,5.2-9.1,12.8-9,20.7
	c-0.1,8.2,3.3,16,9.4,21.5c7.5,6.8,17.4,10.3,27.6,9.8h41.3V55.8h-41.3c-6.8,0.4-13.5-1.9-18.6-6.5c-3.9-3.6-6-8.8-5.7-14.2
	c0.2-5.1,2.5-10,6.4-13.3c5-4.2,11.4-6.4,17.9-6.1h41.3V5.2h-41.3C349.6,4.6,339.6,7.9,331.8,14.5 M275,23.3
	c-0.1-5.2-2.9-9.9-7.3-12.5c-6.5-4.1-14.2-6.1-21.9-5.7h-52.6v61.4h52.5c7.7,0.4,15.4-1.5,21.9-5.5c4.4-2.5,7.2-7.1,7.3-12.2
	c-0.2-5.3-3.1-10.1-7.8-12.5C271.9,33.5,274.8,28.7,275,23.3 M258.9,53.5c-3.5,1.6-7.4,2.4-11.2,2.2h-41.8V41.5h41.8
	c3.8-0.2,7.7,0.6,11.1,2.3c2.5,1.3,3.8,2.9,3.8,4.9C262.4,50.9,261,52.8,258.9,53.5 M258.8,28.5c-3.4,1.8-7.3,2.6-11.1,2.4h-41.8
	V15.7h41.8c3.9-0.2,7.7,0.6,11.2,2.3c2.1,0.9,3.5,2.9,3.7,5.2C262.4,25.6,261,27.6,258.8,28.5 M402.7,57.4h2.5v8.8h1.2v-8.8h2.5
	v-1.1h-6.2V57.4z M415.8,56.3l-2,7.9h0l-2-7.9h-2.1v9.9h1.2v-8.7h0l2.2,8.7h1.2l2.2-8.7h0v8.7h1.2v-9.9L415.8,56.3z"/>
<g>
	<path class="st1" d="M908.2,45.9c9.9-10,10-28.3,28.1-23.8c11.6,2.9,3.6,14.8,9.2,23.4c7.2-12.7,10.7-31.4,33.2-21.9
		c-7.2,12.6-13.8,26-22.1,38.3c-4.8,7.2-13.8,2.7-20.9,3.1c-6.5,0.4-4.5-5.9-5.5-9.6c-0.9-3.3-1.4-6.7-2.5-12.4
		c-3.8,6.3-6.9,10.9-9.4,15.7c-2.4,4.5-5.4,6.6-11,6.6c-16.8,0.1-16.8,0.4-18.7-16.4c-0.5-4.6-0.9-9.2-1.6-13.7
		c-2.2-14-0.5-15.5,14.5-13.7c4.9,0.6,5.7,2.9,5.8,6.7C907.4,33.6,907.8,38.8,908.2,45.9z"/>
	<path class="st1" d="M881.9,46.9c-3.2,9.3-9,14.3-17.2,17.3C856,67.3,847,67,838,66.4c-8.5-0.6-17.3-2.2-20.2-11.2
		c-3.2-9.8-0.5-19,7.2-26.3c10.2-9.6,39.7-12.5,51.4-5.2c5,3.1,9.9,9.6,6.3,13c-4.9,4.7-14.2,4.6-20.1-0.2c-4.9-4-9.3-5-15-3.4
		c-5.5,1.6-8.5,5.3-9.2,10.8c-0.5,3.7,0.2,6.8,4,8.8c4.7,2.4,10.1,2.4,13.4-0.8C863.5,44.1,872.3,47.6,881.9,46.9z"/>
	<path class="st1" d="M602.4,22.2c-22.1,0.6-22.1,0.6-26.8,21.7c-0.7,3-1.4,6-2,9c-2.6,11.8-9.7,15.6-21.7,12.3
		c-5.1-1.4-3.1-4.3-2.5-7.1c1.9-9,3.3-18.2,5.9-27c2.2-7.4,0.2-9.2-7.4-9c-3.5,0.1-11.1,4.6-11-4.5c0.1-7.7,4.4-10,12.2-9.5
		c12.9,0.7,25.9,0.2,38.9,0.2c15.4,0,15.4,0,14.2,14.2L602.4,22.2z"/>
	<path class="st2" d="M784,19.8c1.9,4.2,9.4-1,8.5,5.7c-0.5,4.4-0.9,9.6-8.1,8.5c-4.3-0.7-5.1,2.5-5.8,5.7
		c-1.1,4.9-3.1,9.7-3.2,14.6c-0.1,12.5-8.6,11.3-17,11c-4.3-0.1-5.6-1.8-4.7-5.7c1.3-5.6,2.9-11.2,3.7-16.9c0.5-3.4,3.6-7-3.7-9.6
		c-5.4-1.9-1.7-8.3,2.5-11.2c1.6-1.1,5.3,0.1,5.9-2.6c3.3-14.7,14.9-13.7,26-13.4c2.8,0.1,7.9-2.2,7.7,3.8c-0.1,4.2-1.4,7.6-6.9,7.3
		C787.3,17,785.2,17.1,784,19.8z"/>
	<path class="st2" d="M739.6,19.3c1.8,4.9,9.9-0.7,9.1,6.7c-0.6,5.2-2.3,8.7-8.7,8c-4.4-0.5-4.6,3.2-5.3,6.2c-1.3,6-2.9,11.9-3.9,18
		c-0.8,4.8-2.6,7.1-8.3,7.2c-13.5,0.3-13.8,0.3-11.1-12.7c0.9-4.5,1.9-9,3.1-13.4c0.8-3.1,0.5-4.4-3.2-5.6c-9.4-3-2.9-10.9-0.6-11.1
		c7.5-0.5,8.1-5.5,10.5-10.2c3-5.6,23.8-9.5,29.5-6.2c2.4,1.4,1.6,3.1,1.1,4.8c-0.6,2.5-0.5,5.6-4.3,5.9
		C744.9,17.2,742,16.6,739.6,19.3z"/>
	<path class="st3" d="M1087.2,35.8c-2.1,0.9-3.8,2.2-6.5,1.9c-12.4-1.4-19,4.4-21.1,16.4c-0.7,4.2,1,10.4-6.9,11.5
		c-13.5,1.9-15.6,0.1-12.9-13c1.3-6.4,2.8-12.8,4.2-19.2c2.4-10.9,8.8-15.5,18.5-10.9c5,2.3,7.6,3.4,12.3,0.5
		c3.5-2.2,8.5-4.2,12.3-1.9c4.5,2.7-0.5,6.9-0.2,10.5c0.1,1.5,0,3.1,0,4.6C1087,36,1087.2,35.8,1087.2,35.8z"/>
	<path class="st4" d="M602.2,22.4c6.7,0.2,13.5-4.2,20,2.7c3.1,3.3,6.8-3.5,11-3.6c4.6-0.1,12.1-6.6,11.4,5c-1.5,3,0.7,6.8-2.3,9.5
		c-1.4,0.4-2.9,1.3-4.3,1.2c-15.6-0.2-18.7,2.2-22.2,17.2c-2.2,9.4-10.6,13.6-19.7,10.1c-4.3-1.7-2-4.3-1.6-6.5
		c2.5-12,5.2-23.9,7.9-35.9C602.4,22.2,602.2,22.4,602.2,22.4z"/>
	<path class="st5" d="M799.1,65.1c-9.1,1.8-11-1.4-8.5-9.8c2.7-8.7,4-17.8,5.8-26.8c0.8-4.2,2.3-6.5,7.5-6.9c14-1,14.6-0.5,11.6,13
		c-1.6,7.1-3.6,14.1-4.3,21.2C810.3,63.6,807,67,799.1,65.1z"/>
	<path class="st6" d="M799.4,16.8c8.9-4.3,14.8-7.2,20.9-10.1C820,18.3,820,18.3,799.4,16.8z"/>
	<path class="st7" d="M1162.7,59.2c2.4,0.7,4.2,1.9,2.9,4.7c-1.2,2.5-3.3,2.5-5.7,1.8C1156.5,61,1156.8,60.3,1162.7,59.2z"/>
	<path class="st1" d="M510.4,5.8c-15.3,0.1-30.7,0-46,0c-7.2,0-12,3.1-13.6,10.2c-2.9,13.1-5.9,26.2-8.7,39.4
		c-1.5,7.1,1.4,11.2,9.2,11.2c7.9,0,15.7,0,23.6,0c7.9,0,15.7,0,23.6,0c6.8,0.1,11.6-3.2,13.1-9.5c3.2-13.5,5.9-27,8.6-40.6
		C521.4,9.4,518,5.8,510.4,5.8z M510,19.1c-0.4,3.1-0.9,7.3-4.9,6.6c-17.4-3.1-14.4,10.4-16.8,19.3c-2.1,7.8-2.5,16.2-14.9,13.8
		c-5-1-5.7-2.3-4.3-6.6c1.3-4,2.1-8.2,2.7-12.4c1.1-7.1,6.6-17-9.1-14c-2.8,0.5-4-1.7-3.1-4.5c0.9-2.8,0.4-6.4,5.1-6.3
		c7.1,0.1,14.1,0,21.2,0c5.9,0,11.8-0.1,17.7,0C506.5,15.1,510.6,13.9,510,19.1z"/>
	<path class="st7" d="M698.1,22.4c-11.9-6-40.5-2.4-51.2,6.6c-4.5,4.1-2.7,5.6,2.4,5.9c9.1,0.5,18.1-0.2,29.7-2.3
		c-6.4,4-11.9,1.9-15.4,5.5c-6.2,0.5-12.6,0.5-18.3,3.5c-6.5,3.4-10.1,8.9-8.8,16c1.3,6.8,7.2,8.4,13.5,8.9c2,0.1,3.9,0.4,5.9,0.2
		c12.3-1.2,24.5-3.8,37-1.5c3.1,0.6,5.9,0.3,6.5-4.3c1.1-8.3,3.3-16.5,4.7-24.8C705.1,30.4,704,25.5,698.1,22.4z M674.7,54.8
		c-4.4,1.8-9,3-13.6,0.6c-2-1-2.8-2.8-1.8-4.8c2.5-4.8,7.5-3.4,11.5-4c3.4-0.5,6.8-2.1,10.3-0.4C681.4,50.8,678.5,53.2,674.7,54.8z"
		/>
	<path class="st1" d="M1033.2,22.9c-13.9-8.1-44.9-2.3-54.8,10.3c10.4,4.7,21.2,0.2,33.6,0.6c-5.3,2.6-9.7,1.2-12.7,4.3
		c-6.6,0.7-13.4,0.4-19.5,3.5c-6.7,3.4-10,8.8-8.8,16c1.2,7.1,7.3,8.3,13.3,8.9c3.1,0.3,6.4,0.7,9.4,0.1c10.8-2,21.5-2.5,32.4-1.3
		c2.9,0.3,6.4,1,7.3-3.6c1.8-9.4,4.1-18.8,5.6-28.2C1039.8,28.9,1037.3,25.2,1033.2,22.9z M1008.1,55c-4.5,1.5-9,2.9-13.4-0.2
		c-1.4-1-2-2.4-1.2-4c2.4-4.8,7.3-3.5,11.4-4.1c3.4-0.5,6.8-2,10.9-0.3C1015,51.6,1012,53.8,1008.1,55z"/>
	<path class="st7" d="M1087,36c0.1-0.1,0.1-0.1,0.2-0.2c0,0,0,0,0,0L1087,36z"/>
	<path class="st8" d="M1108.3,48.2c6.2,0,12.5,0,18.7,0"/>
	<path class="st7" d="M1134,20.9c-18.1-3.2-34.9-0.9-46.9,14.9c-2.8,10.2-5.7,20.5,6.4,27.3c15.5,8.6,43,3.3,54.6-10.3
		c-9.2-0.6-18.4-1.8-27.3,2.3c-4.9,2.2-10,1.3-14-2.4c-1.7-1.6-2.6-4.1,1.4-4.5c6.2,1.1,12.5,1.1,18.7,0c7.1-0.1,14.3-0.1,21.4-0.2
		C1153.8,33.4,1148.9,23.5,1134,20.9z M1121.1,38.1c-4,0.6-8.2,0.1-12.9,0.1c1.9-7,6.9-7.5,11.3-8c4.6-0.5,11.2,0,11.2,5.4
		C1130.7,40.9,1124.5,37.6,1121.1,38.1z"/>
</g>
</svg>
