<svg class="logo logo-svg logo-type" xmlns="http://www.w3.org/2000/svg" width="344.80273" height="50.31201" viewBox="0 0 344.80273 50.31201">
  <path d="M30.24475.06842H64.08594V8.80566H30.24475q-9.02032,0-14.62073,4.96112A15.11737,15.11737,0,0,0,10.36108,24.6651a14.69588,14.69588,0,0,0,4.6792,11.6026q5.50947,5.30758,15.20447,5.30969H64.08594V50.312H30.24475q-14.037,0-22.5603-8.03741A23.48162,23.48162,0,0,1,0,24.6651,22.04452,22.04452,0,0,1,7.35107,7.75818Q15.70508.06573,30.24475.06842ZM135.37,27.67529q0,7.96455-5.84693,11.24768-4.84222,2.64918-15.12292,2.65442h-3.59424q-10.27185,0-15.12122-2.65442-5.84784-3.28317-5.84912-11.24768V.06842h-10.442V27.67529q0,12.16068,8.521,17.6756,7.68824,4.96023,22.89136,4.96112h3.59424q15.20727,0,22.81006-4.96112,8.6054-5.52072,8.60766-17.6756V.06842H135.37Zm86.10864-2.2398q6.3532,4.12518,6.35,10.26818,0,5.87338-6.021,9.99573-6.59473,4.54065-17.96,4.54376H160.81848V0h43.02918q11.36571,0,17.96,4.68109,6.02051,4.19614,6.021,10.27307Q227.82861,21.174,221.47864,25.43549Zm-3.76355,10.26818q0-2.36993-3.09143-3.97979-3.34077-1.89148-9.1073-1.88941h-34.251V41.50409h34.251a19.71645,19.71645,0,0,0,9.1958-1.81067C216.71411,38.61829,217.71509,37.2937,217.71509,35.70367Zm0-20.81829q0-2.521-3.00293-4.26191a19.06063,19.06063,0,0,0-9.1958-1.88885h-34.251v12.3681h34.251q5.77148,0,9.1073-1.9555Q217.715,17.3991,217.71509,14.88538ZM241.27869,50.312h10.4469V.06842h-10.4469Zm33.088-42.55383a22.0439,22.0439,0,0,0-7.35547,16.9043,23.48445,23.48445,0,0,0,7.69434,17.61212q8.5155,8.04354,22.55261,8.03741h33.84436V41.57739H297.25818q-9.68572,0-15.20154-5.30969a14.696,14.696,0,0,1-4.6814-11.60522,15.14775,15.14775,0,0,1,5.2605-10.8957q5.6078-4.9615,14.62244-4.96112h33.84436V.06842H297.25818Q282.72858.06842,274.3667,7.75818Zm58.06494,35.06061h2.03662v7.22332h1.0011V42.81879h2.04578v-.883h-5.0835Zm10.69263-.883-1.624,6.4278h-.0249l-1.624-6.4278H338.173v8.10632h.99109V42.95117h.02954L340.99,50.04211h.99561l1.791-7.09094h.02515v7.09094h1.001V41.93579Z" fill="#00548b"/>
</svg>
