<?xml version="1.0" encoding="utf-8"?>
<!-- Generator: Adobe Illustrator 24.3.0, SVG Export Plug-In . SVG Version: 6.00 Build 0)  -->
<svg version="1.1" id="Layer_1" xmlns="http://www.w3.org/2000/svg" xmlns:xlink="http://www.w3.org/1999/xlink" x="0px" y="0px"
	 viewBox="0 0 1159.2 86.32" style="enable-background:new 0 0 1159.2 86.32;" xml:space="preserve">
<style type="text/css">
	.st0{fill:#22B25A;}
	.st1{fill:#F0F9F3;}
	.st2{fill:#FFFFFF;}
</style>
<g>
	<path class="st0" d="M1151.18,66.2c2.38,0.72,4.16,1.89,2.9,4.67c-1.15,2.54-3.32,2.54-5.66,1.79
		C1144.98,68.02,1145.28,67.31,1151.18,66.2z"/>
	<path class="st0" d="M1075.33,43.01c0.06-0.08,0.12-0.13,0.18-0.21v-0.01L1075.33,43.01z"/>
	<path class="st1" d="M1096.85,55.16c6.23-0.01,12.46-0.01,18.69-0.02"/>
	<g>
		<path class="st0" d="M934.03,52.53c-5.59-8.65,2.4-20.52-9.15-23.43c-18.11-4.57-18.26,13.72-28.13,23.76
			c-0.42-7.08-0.84-12.28-1-17.49c-0.12-3.85-0.93-6.14-5.8-6.73c-14.93-1.8-16.67-0.35-14.46,13.69c0.72,4.55,1.05,9.15,1.57,13.73
			c1.91,16.81,1.91,16.5,18.71,16.37c5.64-0.04,8.62-2.09,11.01-6.62c2.57-4.87,5.66-9.48,9.45-15.73
			c1.12,5.65,1.62,9.06,2.51,12.38c0.99,3.69-0.98,9.95,5.53,9.59c7.04-0.39,16.05,4.1,20.86-3.09
			c8.27-12.36,14.97-25.74,22.12-38.34C944.71,21.08,941.2,39.87,934.03,52.53z"/>
		<path class="st0" d="M864.93,30.65c-11.8-7.29-41.27-4.32-51.45,5.23c-7.76,7.28-10.46,16.54-7.24,26.3
			c2.96,8.95,11.76,10.63,20.22,11.18c9.01,0.59,18.06,0.92,26.83-2.22c8.17-2.92,13.91-7.94,17.15-17.25
			c-9.68,0.67-18.48-2.76-26.13,4.93c-3.23,3.24-8.66,3.22-13.35,0.83c-3.79-1.93-4.46-5.1-4-8.77c0.7-5.51,3.75-9.15,9.23-10.77
			c5.66-1.68,10.02-0.68,14.96,3.36c5.9,4.82,15.14,4.88,20.07,0.22C874.85,40.26,869.96,33.75,864.93,30.65z"/>
		<path class="st0" d="M590.72,29.37l0.21-0.19c-0.07,0-0.13,0-0.19,0.01C590.73,29.25,590.73,29.31,590.72,29.37z"/>
		<path class="st0" d="M576.53,15.16c-12.96,0-25.95,0.53-38.87-0.19c-7.82-0.43-12.1,1.88-12.18,9.53
			c-0.11,9.14,7.44,4.64,10.98,4.55c7.63-0.18,9.56,1.67,7.4,9.03c-2.58,8.82-3.98,17.97-5.91,26.98c-0.61,2.83-2.62,5.69,2.47,7.09
			c12.07,3.32,19.15-0.5,21.74-12.32c0.66-2.99,1.35-5.98,2.01-8.98c4.66-21.04,4.67-21.1,26.57-21.66
			C591.94,15.17,591.87,15.16,576.53,15.16z"/>
		<path class="st0" d="M781.06,32.51c0.83-6.71-6.64-1.57-8.52-5.73c1.17-2.72,3.27-2.77,5.1-2.66c5.46,0.31,6.79-3.11,6.89-7.29
			c0.14-6.05-4.91-3.74-7.74-3.83c-11.11-0.35-22.74-1.29-26.01,13.37c-0.62,2.77-4.24,1.52-5.87,2.63
			c-4.23,2.89-7.94,9.27-2.52,11.17c7.3,2.56,4.17,6.19,3.68,9.58c-0.83,5.68-2.42,11.27-3.74,16.88c-0.91,3.89,0.38,5.57,4.69,5.7
			c8.46,0.25,16.89,1.44,17.03-11.03c0.06-4.88,2.09-9.74,3.17-14.62c0.69-3.12,1.42-6.36,5.76-5.67
			C780.17,42.15,780.52,36.89,781.06,32.51z"/>
		<path class="st0" d="M736.01,24c3.82-0.29,3.71-3.36,4.34-5.86c0.44-1.75,1.29-3.45-1.12-4.85c-5.7-3.29-26.49,0.57-29.46,6.21
			c-2.45,4.65-3.04,9.62-10.53,10.17c-2.32,0.17-8.84,8.06,0.56,11.06c3.73,1.19,4.06,2.51,3.22,5.6c-1.2,4.43-2.15,8.93-3.1,13.42
			c-2.74,13.01-2.37,13.04,11.1,12.69c5.66-0.14,7.47-2.43,8.3-7.24c1.04-6.03,2.57-11.97,3.9-17.95c0.66-2.95,0.85-6.64,5.26-6.18
			c6.38,0.66,8.16-2.79,8.72-8.03c0.8-7.39-7.36-1.82-9.11-6.73C730.47,23.61,733.36,24.21,736.01,24z"/>
		<path class="st0" d="M1075.67,42.79c-0.06,0.03-0.12,0.06-0.19,0.08c0,0.05,0,0.09,0,0.14L1075.67,42.79z"/>
		<path class="st0" d="M1075.47,38.44c-0.34-3.6,4.69-7.79,0.2-10.5c-3.8-2.29-8.85-0.22-12.34,1.94
			c-4.74,2.93-7.37,1.85-12.32-0.48c-9.73-4.57-16.11,0.07-18.5,10.94c-1.41,6.39-2.88,12.77-4.22,19.17
			c-2.75,13.12-0.66,14.9,12.87,13.05c7.9-1.09,6.21-7.33,6.94-11.49c2.1-12.03,8.64-17.81,21.07-16.43
			c2.66,0.3,4.32-0.89,6.31-1.77C1075.5,41.4,1075.62,39.91,1075.47,38.44z"/>
		<path class="st0" d="M626.5,44.27c1.43,0.02,2.88-0.8,4.32-1.23c2.94-2.68,0.76-6.53,2.27-9.53c0.69-11.54-6.84-5.03-11.42-4.96
			c-4.19,0.07-7.87,6.93-10.99,3.58c-6.4-6.88-13.15-2.67-19.79-2.75c-2.62,11.89-5.29,23.78-7.82,35.69
			c-0.48,2.27-2.76,4.86,1.56,6.52c9.04,3.48,17.46-0.68,19.66-10.12C607.79,46.42,610.94,44.03,626.5,44.27z"/>
		<path class="st0" d="M590.73,29.38c0.05,0,0.1,0,0.16,0c0.01-0.07,0.03-0.13,0.04-0.2L590.73,29.38z"/>
		<path class="st0" d="M792.38,28.63c-5.11,0.36-6.63,2.69-7.45,6.86c-1.77,8.98-3.13,18.1-5.8,26.83
			c-2.56,8.37-0.61,11.62,8.47,9.77c7.91,1.89,11.24-1.46,12.04-9.24c0.75-7.15,2.78-14.18,4.35-21.24
			C807,28.13,806.33,27.65,792.38,28.63z"/>
		<path class="st0" d="M808.77,13.69c-6.09,2.95-11.94,5.77-20.88,10.1C808.55,25.33,808.55,25.33,808.77,13.69z"/>
		<path class="st0" d="M498.86,12.83c-15.35,0.11-30.69,0.04-46.03,0.04c-7.21,0-12.01,3.06-13.6,10.18
			c-2.94,13.13-5.94,26.24-8.71,39.4c-1.5,7.11,1.44,11.19,9.19,11.24c7.87,0.05,15.74,0.01,23.61,0.01s15.74-0.04,23.61,0.02
			c6.83,0.05,11.56-3.2,13.06-9.46c3.21-13.46,5.94-27.04,8.56-40.63C509.93,16.39,506.55,12.77,498.86,12.83z M498.52,26.08
			c-0.35,3.08-0.89,7.29-4.86,6.59c-17.43-3.08-14.44,10.41-16.78,19.33c-2.06,7.84-2.5,16.22-14.94,13.76
			c-5.03-0.99-5.73-2.27-4.33-6.58c1.3-4,2.05-8.21,2.72-12.37c1.14-7.12,6.64-17.01-9.06-14.03c-2.84,0.54-4.01-1.67-3.11-4.54
			c0.87-2.79,0.43-6.38,5.14-6.29c7.07,0.12,14.15,0.03,21.22,0.02c5.9-0.01,11.8-0.12,17.69,0.03
			C495.03,22.07,499.12,20.86,498.52,26.08z"/>
		<path class="st0" d="M686.55,29.44c-11.89-6.01-40.53-2.42-51.19,6.6c-4.46,4.06-2.7,5.6,2.45,5.87
			c9.09,0.48,18.14-0.18,29.72-2.33c-6.43,3.97-11.87,1.91-15.41,5.52c-6.24,0.5-12.63,0.5-18.33,3.46
			c-6.52,3.38-10.13,8.88-8.78,16.03c1.28,6.79,7.24,8.42,13.47,8.87c1.95,0.14,3.94,0.37,5.88,0.18
			c12.32-1.19,24.54-3.8,37.05-1.47c3.08,0.57,5.9,0.32,6.51-4.31c1.11-8.33,3.35-16.51,4.73-24.82
			C693.58,37.44,692.5,32.44,686.55,29.44z M663.16,61.77c-4.42,1.76-8.96,3.01-13.58,0.64c-1.97-1.01-2.77-2.83-1.75-4.79
			c2.47-4.77,7.46-3.38,11.5-4.02c3.37-0.53,6.8-2.07,10.34-0.37C669.86,57.83,667.02,60.23,663.16,61.77z"/>
		<path class="st0" d="M1021.75,29.86c-13.87-8.11-44.88-2.31-54.83,10.25c10.38,4.68,21.16,0.23,33.55,0.56
			c-5.25,2.56-9.74,1.2-12.67,4.33c-6.59,0.72-13.39,0.41-19.53,3.5c-6.69,3.37-9.95,8.83-8.75,16.05
			c1.18,7.13,7.27,8.33,13.35,8.88c3.12,0.28,6.38,0.66,9.4,0.09c10.75-2,21.5-2.51,32.38-1.35c2.91,0.31,6.4,0.98,7.26-3.61
			c1.77-9.42,4.09-18.75,5.63-28.21C1028.28,35.88,1025.83,32.24,1021.75,29.86z M996.6,62.03c-4.49,1.46-9.01,2.89-13.4-0.23
			c-1.36-0.97-1.98-2.41-1.19-3.98c2.43-4.84,7.34-3.51,11.38-4.1c3.4-0.49,6.81-1.96,10.89-0.34
			C1003.48,58.57,1000.52,60.76,996.6,62.03z"/>
		<path class="st0" d="M1096.84,55.17c6.23,1.12,12.46,1.15,18.69-0.02c7.13-0.07,14.26-0.13,21.4-0.2
			c5.35-14.56,0.5-24.46-14.38-27.07c-18.13-3.18-34.9-0.87-46.89,14.93c-2.85,10.21-5.72,20.54,6.41,27.26
			c15.47,8.58,42.98,3.31,54.61-10.25c-9.2-0.58-18.36-1.79-27.28,2.26c-4.89,2.22-10.01,1.27-13.99-2.41
			C1093.68,58.07,1092.86,55.6,1096.84,55.17z M1108.01,37.22c4.64-0.49,11.18,0.01,11.18,5.39c0.01,5.31-6.21,1.97-9.58,2.45
			c-4,0.57-8.16,0.14-12.91,0.14C1098.62,38.22,1103.65,37.68,1108.01,37.22z"/>
	</g>
</g>
<g>
	<path class="st2" d="M177.16,14.51h-12.24c0.79,0,0.79,31.98,0.79,31.98c0.39,5.13-2.37,10.26-6.71,13.03
		c-5.53,2.37-11.45,3.55-17.77,3.16h-4.34c-5.92,0.39-11.84-0.79-17.77-3.16c-4.74-2.76-7.11-7.9-6.71-13.03V14.51h-12.24v31.98
		c-0.79,8.29,3.16,15.79,9.87,20.53c5.92,3.95,15,5.92,26.45,5.92h4.34c11.84,0,20.53-1.97,26.45-5.92
		c6.71-4.34,10.66-12.24,9.87-20.53V14.51H177.16z"/>
	<path class="st2" d="M265.99,44.52c3.95-2.76,6.71-7.5,7.11-12.63c0-4.74-2.76-9.48-7.11-11.84c-6.32-3.95-13.42-5.92-20.92-5.53
		h-49.75v58.43h50.14c7.5,0.39,14.61-1.58,20.92-5.13c4.34-2.37,6.71-6.71,7.11-11.45C273.49,51.23,270.73,46.89,265.99,44.52z
		 M257.7,60.7c-3.16,1.58-7.11,2.37-10.66,1.97h-39.88V49.25h39.88c3.55,0,7.11,0.39,10.66,2.37c2.37,1.18,3.55,2.76,3.55,4.74
		C261.25,57.94,259.67,59.91,257.7,60.7z M257.7,36.62c-3.16,1.58-7.11,2.37-10.66,2.37h-39.88V24.78h39.88
		c3.55,0,7.5,0.39,10.66,2.37c1.97,0.79,3.16,2.76,3.55,5.13C261.25,33.86,259.67,35.83,257.7,36.62z"/>
	<path class="st2" d="M31.48,56.76c-3.55-3.55-5.53-8.69-5.53-13.42s2.37-9.48,5.92-12.63c4.74-3.95,10.66-5.92,16.98-5.92h39.48
		V14.51H48.85c-9.48-0.39-18.95,2.76-26.06,9.08c-5.53,4.74-8.69,12.24-8.69,19.74c0,7.9,3.16,15.4,9.08,20.53
		c7.11,6.32,16.58,9.87,26.06,9.48h39.48V63.07H49.24C42.92,63.47,36.21,61.1,31.48,56.76z"/>
	<path class="st2" d="M404.96,70.57l-1.97-7.5h-1.97v9.48h1.18v-8.29l1.97,8.29h1.18l1.97-8.29v8.29h1.18v-9.48
		c-0.24,0-1.58,0-1.58,0L404.96,70.57z"/>
	<rect x="288.49" y="14.51" class="st2" width="12.24" height="58.43"/>
	<polygon class="st2" points="394.7,64.26 397.07,64.26 397.07,72.55 398.25,72.55 398.25,64.26 400.62,64.26 400.62,63.07 
		394.7,63.07 	"/>
	<path class="st2" d="M327.19,23.59c-5.53,5.13-8.69,12.24-8.69,19.74c0,7.9,3.16,15.4,9.08,20.53c7.11,6.32,16.58,9.87,26.06,9.48
		h39.48V63.07h-39.48c-6.32,0.39-13.03-1.97-17.77-6.32c-3.55-3.55-5.53-8.29-5.53-13.42c0-4.74,2.37-9.48,6.32-12.63
		c4.74-3.95,10.66-5.92,16.98-5.92h39.48V14.51h-39.48C344.16,14.12,334.29,17.27,327.19,23.59z"/>
</g>
</svg>
