<svg xmlns="http://www.w3.org/2000/svg" width="100" height="130.4885" viewBox="0 0 100 130.4885">
    <path d="M2.1639,117.9639A6.4893,6.4893,0,0,0,0,122.9411a6.91,6.91,0,0,0,2.2622,5.1825,9.2838,9.2838,0,0,0,6.64,2.3649h9.96v-2.571h-9.96a6.1826,6.1826,0,0,1-4.4754-1.5628A4.3233,4.3233,0,0,1,3.05,122.9411a4.452,4.452,0,0,1,1.549-3.2083,6.2455,6.2455,0,0,1,4.3036-1.46h9.96v-2.571h-9.96a9.5741,9.5741,0,0,0-6.7384,2.2622m36.1981,5.8612a3.48,3.48,0,0,1-1.7214,3.311,9.6379,9.6379,0,0,1-4.4511.7814H31.132a9.6421,9.6421,0,0,1-4.451-.7814,3.481,3.481,0,0,1-1.7206-3.311v-8.1235H21.8865v8.1235a5.74,5.74,0,0,0,2.5081,5.2032q2.2613,1.4606,6.7374,1.46h1.0574q4.4761,0,6.7142-1.46a5.7239,5.7239,0,0,0,2.5321-5.2032v-8.1235H38.362Zm31.17,6.6633h3.0738V115.7017H69.532Zm9.738-12.5246a6.49,6.49,0,0,0-2.1639,4.9772,6.9113,6.9113,0,0,0,2.2623,5.1825,9.2838,9.2838,0,0,0,6.64,2.3649h9.96v-2.571h-9.96a6.1846,6.1846,0,0,1-4.4761-1.5628,4.3286,4.3286,0,0,1-1.3774-3.4136,4.4537,4.4537,0,0,1,1.55-3.2083,6.2457,6.2457,0,0,1,4.3036-1.46h9.96v-2.571h-9.96a9.57,9.57,0,0,0-6.7384,2.2622m-13.6966,2.1182a3.6086,3.6086,0,0,0-1.7706-3.0229,8.99,8.99,0,0,0-5.2878-1.3782H45.8507v14.7868H58.515a9.1939,9.1939,0,0,0,5.2878-1.3368,3.3539,3.3539,0,0,0-.0983-5.9639,3.655,3.655,0,0,0,1.8689-3.085m-3.8613,7.28a5.7876,5.7876,0,0,1-2.7046.5347H48.9245v-3.4343h10.083a5.4711,5.4711,0,0,1,2.6805.5554q.9095.4735.91,1.1721a1.37,1.37,0,0,1-.8857,1.1721m-.0241-6.0458a5.3077,5.3077,0,0,1-2.6805.5753H48.9245v-3.64h10.083a5.6049,5.6049,0,0,1,2.7046.5554,1.3254,1.3254,0,0,1-.0241,2.5089M96.36,128.2832h.5985v2.1251h.294v-2.1251h.602v-.2613H96.36Zm3.1454-.2613-.4778,1.8922h-.0069l-.4778-1.8922h-.4951v2.3864h.2942v-2.0854h.0068l.5279,2.0854h.294l.5287-2.0854h.006v2.0854H100v-2.3864ZM92.3,24.198Q71.137,12.0954,49.9956,0,28.8322,12.3044,7.7089,24.58v.5743q0,23.6165.0038,47.2367a1.8014,1.8014,0,0,0,.0472.8c.12.2072.425.3162.6613.4543Q28.93,85.807,49.4394,97.966c.0983.0581.2.109.2873.16.0725-.04.1162-.0654.1635-.0909q21.027-12.3916,42.0612-24.7723a.6367.6367,0,0,0,.3563-.6433q-.011-23.9927-.0073-47.9781Zm-42.3013-3.1a.7866.7866,0,0,1,.28.0182,2.4589,2.4589,0,0,1,.36.2217c.0508-.0763.08-.1744.1453-.2108a4.4112,4.4112,0,0,1,.6542-.2944,1.8161,1.8161,0,0,1,1.0213.4289.3665.3665,0,0,1-.0617.5125c-.0619.0654-.1526.12-.1781.2-.1054.3053-.3234.2762-.567.2326-.2289-.04-.4579-.0545-.7269-.0872-.069-.2653-.069-.2653-.5051-.378.0255-.0763.0508-.1526.0872-.2617h-.5124c-.2362-.1345.0654-.2508.0035-.3816m-2.5985-1.5046h1.163c-.0836.3017-.0182.6287-.3926.8032-.28.1309-.52.3307-.8722.1236.2944.2108.1673.5052.1673.7341-.0038.1745-.1854.3525-.2981.5234a.2185.2185,0,0,1-.1344.069.6745.6745,0,0,0-.6324.5125c-.0073.0327-.0763.0509-.1054.0691a2.0078,2.0078,0,0,1,.2072.6251,2.2614,2.2614,0,0,1-.2362.6651c.2689.3089.0291.7233.1018,1.1121a.5106.5106,0,0,1-.7888-.0291.3435.3435,0,0,0-.4179-.0945.7328.7328,0,0,1-.6577-.2544c-.04-.0654-.0546-.16-.1091-.2a4.391,4.391,0,0,1-1.0612-1.7263,1.0843,1.0843,0,0,1-.0035-1.163c.0217-.0291.0291-.0872.0581-.0981.3489-.149.3634-.4616.3707-.8068-.0909-.0073-.2-.0109-.3343-.0182.0109.08.0217.1272.0253.1745.0111.149-.098.1672-.2034.1672-.1162-.0036-.2072-.0654-.1817-.1963.0253-.1236.0725-.2435.1127-.3743h.5559c-.1488-.1817-.2615-.3162-.3815-.4652-.098.0509-.1925.0981-.28.1381.0472-.4216.0836-.8286.1528-1.2284a.3657.3657,0,0,0-.2218-.447c.2471-.0545.4217-.0981.5961-.1345a5.8377,5.8377,0,0,1,2.2316-.1236,7.4582,7.4582,0,0,1,1.09.3853c.0836.2217.3017.2689.476.378.3163.1963.6251.4034.9232.6-.1854.0581-.1854.0581-.4106-.0436-.3527-.16-.4763-.0836-.5089.3235m.4033-.1708c-.0907.0073-.1817.0145-.2724.0182-.0038-.0291-.0038-.0618-.0073-.0945l.2726-.0218c.0035.0327.0035.0654.0071.0981m-.0144,73.5463q-17.7614-10.3636-35.3811-20.64c-.0038-.04-.0073-.0509-.0073-.0654a.0911.0911,0,0,1,.0144-.0327c.051-.0363.1018-.0763.1564-.109,3.2382-1.9335,6.4765-3.867,9.7476-5.8187A32.26,32.26,0,0,0,39.9428,79.7212a29.7836,29.7836,0,0,0,6.8654,1.312V74.6366c-.4616.0545-.5814-.3635-.8432-.5742a4.118,4.118,0,0,1-.3742-.4543c-.0437-.0472-.1528-.0945-.1963-.0727-.1673.0763-.2362-.0691-.2691-.1417a.9094.9094,0,0,0-.3707-.4688c-.0253-.0145.022-.16.0437-.2871-.0872-.1672-.2036-.3889-.3416-.6469h-.4252c.0364-.1345.069-.24.1018-.3525.1089.0109.207.0218.3234.0327-.1928-.6178-.3744-1.21-.5561-1.8136-.2107.0691-.2835.149-.1963.3271.0654.1308.1963.2617.0619.4289-.1963,0-.2327-.16-.258-.2907a5.4061,5.4061,0,0,0-.6761-1.85.4371.4371,0,0,1-.0217-.2217c-.0038-.4507-.0038-.905,0-1.3593a1.3224,1.3224,0,0,0-.2145-.7342,2.11,2.11,0,0,1-.2143-.5306,4.9868,4.9868,0,0,1-.2436-1.5156.71.71,0,0,0-.04-.229,7.34,7.34,0,0,1-.3055-1.272,5.7423,5.7423,0,0,0-.3307-1.272,1.1039,1.1039,0,0,0-.7232-.7523c-.3126-.1163-.636-.2108-.9594-.3089-.2946-.0909-.5961-.1708-.8942-.2617a1.0007,1.0007,0,0,1-.6832-.5851.8093.8093,0,0,0-.2762-.3126,3.8974,3.8974,0,0,1-.8214-.8723A4.47,4.47,0,0,0,35.6,56.8716a.6788.6788,0,0,1-.1854-.9668c.1165-.1563.2509-.298.1928-.52a.3888.3888,0,0,1-.4689-.56,1.3925,1.3925,0,0,0,.1091-.64c-.0073-.069.0617-.1563.1162-.2181.0472-.0618.1453-.0872.1744-.149.0983-.2.1273-.4616.2726-.6069a.7408.7408,0,0,0,.3052-.5161,5.305,5.305,0,0,1-.1271-.5779,1.5028,1.5028,0,0,0-.4907-1.0613.6258.6258,0,0,1-.1127-.1926.4034.4034,0,0,0-.6469-.0981c-.0945.0836-.2036.16-.32.2471.1018.1308.16.2072.2218.2835a.235.235,0,0,1-.3962.0291.75.75,0,0,0-.72-.1854.4726.4726,0,0,1-.4543-.16c-.1928-.1781-.3671-.3525-.6761-.298-.08.0145-.2544-.1345-.2726-.229-.0617-.3344-.3088-.4906-.5342-.68a5.16,5.16,0,0,1-.3962-.4,2.4455,2.4455,0,0,1-1.7263-.2035,3.893,3.893,0,0,1-.48-.3307.6278.6278,0,0,0-.854-.0109.5719.5719,0,0,1-.5743.0981,6.4522,6.4522,0,0,1-1.0756-.3126,5.5368,5.5368,0,0,1-1.3012-.636l-.1744-.1526a.3858.3858,0,0,1-.1417-.4107,1.3186,1.3186,0,0,0-.3236-1.1885c-.167-.1926-.2835-.4252-.4323-.636a1.18,1.18,0,0,0-.1746-.149c-.0435-.0436-.1309-.1018-.1236-.1345.0763-.3344-.2325-.5016-.32-.7632-.0144-.0472-.0253-.109-.0617-.1345-.378-.2689-.378-.6833-.4071-1.0794-.0182-.2217-.0619-.4107-.36-.447a2.0346,2.0346,0,0,0,.0945,1.01c.2254.6215.4326,1.2466.6287,1.8754a.6049.6049,0,0,0,.2218.3453c.1491.1127.1526.2508.0253.4107-.1852-.2217-.3669-.4216-.5268-.6324a.34.34,0,0,1-.0619-.2544.64.64,0,0,0-.2906-.6688c-.0874-.0763-.1746-.149-.2835-.2435a.5648.5648,0,0,0,.0652-.745,2.7826,2.7826,0,0,1-.3378-1.3775.9851.9851,0,0,0-.378-.8432.3823.3823,0,0,1-.1344-.258c-.0328-.2944-.022-.5961-.0583-.89a8.0689,8.0689,0,0,1,.9232-4.1069c.0291-.0727.0619-.1417.1127-.2581-.7123-.418-1.4248-.8323-2.1661-1.2684a32.2277,32.2277,0,0,0,.3525,28.7265q-4.9935,2.8621-9.94,5.7061a.3022.3022,0,0,1-.0617-.0254.05.05,0,0,1-.0255-.0218.6022.6022,0,0,1-.0182-.1127c.0364-13.6436.069-27.2873.1054-41.0109.1744.0945.287.149.3962.2144Q29.31,38.9974,47.3134,49.5445c.1016.0582.2.1236.3052.1745a.293.293,0,0,1,.1781.3126c-.0038.1163,0,.2326,0,.3489V80.3027q.0053,6.0731.0109,12.139c0,.149-.0109.298-.0182.527M30.6349,55.1634c.189.0436.2873.0654.4326.0981-.0546.1236-.0907.2144-.16.3743-.0945-.1636-.16-.28-.2726-.4725M49.374,46.4953q-13.1982-7.7141-26.4-15.4136-4.8411-2.8185-9.6786-5.6406c-.12-.069-.2325-.1454-.4071-.2544Q30.5569,14.91,48.1238,4.6848c.1018.3089.1165,11.7683.022,12.1535A32.2191,32.2191,0,0,0,23.4751,30.0168c.3307.1963.636.378.9776.5815a14.1041,14.1041,0,0,0,1.0867-2.0353.7477.7477,0,0,1,.2036-.28c.545-.5743,1.0865-1.1449,1.6391-1.7118a26.5759,26.5759,0,0,1,4.5067-3.6853,9.3227,9.3227,0,0,1,1.3339-.6251c.0217.0218.0435.0436.069.0654-.0581.1308-.1162.2617-.1852.418.0725.04.1488.08.236.1309a.8245.8245,0,0,0,.1491-.1781,1.3869,1.3869,0,0,1,.9523-.7341c.1162-.0327.1162-.0327.1963-.2471a.0564.0564,0,0,1,.0182-.0291,3.7882,3.7882,0,0,1,.3487-.2471c.1309-.069.022-.2362.1854-.3162.7014-.338,1.3847-.7051,2.0752-1.0576.0291-.0145.0728,0,.1491.0036-.12.0945-.2145.1708-.3307.2617.0836.0327.1271.0472.1744.0691-.0071.0182-.0071.0436-.0253.0545-.2544.1781-.5089.3525-.7669.5306a2.8529,2.8529,0,0,0-.7161.7014,2.0179,2.0179,0,0,1-.4361.36c-.069.0545-.1417.1054-.2072.1635-.1089.0909-.2107.1926-.32.28-.1417.1054-.2906.1817-.4106-.04a.9876.9876,0,0,0-.2944.6869c.4616.1163.6941-.24.9922-.4325.3343.1345.3489.1454.5705-.1054.2181-.2471.4035-.5306.6069-.7923a1.6,1.6,0,0,1,.2689-.2726,6.53,6.53,0,0,0,.8361-.6978c-.0983.0291-.1928.0545-.2908.0836-.0144-.2726,1.73-1.2321,2.4532-1.3229a4.4046,4.4046,0,0,1-1.0213.6142,3.04,3.04,0,0,0-1.2465,1.0176,5.4582,5.4582,0,0,1-.4071.4107,1.4042,1.4042,0,0,0-.2.2653,2.5647,2.5647,0,0,0-.1564.3271c.1236-.0545.2145-.0909.3416-.1417-.0907.378-.5089.52-.5561.9341.0836-.0327.16-.0364.1819-.0727a1.9576,1.9576,0,0,1,.6795-.6106,1.6654,1.6654,0,0,0,.4181-.5016c.1125-.1635.2289-.28.4543-.2144a.35.35,0,0,1-.1127.4579,2.157,2.157,0,0,0-.4326.6251,2.3567,2.3567,0,0,1-.64.6,4.4674,4.4674,0,0,1-.4505.2835c-.0291-.0509-.0654-.1127-.1018-.1745-.0364.0109-.0654.0109-.08.0255-.12.1345-.2327.2726-.3489.4107-.16.1854-.309.378-.4871.5488a3.0282,3.0282,0,0,1-.6506.5379,2.5289,2.5289,0,0,0-.665.52,4.0295,4.0295,0,0,1-.3851.3126c-.0983.0763-.211.1417-.3055.2253a7.9928,7.9928,0,0,0-1.4938,1.8172,2.1219,2.1219,0,0,0-.1162.2544c.0909.0509.1635.0909.2618.1454-.0364.24-.0763.48-.1162.756a.87.87,0,0,1,1.0393.3562,1.1481,1.1481,0,0,0,.8942.3017c.1236,0,.2507-.0109.44-.0218-.0654.3453-.1236.6506-.1817.974.1344.0255.24.0472.3489.0691,0,.0254.0035.0509.0035.0763-.0945.0109-.1925.0182-.3052.0255-.069.3452.3234.4543.3307.7523.2-.0727.3489-.1236.5162-.1854a2.5473,2.5473,0,0,0,.12-1.5592c.2181-.1781.4361-.338.636-.52a1.4651,1.4651,0,0,0,.2509-1.9372.7587.7587,0,0,0,.1562-.069.67.67,0,0,0,.3489-.6433,1.3958,1.3958,0,0,1,.1309-.48c.0508-.1345.1746-.2217.0945-.418-.069-.1635.1963-.3452.4252-.3271.4652.0327.4652.0327.7669-.1272a.7521.7521,0,0,1,.4035.5706c.1488.0073.3017.0145.49.0218a4.2391,4.2391,0,0,0-.1162,1.01c.1564.109.309.2144.498.3453.2471-.2726.5961-.4434.6759-.8577a1.5274,1.5274,0,0,1,.2436-.4c.16.2871.2908.5233.4179.756.069.1236.12.2617.2.378a.6148.6148,0,0,1,.0945.716,2.2035,2.2035,0,0,0,1.37.6c.0146.0363.0326.069.0472.1018-.098.0509-.1963.1018-.3307.1672.309.0872.5488.1563.7886.229a.2187.2187,0,0,1,.1127.1018.8332.8332,0,0,1-.1488.9086h.2689c-.1018.2835-.1925.5415-.3052.8614a.8487.8487,0,0,1,.2615-.1018c.0364,0,.0728.0872.1455.1853.1961-.0109.4579-.0218.7378-.0327-.022.1345-.0364.2435-.051.3489.0581.0255.1054.04.1526.0582-.0182.1054-.0362.2108-.0617.3707.12-.069.189-.1127.2726-.16a.4736.4736,0,0,1-.051.6542.3985.3985,0,0,1-.3161-.4725c-.16.189-.2908.3416-.4652.5524a.4449.4449,0,0,0-.5561-.2871c-.2327.0327-.4579.0945-.687.1345a1.1879,1.1879,0,0,1-.258-.0182c.28-.6724.5453-1.3157.8287-1.9917a.9044.9044,0,0,0-.7777.3562,1.6417,1.6417,0,0,1-1.3194.5924c-.3853.0472-.7633.1309-1.1449.2a.2841.2841,0,0,0-.1417.0654c-.3307.298-.6615.596-.9849.9013a.2208.2208,0,0,0-.0364.2072c.1673-.1127.3307-.229.5016-.3307a3.829,3.829,0,0,1,.618-.32.5858.5858,0,0,1,.6613.109c-.1089.1272-.2143.2471-.327.3743a3.1689,3.1689,0,0,0,.0035.4143.744.744,0,0,0,.7269.5743c.3272.0218.6216-.0327.7451-.4071a2.2945,2.2945,0,0,1,.2289-.3635c.0109.1963.0182.309.0255.4216.0725-.0036.1309-.0109.2072-.0145-.0182.0472-.0182.0945-.04.109a7.0444,7.0444,0,0,1-1.4137.9086c-.1453.0581-.2509.2181-.3671.338-.08.08-.1491.1708-.2181.2544-.327-.16-.3634-.2871-.1526-.52.1162-.1272.2509-.24.4106-.3962a1.2,1.2,0,0,0-.9594.4434,1.0715,1.0715,0,0,1-.476.3017,1.2893,1.2893,0,0,0-.9015.9631c-.0291.12.0546.2653.0874.4071-.3853.2326-.7959.4761-1.203.7378a.6524.6524,0,0,0-.1637.2326,4.4965,4.4965,0,0,1-.2216.44c-.0328.0509-.1417.0545-.24.0872-.04.1926.1453.2435.2835.3271,1.0683.636,2.1406,1.2648,3.2127,1.9008q5.1409,3.0366,10.2782,6.0695c.1236.0727.2471.1417.3889.2217.4942-.28.9922-.5633,1.4865-.8432,1.7664-1.0067,3.5326-2.0171,5.3063-3.0166.2072-.1163.3634-.2253.3307-.4979a1.0125,1.0125,0,0,1,.0725-.3816c.1491-.4943.3055-.9886.4689-1.4756.0508-.1454.1417-.2762.2-.418a1.7833,1.7833,0,0,1,.8358-1.0394c.1309-.0654.2072-.258.2981-.4a.5026.5026,0,0,0,.0144-.5852.56.56,0,0,1-.0364-.52,1.91,1.91,0,0,1,.5488-.9995,1.047,1.047,0,0,0,.2908-.7014c.0182-.1054.04-.2108.0728-.3634a1.9349,1.9349,0,0,0,1.4392.0909.4006.4006,0,0,0,.2254-.1309,3.6828,3.6828,0,0,1,1.9843-1.0394,7.2776,7.2776,0,0,1,1.1559-.2544c.0945-.0073.1817-.0909.2762-.1381.1054-.0545.2-.0945.3161.0073.0581.0509.1746.0327.28.0472,0,.1963-.0073.4107.2252.5488.0654.04.0728.2035.0765.3126a3.4514,3.4514,0,0,1-.0328.418,3.4739,3.4739,0,0,1,.4434.2035,1.0346,1.0346,0,0,0,.7161.1163,1.1434,1.1434,0,0,1,1.0322.3053.5736.5736,0,0,0,.7487.069,4.008,4.008,0,0,0,.4033-.2326.4662.4662,0,0,0,.1528-.2035c.16-.5016.3234-.5779.8467-.3634.854-.487,1.7192-.9777,2.6349-1.501-.1344-.2689-.258-.5161-.3815-.7669-.1236-.0073-.2216-.0109-.3272-.0182-.2181.5888-.56.1417-.8576.109-.098.08.1344.32-.1344.298a1.5492,1.5492,0,0,1-.3671-.1417c-.0182.0654-.0328.1127-.0472.1563-.3744-.2253-.56-.716-1.0976-.7632.0472-.0872.0836-.1526.1453-.2617-.287-.0145-.3634-.2072-.4614-.4107-.1963-.4143-.3709-.4543-.8179-.2108.0546.0763.1091.149.1854.2544-.1309.0145-.2254.0254-.3307.04.2072.4143.6287.5052,1.0284.7014-.1344.0836-.2325.1454-.3234.2035.0546.1781.1054.3525.1708.5779-.1089-.0073-.2433.0218-.3088-.0327a1.7393,1.7393,0,0,1-.4543-.4688,1.18,1.18,0,0,0-.5961-.527,1.4052,1.4052,0,0,1-.7125-.6833.92.92,0,0,0-.49-.4688,5.9635,5.9635,0,0,0-1.1486-.4579,1.4613,1.4613,0,0,1-.4907-.298c-.1526-.1054-.2615-.2871-.5051-.189-.0508.0182-.1562-.1127-.2436-.1563a1.2585,1.2585,0,0,0-.2433-.0654c-.0073.0945-.0583.2145-.0182.2762a1.4679,1.4679,0,0,0,.356.3925c.2544.1963.5379.3562.8.5452.2.1454.3742.3307.6542.2507a.09.09,0,0,1,.0763.0073c.2507.28.6433.2362.9412.4107a1.7063,1.7063,0,0,1,.2291.1926c-.1781-.0291-.2873-.0436-.4035-.0618a.2517.2517,0,0,0,.0945.3671.4826.4826,0,0,1,.1817.52,1.607,1.607,0,0,1-.2.378c.0326.1018.0763.2435.1526.4834-.4033-.2181-.8177-.16-1.1231-.527.3307-.0981.6688.0218.9086-.3271a.4685.4685,0,0,0-.2833-.5452c-.3636-.1926-.7524-.3453-1.1267-.5052a2.6688,2.6688,0,0,1-.3636-.1272,4.8328,4.8328,0,0,1-1.1739-.7378.5008.5008,0,0,0-.8467.0945.6767.6767,0,0,1-.8.3671.8467.8467,0,0,0-.1925-.0254.2421.2421,0,0,0-.2254.3271.6357.6357,0,0,0,.0836.1745c.1635.2762.1526.2617-.0763.5088a1.8589,1.8589,0,0,0-.3454.5052.5622.5622,0,0,0,.1455.7778,1.36,1.36,0,0,1-.3272.8323.4661.4661,0,0,1-.2762.1781,1.3486,1.3486,0,0,0-.854.4107.2129.2129,0,0,1-.3416.0073.8131.8131,0,0,0-.9922-.1926,1.4648,1.4648,0,0,1-.1819.0218c-.0435-.12-.0763-.2435-.1271-.3525-.0364-.0763-.0909-.1708-.1562-.1926a.3705.3705,0,0,1-.2618-.4252,2.1056,2.1056,0,0,0-.6034-1.5483.8189.8189,0,0,1,.7633-.4434c.5016-.0509.9993-.109,1.5009-.1635.1018-.0109.2-.04.3307-.0654a1.7812,1.7812,0,0,0-.5124-1.2248,2.7425,2.7425,0,0,0-.6686-.4616,1.3964,1.3964,0,0,0-.5634-.0981.4443.4443,0,0,1-.447-.269.5206.5206,0,0,1,.5016-.2,2.4034,2.4034,0,0,0,.4942-.0218c-.1271-.1781-.2216-.3089-.3307-.4652.0654-.0036.1018-.0073.1382-.0073.1344,0,.327.0582.396-.0109.1417-.1345.309-.3489.2908-.5161a.4015.4015,0,0,1,.2107-.4071.2984.2984,0,0,0,.1165-.4289,4.14,4.14,0,0,1-.1637-.5052c.2362-.1381.48-.28.7742-.447,0,.0073.0255-.08-.0035-.1127-.2072-.2108-.4217-.4143-.64-.6142a4.7319,4.7319,0,0,1-.4071-.3525c-.2653-.3053-.2762-.3889-.0364-.7087.2036.1854.4108.3671.6761.6033.0073.04.0217.1635.04.2908.2762.0581.2981-.16.3636-.3162.069-.1672-.0293-.2617-.16-.3453-.4907-.3162-.9778-.6324-1.4539-.9486-.3381.0981-.1054.4434-.3307.6251a.9663.9663,0,0,1-.8831-.4107,1.7434,1.7434,0,0,0-.4361-.4034,9.95,9.95,0,0,1-.7888-.6251c-.0581-.0472-.1488-.1526-.138-.1745.1781-.2726-.1417-.5742.0508-.8432a.1345.1345,0,0,0-.0073-.1054,2.3627,2.3627,0,0,0-.6469-.89c-.3416-.2762-.64-.6033-.9667-.8941a.6024.6024,0,0,0-.3381-.1454.5238.5238,0,0,1-.4725-.2907c-.0763-.1636-.2944-.2544-.2433-.4907.0071-.04-.1417-.1127-.2726-.2144a1.8508,1.8508,0,0,1,1.043.04,9.1838,9.1838,0,0,0,1.6209.2871c.8106.1708,1.6247.32,2.4279.5088a4.1168,4.1168,0,0,1,.7269.3162c-.0073.0255-.0182.0582-.0255.0836-.2618-.0182-.5233-.0364-.7888-.0581A11.3761,11.3761,0,0,0,60.51,20.52c-.2107-.2253-.5162-.1781-.72-.3489.0581-.0218.1018-.04.2072-.08-.2835-.149-.5271-.2762-.7706-.4071a.5579.5579,0,0,1-.2689-.2435.9471.9471,0,0,0-.4106-.3235c-.2835-.149-.5852-.2689-.8578-.4325A31.2521,31.2521,0,0,1,75.2622,31.1107c.1125-.0581.2252-.109.3343-.1708.1018-.0545.2-.1163.2979-.1744-.4071-1.1485-4.1759-5.2009-6.5819-7.0908A32.05,32.05,0,0,0,51.3658,16.871V4.7611c12.0916,6.8327,24.14,13.6436,36.246,20.4836-.1817.109-.3088.189-.44.2617Q75.1568,32.3046,63.134,39.0992q-6.5311,3.6962-13.0621,7.3961a.5947.5947,0,0,1-.6979,0m-9.057-22.886a1.5058,1.5058,0,0,1-.0182,1.0976c-.2724-.109-.5306-.2108-.7848-.3126-.0182.0291-.0328.0545-.051.0836a3.0665,3.0665,0,0,1,.3416.3453.6646.6646,0,0,1,.0763.2653.5537.5537,0,0,1-.2362.0436c-.2181-.0581-.4323-.1417-.7014-.2326-.0217.0073-.1054.0363-.2072.069a1.0827,1.0827,0,0,1-.167-.487c-.0146-.1454-.1854-.2762-.3234-.4579-.1528.0836-.3489.1854-.5488.2908a.29.29,0,0,1-.378-.0654.7473.7473,0,0,1,.6724-.5343,2.1262,2.1262,0,0,0,.56-.2.42.42,0,0,1,.2034-.5052,1.788,1.788,0,0,0,.2873-.2617.66.66,0,0,0,.08-.9413c-.0144-.0218-.069-.0182-.1054-.0218,0-.0073-.0035-.0218-.0035-.0327q.0379-.2617.0763-.5233c-.0692-.0036-.1056-.0145-.1165-.0036-.4033.4725-.88.1963-1.4137.1563a5.338,5.338,0,0,1,1.1957-1.1558,3.06,3.06,0,0,1,1.9337-.72c-.12.2362-.2362.4688-.3055.6106.1928.3344.3345.5815.4763.8323-.1236.1817-.2327.3416-.3454.5052a.2128.2128,0,0,0,.0728.3307,3.9182,3.9182,0,0,1,.5852.5088c.2433.229.258.2108.0725.4688-.1488.2072-.2944.4216-.4725.676-.1016-.1054-.2471-.189-.2944-.3126a.4626.4626,0,0,0-.4179-.2908c-.0182.3126-.2653.6869.258.7741m-2.01-.9159c.1963-.527.4035-.64.8578-.4071-.3962-.0255-.48.4434-.8578.4071m2.028-3.489c-.069.0073-.1453-.1127-.2252-.1309a.6961.6961,0,0,0-.2544.0364c-.0038-.0255-.0111-.0545-.0146-.0836.5162-.1526,1.0359-.3053,1.57-.4652.0437.0763.0763.1345.1309.2253a2.667,2.667,0,0,1-1.2067.418m-4.5721,2.8131c-.1271.52-.3234.6542-.6251.4434.2145-.1526.4179-.298.6251-.4434m.4725,3.0093c-.0907-.1018-.1635-.1817-.2507-.2835-.2362.189-.4763.378-.7125.567-.08-.0945-.1526-.1817-.2362-.2762.3017-.3743.6216-.77.9379-1.163.4106.1345.3052.6615.6976.7705l.0109.0908c-.1417.0945-.287.189-.447.2944m.2145.5379c-.1162.1635-.189.2653-.258.3671-.0255-.0218-.051-.04-.0765-.0581.022-.1454.0874-.2508.3345-.3089m-.5887-.1236c-.1236.1091-.2473.2181-.3709.3235-.0217-.0291-.0472-.0581-.0725-.0872.1271-.1018.2544-.2072.3815-.3089.0217.0254.04.0509.0619.0727m4.1178,5.8078a.8.8,0,0,1,.8212.1454c-.3416.2-.5741-.0254-.8212-.1454m.7378,1.5592c-.0763.0872-.1236.1745-.1564.1708a4.2486,4.2486,0,0,1-.56-.1127c-.04-.0109-.0654-.08-.1162-.1417.2835.0291.5268.0509.8323.0836m13.4765-8.2829c-.0073-.0291.0508-.0727.0834-.109.0364.0364.0909.069.1091.1127.0109.0291-.0291.08-.0619.1563-.0654-.0763-.1162-.1127-.1307-.16m.476-.2944c.1271-.0327.28-.069.4616-.1163.0217.2035.0362.3525.0581.527a3.7518,3.7518,0,0,0,.4179-.0981c.1852-.0618.2726.0145.3161.1781a.5725.5725,0,0,1,.0291.1926.3843.3843,0,0,0,.3126.4216,1.7034,1.7034,0,0,1,.4108.2145c.2507.1563.5089.3089.7487.4834.1852.1345.3525.2944.5488.4616.5271-.0145.5705.0364.5488.6578.0617.0327.1236.0618.2436.1236a2.354,2.354,0,0,1-.4.2253c-.2433.0763-.4942.12-.7413.1854-.0472.0109-.1162.0327-.1271.0654-.0728.2653-.3489.1781-.4907.3416-.0546-.3089-.0546-.3089.1562-.7232-.2-.0073-.3889-.0182-.5961-.0291.0546-.1345.1054-.2508.1637-.3889a.7729.7729,0,0,1-.2327-.1236c-.0437-.0509-.0326-.1454-.0508-.2362.0907-.04.1779-.08.2724-.12-.0217-.3489-.4942-.2689-.4614-.6324-.1819.08-.2981.1309-.4508.2-.0654-.1454-.1271-.2835-.1817-.4071-.0909.0073-.2471.0327-.2544.0109-.0654-.2072-.16.0037-.2436-.0291.0146-.08.0328-.16.0472-.24-.2-.1817-.3924-.3634-.5961-.5488.2327-.1308-.0073-.3671.0909-.5961m.0945,1.8063a.434.434,0,0,1,.2835-.16,1.6664,1.6664,0,0,1,.3815-.0073l-.0654.0654c.12.0945.24.189.378.298-.0909.3671.3307.6106.3525.9486-.258.1635-.4942.3344-.7487.4652a.3606.3606,0,0,1-.3161-.0327.4076.4076,0,0,1-.1382-.2835,1.27,1.27,0,0,1,.0692-.3562.6315.6315,0,0,1-.4945-.48c.1165-.0436.2181-.08.309-.109-.0073-.1272-.0546-.2617-.0109-.3489m7.1888,6.2185c.0654-.0872.1127-.149.1854-.2471.0654.0945.1162.1635.1635.2362a.5739.5739,0,0,1-.0581.0727c-.0836-.0182-.1635-.0327-.2908-.0618m1.5228-1.85c.1564.2689.2944.527.4508.7741.1526.2362.327.4616.4978.7051-.069.0981-.1271.1781-.2181.3053-.1635-.229-.3015-.44-.4614-.6324a.2818.2818,0,0,1-.0038-.418c-.3889-.4761-.3889-.4761-.2653-.7341m6.0186,2.41a1.6357,1.6357,0,0,1,.88.04.7384.7384,0,0,1-.88-.04m2.417-.3126c.0435-.0872.1453-.149.287-.2871a1.594,1.594,0,0,1-.0109.4c-.0146.0472-.1127.0654-.1746.0981-.0364-.0727-.12-.1672-.1016-.2108M89.2,69.8356c-.0109.0036-.0291.0109-.0364.0073Q83.8322,66.5991,78.5,63.3517a1.7707,1.7707,0,0,1-.1746-.1345,32.1763,32.1763,0,0,0,2.9621-18.8845,31.1358,31.1358,0,0,0-2.8165-9.25c-.24.1381-.4508.2581-.68.3889.0472.149.0872.28.138.4507-.2835-.0654-.5632-.3962-.8467.0364a4.8049,4.8049,0,0,0,.2181.4325.2277.2277,0,0,0,.1854.0836c.0435-.0145.0834-.1163.0872-.1781a1.6734,1.6734,0,0,0-.0472-.3344,4.3531,4.3531,0,0,1,.88,1.4283,6.0084,6.0084,0,0,1,.3343,1.7845,3.3008,3.3008,0,0,1-.567,1.8935c-.1162.149-.2216.3053-.356.4907-.0472.3089.1526.5415.396.7887.2362-.2144.48-.4288.756-.68a4.5769,4.5769,0,0,1,.1526.6287,8.9666,8.9666,0,0,1-.4106,4.245,8.6944,8.6944,0,0,0-.5887,2.0862,2.0081,2.0081,0,0,0-.0073,1.0576.7951.7951,0,0,1,.0073.3089,2.8683,2.8683,0,0,0,.1127.9595,1.4164,1.4164,0,0,1,.0508.4943c-.0326.5052-.0763,1.0067-.1309,1.5083a1.3534,1.3534,0,0,1-.4543.9595c-.4.3344-.5488.84-.8758,1.2248a.6574.6574,0,0,0-.0945.3671c-.0328.3961-.0437.7959-.0763,1.1957a.9284.9284,0,0,1-.4071.68,1.0091,1.0091,0,0,0-.3889.6469,3.154,3.154,0,0,1-.5488,1.1921c-.378.5234-.7087,1.0831-1.0941,1.6028a2.392,2.392,0,0,1-1.4865.905,8.2656,8.2656,0,0,0-1.0359.3707.5626.5626,0,0,1-.2143-.7632.614.614,0,0,0,.0617-.4761c-.0543-.2653-.08-.5379-.1344-.8032a.9959.9959,0,0,0-.1309-.4034,1.24,1.24,0,0,1-.189-.7741c.0073-.5016.0109-1.0067,0-1.5083a.7744.7744,0,0,0-.08-.2944c-.1564-.3707-.2981-.7487-.4834-1.1049a1.7452,1.7452,0,0,1-.1526-1.17,4.3522,4.3522,0,0,1,.5415-1.53,1.0466,1.0466,0,0,0,.0546-1.0322.8794.8794,0,0,1-.0909-.3307A3.1584,3.1584,0,0,0,70.014,49.85c-.3126-.3271-.6178-.6578-.93-.9922a4.1667,4.1667,0,0,0,.167-1.7082c.0255-.3562-.4179-.6106-.7777-.5088-.1089.0327-.2289.0472-.3343.0872-.4179.1708-.4179.1708-.6469-.2435a.9065.9065,0,0,0-.0583-.1018.5263.5263,0,0,0-.4978-.2471,3.6762,3.6762,0,0,0-.93.2581,7.4287,7.4287,0,0,0-1.0213.6324.8033.8033,0,0,1-.6471.16,2.1482,2.1482,0,0,0-1.5118.3744.8415.8415,0,0,1-.8032.12,7.0668,7.0668,0,0,1-.8869-.378,2.1732,2.1732,0,0,0-1.1158-.418c-.1526-.2181-.309-.4325-.4725-.6651-2.2788,1.3411-4.5685,2.6895-6.8509,4.0342v2.29a1.5988,1.5988,0,0,1,1.6247.2908,1.4592,1.4592,0,0,0,.8285.1672c.36-.0182.4181.0218.5417.3525a1.584,1.584,0,0,1-.1854,1.5156,10.7649,10.7649,0,0,1-.8214,1.2648,1.2262,1.2262,0,0,0-.2362,1.1776,3.5552,3.5552,0,0,1-.3234,2.0789c-.0763.1781-.138.3635-.2181.5379a.9876.9876,0,0,1-.756.6506,2.3448,2.3448,0,0,0-.4434.16c0,.2653-.0035.5088,0,.7523l.022,9.0279q.0163,3.947.0217,7.8976a.7893.7893,0,0,0,.2726.6,3.1056,3.1056,0,0,0,1.2138.8468c-.516.3416-.974.0291-1.41-.0472-.1673.1781.0291.2144.0581.3053-.189.0472-.1162.2035-.1271.32-.0073.1272,0,.2581.0035.3889a.79.79,0,0,0,.04.1526A31.7978,31.7978,0,0,0,66.5941,76.21,32.2334,32.2334,0,0,0,76.8758,65.8231c3.54,2.1262,7.0544,4.2414,10.638,6.393-11.9572,6.9672-23.86,13.9017-35.821,20.8689-.0071-.2072-.0182-.3525-.0182-.5015q.0057-9.6058.0111-19.2189V50.29a1.1406,1.1406,0,0,0-.0038-.1926.45.45,0,0,1,.2835-.4906c1.0976-.636,2.1879-1.2866,3.2819-1.9335q11.3668-6.7219,22.7369-13.44,5.3535-3.1674,10.7107-6.3385c.1089-.0618.2216-.1163.3889-.2072.0546,14.0979.1127,28.1159.1673,42.1267-.0293.0109-.04.0182-.051.0218M78.3223,57.155c-.0146.0327-.0581.0472-.1417.1054a2.6115,2.6115,0,0,1-.0619-.3453,4.0417,4.0417,0,0,1,.2835-1.6318,2.9283,2.9283,0,0,0,.2072-1.0613,1.3314,1.3314,0,0,1,.2835-.945,2.723,2.723,0,0,0,.5124-1.0758c.04-.1345.0874-.269.1309-.4034a2.0249,2.0249,0,0,1,.0328,1.2939c-.3017,1.1412-.6034,2.2788-.92,3.4127a3.62,3.62,0,0,1-.327.6506M64.0317,76.5593c-.8358.8686-6.7709,3.0093-8.5555,3.1111a1.6273,1.6273,0,0,1,.2107-.1745c.3926-.1926.785-.3925,1.1886-.567a3.2617,3.2617,0,0,1,1.272-.3562,3.5625,3.5625,0,0,0,.7487-.1817c.1491-.0363.2981-.1817.4581-.0036.0291.0254.1453-.0182.2143-.0436.2946-.1054.5852-.2144.876-.3235a.6349.6349,0,0,1,.4434-.0691c.0872.0254.2181-.0545.32-.1018q1.3409-.616,2.6821-1.2393c.0472-.0182.0945-.0327.1417-.0509M61.6475,23.4821c.2544-.0436.4361.229.6724.1526a4.6515,4.6515,0,0,0-.3416-.3889.3692.3692,0,0,0-.52-.0727c-.04.0327-.1236.0073-.2289.0073.0872-.0981.1309-.1526.1382-.16A1.1192,1.1192,0,0,1,61.24,22.65c0-.0509.1417-.1308.2289-.1417.2691-.0327.2691-.0218.3234-.3235a2.1108,2.1108,0,0,1-.2979-.0763.4267.4267,0,0,0-.6216.1963.2547.2547,0,0,1-.3707.0981c-.3234-.1526-.6577-.298-.974-.4688-.2254-.1236-.4252-.2944-.6433-.4325a.9453.9453,0,0,1-.4215-.4906,1.4509,1.4509,0,0,0-.73-.7742.8005.8005,0,0,0-.8032-.0654,1.602,1.602,0,0,0,.6178.4725.5856.5856,0,0,1,.3634.4616,1.2377,1.2377,0,0,0,.2691.4979,4.9866,4.9866,0,0,0,.4361.4434,1.6155,1.6155,0,0,0,.76.447,1.2645,1.2645,0,0,1,.4543.2108c.1236.0872.3017.189.1673.4071-.0182.0291.0144.1127.0472.1563a2.4833,2.4833,0,0,0,.2507.298c.1817.1817.3707.3525.5488.5343a.7053.7053,0,0,1,.0983.2035c-.1091.0654-.1928.12-.2691.1672.0073.1054.04.2617.0146.269-.2289.0908-.1637.2762-.1309.487-.2726-.0581-.5089-.109-.7269-.1563.1236.3671.5524.24.7487.4907.1344-.1454.2509-.2762.3707-.4034.16.1127.2764.1926.4543.3162.0692-.0872.1236-.16.1819-.229.3669-.4289.3669-.4289.8649-.2471.0182-.1745.04-.3489.0581-.5161-.1526-.1635-.3052-.32-.4543-.4834-.138-.16-.3452-.2726-.4071-.5161m-.6433.3416c-.0546-.069-.1089-.1345-.16-.2035.0182-.0182.0364-.0327.0581-.0509.0654.0545.1346.109.2036.1636-.0364.0291-.069.0618-.1018.0908M71.595,29.2608a9.06,9.06,0,0,0-1.5883-.9631.2384.2384,0,0,0-.378.1272c-.0253.0581-.0581.109-.0907.1781-.2362-.1963-.5852-.258-.5887-.5961-.2254-.0836-.4217-.1563-.6943-.2544a2.2307,2.2307,0,0,0,.0328.4543c.1344.4616.287.9231.44,1.3811.0182.0581.0763.1018.1162.1526a1.2259,1.2259,0,0,0,1.1158.4034.3124.3124,0,0,0,.0581-.0945c.0983-.4071.3853-.5633.8323-.3307a2.7586,2.7586,0,0,0,.5089.189.3505.3505,0,0,0,.4217-.189c.04-.0981-.0546-.258-.0983-.3852-.0109-.0291-.0581-.0509-.0872-.0727M73.63,30.4565a3.8609,3.8609,0,0,0,.6615.7414.295.295,0,0,0,.378.0945c.08-.1563-.0291-.2471-.0945-.3525-.309-.4943-.8141-.85-.9922-1.4356-.0073-.0327-.0581-.0472-.0872-.0727-.4288-.3707-.8687-.7305-1.2831-1.1194-.1562-.149-.3924-.3126-.2216-.6033.0109-.0182-.0291-.0727-.0546-.0981a1.9027,1.9027,0,0,0-.8285-.5451,1.8356,1.8356,0,0,0,.5632,1.2284c.4.3671.7815.7523,1.1848,1.1158a4.2964,4.2964,0,0,1,.7742,1.0467m-41.7232,3.82a1.0239,1.0239,0,0,1,.7378-.1563c-.0255-.2072-.0472-.378-.0692-.5524-.1125-.0618-.236-.0872-.258-.149-.069-.1962-.1526-.2871-.3671-.189-.0435.0218-.1307-.0509-.1961-.08-.4108.3344-.8106.6615-1.21.9886.327.418.5379-.0182.7742-.0436a1.1169,1.1169,0,0,0,.2762.1635c.1018.0291.2507.0654.3126.0182m2.0535.5561c.16-.378.1018-.5306-.2653-.5742-.3563-.0436-.7343-.1526-1.0541.1417-.0581.0509-.1708.0472-.258.0654a1.3826,1.3826,0,0,0-.7522.3525c.1271.08.2325.1454.3378.2144.1928-.1708.3636-.3271.5271-.4761.4361.1272.48.1054.2762.8068.0728-.0109.1417-.0182.2107-.0291.0546.1163.1056.2217.1781.3707a1.9609,1.9609,0,0,0,.4108-1.0794c.1453.0763.2653.1417.3889.2072M69.88,28.0215a3.4083,3.4083,0,0,0-.1746-.3235,3.7413,3.7413,0,0,0-.2507-.3089c-.3017.2544-.3525.3889-.2181.5961.1271.1926.2835.2072.6433.0364M34.244,35.4175c.3378-.0727.65-.1345.9559-.2144.167-.0436.2653-.1526.1635-.338-.6724.1018-1.01.258-1.1193.5524m-5.9024-8.0139a1.6671,1.6671,0,0,0,.0146.2181c.0035.0145.0362.0291.069.0545a3.0862,3.0862,0,0,0,1.0357-.7051c-.069-.08-.1307-.149-.1961-.2253-.24.2908-.4326.6469-.9232.6578m2.53-3.0565c-.1708.0981-.3378.1926-.5051.2871.0364.2653-.2216.298-.3525.4361-.0581.0618-.12.12-.1781.1817a.5958.5958,0,0,0,.0437.0509c.3889-.2471.7777-.4907,1.1666-.7414-.0654-.0836-.1127-.1381-.1746-.2144M33.67,22.9187a1.4134,1.4134,0,0,0-1.1449.5415,2.7262,2.7262,0,0,0,.7052-.1127c.1744-.08.2944-.2835.44-.4289m-5.2118,5.7824c.211-.1127.4181-.2217.6724-.36-.32-.08-.32-.08-.6724.36m5.75,6.9563c-.2544.0909-.4508.1635-.6979.2508.3234.2108.4108.1781.6979-.2508m35.0069-5.31c-.0472.0509-.0255.1672-.04.3235.2-.12.3272-.1926.52-.3053-.2325-.109-.3742-.1309-.48-.0182M35.4361,24.169c-.1127-.1018-.1746-.1563-.2471-.2217-.0654.1926-.0293.2726.2471.2217M75.4512,37.1984a2.124,2.124,0,0,0-.1781-.2326c-.1491.0872-.2908.1708-.4652.2689.0581.0981.0725.1526.1089.1817a3.1447,3.1447,0,0,1,.88,1.3447,3.4167,3.4167,0,0,0,.3671.5852c.0836.1236.1852.24.258.3707a3.3018,3.3018,0,0,0,.3161.6178c.2981.3453.6433.6469,1.0031,1.0067a7.8154,7.8154,0,0,0-.7413-1.8426c-.4942-.7814-1.1085-1.4828-1.5481-2.3006m.9048,9.94v.9849c.3234.0327.3234.0327.3815-.2253.04-.1744.08-.3489.1238-.5233A.3263.3263,0,0,0,76.73,47c-.12.0436-.24.0872-.3744.1381M70.05,42.8935c.098-.1417.1708-.2471.28-.4034-.3378.0036-.48-.3162-.8432-.2653.1963.2326.3563.4216.5634.6687m6.03,7.2507c-.08-.3634-.16-.7269-.2544-1.1485-.1453.5888-.0546.9522.2544,1.1485m.9814,2.2715c.0144-.2762.0326-.5488.0472-.825-.1928.3853-.2.5306-.0472.825M39.4958,46.0519a.9766.9766,0,0,0-.7888-.1672,1.7123,1.7123,0,0,0-.9412.3962c-.2145-.0073-.3853-.0291-.5526-.0218-.1526.0073-.3052.0618-.4579.0727a1.1306,1.1306,0,0,1-.2653-.0472.3527.3527,0,0,1,.2436-.1563c.189-.0182.2181-.1926.2979-.3089.0182-.0291-.1089-.1563-.2072-.2835.4361-.0763.85-.149,1.2613-.2217a9.5627,9.5627,0,0,0-1.5448-.945h-.0035c-.04.0691-.0763.1381-.1382.2471-.0617-.1236-.0834-.1672-.1236-.2471h.2618v-.0036l.0035.0036h.0038a2.1973,2.1973,0,0,0-.1854-.1345c-.85-.5016-1.7008-.9958-2.5512-1.49a.609.609,0,0,0-.1417-.04,3.5164,3.5164,0,0,1,.08.4507,1.3717,1.3717,0,0,1-.04.4216c-.0763.2362-.258.258-.4288.0654a2.0331,2.0331,0,0,1-.6-1.2648.4948.4948,0,0,0-.6759-.4252c-.1054.04-.2036.0945-.309.1454a1.0235,1.0235,0,0,0-.6142-.2181,11.08,11.08,0,0,0-1.2212.3162c.3017.0872.1564.269.189.3962a1.2828,1.2828,0,0,1-.7413.0291,1.4843,1.4843,0,0,0-1.1158.2181c-.0326.0182-.0763.0472-.08.0763-.0182.2181-.1746.2944-.3454.378-.0546.0255-.08.12-.1162.1854-.0328.0654-.0437.1672-.0983.2035a.5905.5905,0,0,0-.189.6905.981.981,0,0,1-.0617.5961,2.3459,2.3459,0,0,0,.0182,1.37,4.2363,4.2363,0,0,0,.4106.8723.7191.7191,0,0,0,1.0251.3671c.1307-.0545.2689-.1563.396-.1454.3272.0255.4326-.1817.52-.418.0581-.1672.0728-.3525.1273-.5234.0326-.1054.08-.2435.16-.2871a6.7781,6.7781,0,0,1,.8576-.3562.2859.2859,0,0,1,.3818.1236.5112.5112,0,0,1-.0328.1381,1.8118,1.8118,0,0,0-.2072.974.4786.4786,0,0,1-.0364.2617,3.4014,3.4014,0,0,0-.2471.9922,3.8425,3.8425,0,0,0,.4652-.0364c.2291-.0436.4508-.109.6761-.1708a1.1738,1.1738,0,0,1,.8977.1236.3077.3077,0,0,1,.1852.3126c-.0182.258-.0217.5161-.04.7741a1.1052,1.1052,0,0,0,.3815,1.0431,2.3855,2.3855,0,0,0,.5235.3271.7985.7985,0,0,0,.7886-.2.8261.8261,0,0,1,1.0322-.0364c.098.0618.1963.12.3017.1817.258-.2726.5453-.5052.5233-.9231a.3115.3115,0,0,1,.1309-.2217,5.3919,5.3919,0,0,1,.64-.3416,1.1369,1.1369,0,0,0,.6577-.447c.0763-.1417.2-.1309.3272-.0364-.0364.1744-.309.3271-.0182.52.1961-.189.6034-.16.5852-.6215a.8062.8062,0,0,0,.64.28.3648.3648,0,0,1,.2036.0945.43.43,0,0,0,.3962.0763,1.797,1.797,0,0,1,.8358-.0327.4688.4688,0,0,0,.6178-.3271c.2653-.0146.5124-.0255.7669-.0364-.0763.2072.0364.2689.2544.298.0326-.1381.0654-.2653.098-.4034h.3307c-.12.1635-.2.2689-.2433.3344.189.1526.3669.298.567.4579a.9917.9917,0,0,1,.9339.3307c.2436.2653.6.2871.88.4688.0328.0218.0983.0073.1453,0,.3017-.0545.6034-.1127.9922-.1817-.1744-.1054-.2906-.1781-.4071-.2435q-3.1238-1.8208-6.2438-3.649m-2.6642-1.1376c.0146.0182.0328.04.0472.0618-.0581.04-.1162.0836-.1744.1236-.0146-.0218-.0328-.0436-.0472-.0654l.1744-.12M34.622,43.57c.069.149.1089.2253.1562.3271-.2615-.0436-.2615-.0436-.1562-.3271m.1925,2.9911a.73.73,0,0,1,.8214-.0327.501.501,0,0,1-.8214.0327m.1781-.6724c.0326-.1018.0546-.1636.069-.2145-.1817-.1054-.3634-.2144-.5488-.3162a.5672.5672,0,0,0-.2107-.0763c-.3454-.0254-.6906-.0291-1.0359-.0618a1.1787,1.1787,0,0,1-.327-.1635c-.2618.1563-.567.3344-.9377.5524a.8685.8685,0,0,1,.3853-.5852,2.4436,2.4436,0,0,1,1.2937-.338.5983.5983,0,0,1,.2544.0727.5131.5131,0,0,0,.4725.0654.4947.4947,0,0,1,.4.08,6.3245,6.3245,0,0,0,1.2722.4325,3.607,3.607,0,0,0,.4.109,3.1773,3.1773,0,0,1-1.4865.4434M46.4448,71.253c.0035.2072.167.2217.3343.2908v-.72a.3761.3761,0,0,0-.3343.4289m.3343-1.6246v-.487c-.138-.0218-.2544-.04-.4179-.0691.0836.2617.1271.48.4179.5561M38.2928,49.9007c.2507-.2435-.0437-.3671-.1273-.5924-.1925.3816-.1744.4543.1273.5924" fill="#00548b"/>
</svg>
