<svg xmlns="http://www.w3.org/2000/svg" width="51" height="50.999" viewBox="0 0 51 50.999">
  <path d="M14.413,0H12.196a1.108,1.108,0,0,0-1.109,1.107V8.87a1.108,1.108,0,0,0,1.107,1.109h2.219a1.108,1.108,0,0,0,1.109-1.107V1.109A1.108,1.108,0,0,0,14.415,0ZM38.804,9.978H36.587A1.109,1.109,0,0,1,35.478,8.87V1.109A1.109,1.109,0,0,1,36.587,0h2.217a1.109,1.109,0,0,1,1.109,1.109h0V8.87A1.109,1.109,0,0,1,38.804,9.978Zm9.979-5.543H42.13v6.652a1.109,1.109,0,0,1-1.109,1.109H34.37a1.109,1.109,0,0,1-1.109-1.109h0V4.435H17.739v6.652a1.109,1.109,0,0,1-1.109,1.109H9.978A1.109,1.109,0,0,1,8.87,11.087V4.435H2.217A2.217,2.217,0,0,0,0,6.652v42.13a2.217,2.217,0,0,0,2.217,2.217H48.783A2.217,2.217,0,0,0,51,48.783V6.652A2.217,2.217,0,0,0,48.783,4.435ZM47.674,48.783H3.326a1.109,1.109,0,0,1-1.109-1.109h0V17.735a1.109,1.109,0,0,1,1.109-1.1H47.674a1.109,1.109,0,0,1,1.109,1.1V47.674a1.109,1.109,0,0,1-1.109,1.109Z"/>
</svg>
