<svg xmlns="http://www.w3.org/2000/svg" width="36.622" height="42.527" viewBox="0 0 36.622 42.527">
  <g id="Group_63" data-name="Group 63" transform="translate(-682 -745.973)">
    <g id="Group_62" data-name="Group 62" transform="translate(682 745.973)">
      <path id="Path_7" data-name="Path 7" d="M0,10.618C6.122,7.1,12.189,3.576,18.311,0,24.433,3.467,30.5,6.989,36.622,10.456v21.02a.3.3,0,0,1-.163.271l-18.2,10.727a.053.053,0,0,0-.054.054.189.189,0,0,1-.108-.054C12.189,38.952,6.23,35.43.325,31.963a.541.541,0,0,1-.271-.217c-.054-.108,0-.217,0-.325v-20.8Zm18.257,9.1c-.054-.054-.108-.054-.163-.108-1.463-.867-2.98-1.734-4.442-2.655-.488-.271-.921-.542-1.409-.813-.054-.054-.163-.054-.108-.163.054,0,.108,0,.108-.054.054-.054.054-.108.108-.163a.189.189,0,0,1,.054-.108c.163-.108.379-.217.542-.325,0-.054-.054-.108-.054-.163a.607.607,0,0,1,.379-.433.411.411,0,0,0,.217-.108.563.563,0,0,1,.433-.217l-.163.163c-.108.108-.054.163.054.217l.108-.108.163-.163a5.71,5.71,0,0,0,.6-.379v-.054h-.108v-.163c-.054.054-.108.108-.108.163-.054.163-.163.163-.325.163a.343.343,0,0,1-.325-.271v-.163l.163-.163a.275.275,0,0,0-.271-.054c-.108.054-.163.108-.271.163-.054.054-.163.108-.217.163v-.108c.163-.108.271-.271.433-.379a.053.053,0,0,0,.054-.054c.163-.054.325-.054.488-.108a.69.69,0,0,0,.6-.271.386.386,0,0,1,.325-.163,6.019,6.019,0,0,1-.379.867h.108a2.346,2.346,0,0,0,.271-.054c.108,0,.163,0,.217.108a.423.423,0,0,1,.217-.217c0,.108.054.163.163.217.108-.108.054-.163,0-.271-.054,0-.054.054-.108.054v-.163h-.054v-.163h-.325l-.054-.054c-.054,0-.054,0-.108.054a1.378,1.378,0,0,0,.108-.379h-.108a.334.334,0,0,0,.054-.379l-.054-.054c-.108-.054-.217-.054-.325-.108a.2.2,0,0,1,.163-.054v-.054c-.217,0-.379-.163-.6-.271a.255.255,0,0,0-.054-.325c-.054-.054-.054-.108-.108-.163l-.163-.325c-.054.054-.108.108-.108.163a.972.972,0,0,1-.271.379c-.054-.054-.163-.108-.217-.163a1.193,1.193,0,0,1,.054-.433h-.217a.461.461,0,0,0-.163-.271c-.108.054-.108.054-.325.054-.108,0-.217.054-.163.163s0,.108-.054.163c0,.054-.054.163-.054.217a.3.3,0,0,1-.163.271.053.053,0,0,0-.054.054.646.646,0,0,1-.108.813c-.108.054-.163.163-.271.217a1.56,1.56,0,0,1-.054.7c-.054,0-.163.054-.217.054,0-.108-.163-.163-.163-.325h.108V13.11a.2.2,0,0,1-.163-.054c0-.163.054-.271.054-.433h-.217a.783.783,0,0,1-.379-.108.363.363,0,0,0-.433-.163c0-.108.054-.217.054-.325-.054,0-.054-.054-.108-.054,0-.054.054-.054.054-.108a4.272,4.272,0,0,1,.65-.813c.054-.054.108-.054.108-.108l.163-.163a.951.951,0,0,1,.271-.217,1.182,1.182,0,0,0,.271-.217l.217-.217.163-.163H12.3l.054.054c.054-.054.163-.054.217-.108a.653.653,0,0,0,.271-.271A1.184,1.184,0,0,1,13,9.372c.054-.054.108-.108.054-.217-.108-.054-.163,0-.217.108-.054.054-.108.163-.163.217a.653.653,0,0,0-.271.271.053.053,0,0,0-.054.054c0-.163.217-.217.217-.379-.054,0-.108.054-.163.054a.2.2,0,0,0,.054-.163.117.117,0,0,1,.108-.108l.163-.163a1.376,1.376,0,0,1,.542-.433,1.9,1.9,0,0,0,.433-.271c-.325.054-1.083.433-1.083.6l.108-.054a2.356,2.356,0,0,1-.379.325c-.054.054-.108.054-.108.108-.108.108-.163.217-.271.325s-.108.108-.271.054a.41.41,0,0,1-.433.163.414.414,0,0,1,.108-.271c.054.108.108.054.163,0s.108-.054.163-.108c.054,0,.054-.054.108-.054.054-.054.163-.108.163-.163l.325-.325c.108-.054.217-.163.325-.217h0a.053.053,0,0,1-.054-.054c.054-.054.108-.054.163-.108h-.054a7.052,7.052,0,0,1-.921.433c-.054.054,0,.108-.054.163s-.108.054-.163.108h0c-.054.108-.054.108-.108.108A.842.842,0,0,0,11,9.7a.053.053,0,0,1-.054.054c-.054,0-.054-.054-.108-.054a.2.2,0,0,0,.054-.163l-.054-.054c-.217.108-.379.163-.6.271a13.751,13.751,0,0,0-1.95,1.571c-.217.271-.488.488-.7.758l-.108.108a4.481,4.481,0,0,1-.488.867c-.163-.108-.271-.163-.433-.271a14.586,14.586,0,0,1,3.467-3.359,13.769,13.769,0,0,1,7.205-2.384c.054-.163.054-5.147,0-5.255-4.822,3.2-9.86,6.176-14.952,9.1.054.054.108.054.163.108,1.409.813,2.817,1.625,4.171,2.438C10.4,15.657,14.248,17.878,18.04,20.1a.345.345,0,0,0,.325,0c1.9-1.083,3.792-2.113,5.634-3.2L34.4,11c.054-.054.108-.054.163-.108C29.309,7.91,24.108,4.984,18.853,2V7.259a15.509,15.509,0,0,1,4.117.867,14.544,14.544,0,0,1,3.684,2.059,14.253,14.253,0,0,1,2.871,3.088.189.189,0,0,0-.108.054c-.054,0-.108.054-.163.054A13.354,13.354,0,0,0,21.67,8.018c.108.054.271.108.379.163.054.054.163.054.163.163l.108.108.325.163c-.054,0-.054,0-.108.054.108.054.217.054.325.163A4.121,4.121,0,0,1,21.724,8.4h.325V8.343l-.325-.163c-.325-.054-.7-.163-1.029-.217-.217-.054-.488-.054-.7-.108a.593.593,0,0,0-.433,0c.054.054.108.054.108.108a.383.383,0,0,0,.325.325c.054,0,.108.054.163.054.163.108.271.271.433.379a.972.972,0,0,1,.271.379v.054c-.108.108.054.271,0,.379l.054.054a1.436,1.436,0,0,0,.325.271c.054.054.163.108.163.163.108.163.217.163.379.163.108-.108,0-.217.163-.271a4.519,4.519,0,0,1,.65.433c.054.054.108.054.054.163-.054.054-.054.163-.163.163v-.108c-.108-.108-.217-.163-.271-.271-.108.163-.108.163,0,.325l.163.163.271.271v.054a1.133,1.133,0,0,0-.325.217c0,.108.054.163.054.217.054.108,0,.108-.054.163s-.108.054-.108.163a.411.411,0,0,1-.108.217c-.054.054-.108,0-.163,0h-.054a.748.748,0,0,1,.163.217h-.217c-.108,0-.163,0-.217.108.054.108.108.108.217.108a.488.488,0,0,1,.271.054.541.541,0,0,1,.271.217.7.7,0,0,1,.217.542.2.2,0,0,0-.163.054c-.217,0-.433.054-.65.054a.3.3,0,0,0-.325.217,1,1,0,0,1,.271.65c0,.054,0,.163.108.163.054,0,.054.054.054.108s.054.108.054.163H22a.34.34,0,0,1,.433.108.1.1,0,0,0,.163,0,.492.492,0,0,1,.379-.163.189.189,0,0,0,.108-.054.809.809,0,0,0,.163-.379.255.255,0,0,1-.054-.325c.054-.054.108-.163.163-.217.108-.108.108-.108.054-.217l-.054-.054c0-.054,0-.163.108-.163h.108c.163,0,.271,0,.325-.163a.232.232,0,0,1,.379-.054,2.544,2.544,0,0,0,.488.325.2.2,0,0,0,.163.054c.163.054.325.163.488.217.108.054.163.163.108.217-.108.163-.271.108-.379.163.108.163.325.108.488.217a.41.41,0,0,1-.054-.217c.054-.054.054-.108.108-.163,0-.108,0-.163-.054-.217-.163-.108-.217-.163-.163-.217h.163l-.108-.108a2.23,2.23,0,0,1-.433-.163h-.054c-.108.054-.217-.054-.271-.108a1.133,1.133,0,0,0-.325-.217l-.163-.163v-.108c.054,0,.054,0,.108.054a.189.189,0,0,1,.108.054c.108-.054.163.054.217.108a.281.281,0,0,0,.217.108,1.924,1.924,0,0,1,.488.217.423.423,0,0,1,.217.217.555.555,0,0,0,.325.271.541.541,0,0,1,.271.217c.054.054.108.163.217.217h.108a.488.488,0,0,1-.054-.271c.054,0,.108-.054.163-.108-.163-.108-.379-.108-.433-.325h.163c-.054-.054-.054-.054-.054-.108.217-.108.271-.108.379.108.054.108.054.163.217.163,0,.054-.054.054-.054.108.217,0,.325.217.488.325v-.054c.054,0,.108.054.163.054.108,0,0-.108.054-.108.108,0,.271.217.379-.054h.163l.163.325-1.138.65c-.217-.108-.271-.054-.379.163,0,.054-.054.054-.054.108-.054.054-.108.054-.163.108a.255.255,0,0,1-.325-.054.421.421,0,0,0-.433-.108.687.687,0,0,1-.325-.054c-.054-.054-.108-.054-.217-.108v-.163c0-.054,0-.108-.054-.108a.216.216,0,0,1-.108-.217h-.108a.1.1,0,0,0-.163,0c-.054,0-.054.054-.108.054a1.582,1.582,0,0,0-.488.108,1.651,1.651,0,0,0-.867.433.189.189,0,0,1-.108.054c-.217,0-.379.108-.65-.054a.2.2,0,0,1-.054.163.77.77,0,0,1-.108.325c-.163.108-.163.271-.217.433,0,.054-.054.163,0,.217a.246.246,0,0,1,0,.271c-.054.054-.054.163-.108.163-.217.108-.271.271-.379.433,0,.054-.054.108-.108.163-.054.217-.163.433-.217.65,0,.054-.054.108-.054.163,0,.108-.054.163-.163.217l-2.275,1.3-.65.325m17.011-7.747c-.054.054-.108.054-.163.108-1.571.921-3.088,1.842-4.659,2.763-3.3,1.95-6.555,3.9-9.86,5.8-.488.271-.921.542-1.409.813-.108.054-.163.108-.108.217V40.306c5.2-3.034,10.347-6.013,15.494-9.047-1.571-.921-3.088-1.842-4.6-2.763a13.558,13.558,0,0,1-4.442,4.5,14,14,0,0,1-5.959,2.059v-.217c0-.054-.054-.108.054-.163,0-.054-.108-.054,0-.108.217.054.379.163.6,0a1.238,1.238,0,0,1-.542-.379c-.108-.054-.163-.108-.163-.217V26.329c.054,0,.108-.054.217-.054.163,0,.271-.163.325-.271.054-.054.054-.163.108-.217a1.751,1.751,0,0,0,.163-.921.414.414,0,0,1,.108-.488c.163-.163.217-.379.379-.542a.576.576,0,0,0,.054-.65c-.054-.163-.054-.163-.217-.163a.922.922,0,0,1-.379-.054c-.271-.217-.488-.325-.758-.217v-.975c.975-.6,2-1.192,2.98-1.734a1.182,1.182,0,0,0,.217.271,1.722,1.722,0,0,1,.488.163c.108.054.271.108.379.163a.358.358,0,0,0,.325-.054.977.977,0,0,1,.65-.163.406.406,0,0,0,.271-.054,1.9,1.9,0,0,1,.433-.271,1,1,0,0,1,.379-.108.281.281,0,0,1,.217.108v.054c.108.163.108.163.271.108a.2.2,0,0,0,.163-.054.239.239,0,0,1,.325.217,1.862,1.862,0,0,1-.054.758,2.713,2.713,0,0,1,.379.433,1.781,1.781,0,0,1,.379.867.2.2,0,0,0,.054.163.593.593,0,0,1,0,.433,1.54,1.54,0,0,0-.217.65.765.765,0,0,0,.054.488c.054.163.163.325.217.488a.189.189,0,0,0,.054.108v.65a.4.4,0,0,0,.108.325.2.2,0,0,1,.054.163c0,.108.054.217.054.325v.217a.261.261,0,0,0,.108.325c.163-.054.271-.108.433-.163a1,1,0,0,0,.65-.379c.163-.217.325-.488.488-.7a.963.963,0,0,0,.217-.542.3.3,0,0,1,.163-.271.3.3,0,0,0,.163-.271,2.032,2.032,0,0,1,.054-.542.2.2,0,0,1,.054-.163c.163-.163.217-.379.379-.542a1.089,1.089,0,0,0,.217-.433c0-.217.054-.433.054-.65v-.217a1.056,1.056,0,0,1-.054-.433V21.4a1.156,1.156,0,0,1,0-.433,5.92,5.92,0,0,1,.271-.921,3.53,3.53,0,0,0,.163-1.842c0-.108-.054-.163-.054-.271a1.436,1.436,0,0,1-.325.271c-.108-.108-.217-.217-.163-.325.054-.054.108-.163.163-.217a2.062,2.062,0,0,0,.271-.813,3.125,3.125,0,0,0-.163-.758,1.83,1.83,0,0,0-.379-.6v.163c0,.054,0,.054-.054.054a.053.053,0,0,1-.054-.054c-.054-.054-.054-.108-.108-.163.108-.163.217-.054.379,0,0-.054-.054-.108-.054-.217a1.184,1.184,0,0,0,.271-.163,14.973,14.973,0,0,1,1.246,4.009,14.189,14.189,0,0,1-1.3,8.18.053.053,0,0,1,.054.054c1.517.921,3.088,1.9,4.6,2.817h0c-.054-6.013-.108-12.081-.108-18.2m-33.859.271c0,5.959-.054,11.864-.054,17.769v.054h0c1.409-.813,2.871-1.625,4.28-2.492a13.078,13.078,0,0,1-1.517-6.23,13.8,13.8,0,0,1,1.409-6.23c.325.163.65.379.921.542,0,.054-.054.054-.054.108a3.443,3.443,0,0,0-.379,1.788v.379a.189.189,0,0,0,.054.108.492.492,0,0,1,.163.379.775.775,0,0,0,.163.6.255.255,0,0,1-.054.325c.054.054.108.054.108.108a.2.2,0,0,1,.108.271v.108c.054.108.163.163.217.271a.1.1,0,0,0,0-.163c-.054-.054-.054-.108-.108-.163-.108-.271-.163-.542-.271-.813a1.193,1.193,0,0,1-.054-.433c.108,0,.163.108.163.217a.6.6,0,0,0,.163.488.053.053,0,0,0,.054.054c.054.108.163.163.163.325l.054.054a.053.053,0,0,1,.054.054,1.184,1.184,0,0,0,.163.271.874.874,0,0,1,.163.488.2.2,0,0,0,.054.163l.054.054c.163.163.379.163.542.271l.488.163c.108.054.163,0,.271-.054.108-.108.217-.108.379,0a.748.748,0,0,0,.217.163,1.191,1.191,0,0,0,.758.108l.163.163c.108.108.217.163.217.271,0,.054.108.108.108.108a.414.414,0,0,1,.271.108c.054.054.108.108.217.054s.217,0,.325.108a.1.1,0,0,0,.163,0c0-.054-.054-.054-.108-.108.054-.054.108-.054.163-.108.108-.108.217-.054.271.054a.168.168,0,0,0,.054.108.493.493,0,0,1,.217.433c0,.108.054.163.054.271a.281.281,0,0,1-.108.217c-.054.054-.054.163-.108.271l-.054.054c0,.054-.054.054-.054.108a.488.488,0,0,1-.054.271c-.054.163.054.271.217.217a.281.281,0,0,1-.108.217.3.3,0,0,0,.108.433,2.309,2.309,0,0,1,.65.6,1.266,1.266,0,0,0,.379.379c.054.054.108.108.108.163a.445.445,0,0,0,.271.271c.108.054.271.054.379.108a1.275,1.275,0,0,0,.433.108.488.488,0,0,1,.325.325c.054.163.108.379.163.542,0,.163.108.379.108.542v.108a2.719,2.719,0,0,0,.108.65.411.411,0,0,0,.108.217.77.77,0,0,1,.108.325v.7a2.4,2.4,0,0,1,.271.813.117.117,0,0,0,.108.108c.054-.054,0-.108,0-.163-.054-.054,0-.108.108-.163.054.271.163.542.217.758h-.163c0,.054-.054.108-.054.163h.163a1.184,1.184,0,0,0,.163.271c0,.054-.054.108,0,.108.108.054.108.108.163.217,0,.054.054.108.108.054a.168.168,0,0,1,.108.054c.054.054.108.163.163.217.108.108.163.271.379.271v2.763a11.193,11.193,0,0,1-2.98-.6,14.086,14.086,0,0,1-7.639-5.8c-1.409.867-2.817,1.679-4.226,2.546L2,31.313H2c5.092,2.98,10.185,5.959,15.332,8.939V21.67c0-.054,0-.108-.054-.108a.189.189,0,0,1-.108-.054c-5.2-3.088-10.4-6.122-15.6-9.21-.054,0-.108-.054-.163-.054M16.74,10.727c-.054-.163.054-.325-.054-.488a.915.915,0,0,0,.108-.271c0-.108-.054-.163-.108-.271a.053.053,0,0,0,.054-.054.276.276,0,0,1,.271-.217.053.053,0,0,0,.054-.054.411.411,0,0,0,.108-.217c0-.108.054-.217-.054-.325.163.108.271,0,.379-.054.163-.054.108-.217.163-.325h-.488c0-.163.054-.217.217-.163.108.054.108.054.163,0-.108-.108-.271-.163-.379-.271-.054-.054-.163-.054-.217-.163a1.722,1.722,0,0,0-.488-.163,2.959,2.959,0,0,0-.975.054,2.346,2.346,0,0,1-.271.054c.108.054.108.108.108.217a1.67,1.67,0,0,0-.054.542c.054,0,.054-.054.108-.054a.748.748,0,0,1,.163.217h-.217c0,.054-.054.108-.054.163a.189.189,0,0,0,.054.108c.054,0,.108,0,.108-.054V8.885H15.6c0,.163,0,.271-.163.325v.054a.518.518,0,0,0,0,.488,2.126,2.126,0,0,0,.433.758.189.189,0,0,1,.054.108c.054.054.217.163.271.108s.108,0,.163.054a.321.321,0,0,0,.379-.054m-3.9-.217a.2.2,0,0,0,.163.054c.108-.054.163-.108.217-.108a.748.748,0,0,1,.163.217c0,.054.054.163.054.217.054,0,.054-.054.108-.054.108.054.217.054.325.108h.108c0-.054,0-.108-.054-.108l-.163-.163v-.054l.325.163a.518.518,0,0,0,0-.488c-.217-.054-.108-.217-.108-.325.054,0,.163.054.163.108s.108.108.108.163a1.182,1.182,0,0,1,.217-.271c.163-.217.163-.217.054-.325-.108-.054-.163-.163-.271-.217a.2.2,0,0,1-.054-.163c.054-.054.108-.163.163-.217a3.108,3.108,0,0,0-.217-.379c.054-.054.054-.163.108-.271a1.37,1.37,0,0,0-.813.325,1.537,1.537,0,0,0-.542.488c.217,0,.433.163.6-.054h.054a.326.326,0,0,1-.054.217h.054a.286.286,0,0,1-.054.433c-.054.054-.054.108-.108.108a.281.281,0,0,0-.108.217c-.108.054-.163.108-.217.108a.381.381,0,0,0-.217.271m8.939.975c-.108-.054-.163-.163-.217-.217-.108-.054-.217-.163-.325-.217-.054-.054-.108-.054-.163-.108-.108-.054-.163-.108-.108-.163v-.108c0-.054-.054-.108-.163-.054-.054,0-.108.054-.163.054v-.217c-.054,0-.163.054-.217.054-.054.108.054.217-.054.271a.951.951,0,0,0,.271.217v.108c.054,0,.054-.054.108,0h.108c0,.054.054.108.054.163.054-.054.108-.054.217-.108,0,.163.217.108.217.271-.054,0-.054.054-.108.054v.108c0,.054.054.054.108.054,0,.054-.054.108-.054.163h.271c-.108.163-.108.163-.054.325.054-.054.163-.054.217-.163a.053.053,0,0,0,.054-.054c.108,0,.217-.054.325-.054.054,0,.108-.054.163-.108-.054-.054-.054-.054-.108-.054-.108-.217-.163-.217-.379-.217M31.1,22.428c0,.054-.054.108-.054.163a1.924,1.924,0,0,1-.217.488.584.584,0,0,0-.108.433,1.021,1.021,0,0,1-.108.433,1.6,1.6,0,0,0-.108.7v.163a.053.053,0,0,0,.054-.054c.054-.108.108-.163.163-.271a14.523,14.523,0,0,0,.379-1.463.756.756,0,0,0,0-.6M24.379,33.155h-.054c-.379.163-.758.379-1.138.542-.054,0-.108.054-.163.054a.41.41,0,0,0-.217.054c-.108.054-.271.108-.379.163-.054,0-.054.054-.108,0s-.108,0-.217,0-.217.108-.325.108a.915.915,0,0,0-.542.163,5.62,5.62,0,0,1-.542.217.189.189,0,0,1-.108.054,11.1,11.1,0,0,0,3.792-1.354M18.745,9.589a.687.687,0,0,1,.325.054c.108,0,.217.054.271-.108,0-.054.054-.054.054-.108a.165.165,0,0,0,0-.217c-.054-.054-.379-.217-.433-.163-.108.054-.217.054-.271.108a.189.189,0,0,0-.054.108c-.054-.054-.108-.054-.163-.108h-.108c0,.054-.108.108,0,.163h.217c0,.054,0,.054-.054.108.163.054.163.054.217.163m1.9,1.625h0c0-.054-.108-.054-.163,0a.189.189,0,0,0-.108.054v.163a.189.189,0,0,0-.108.054.423.423,0,0,0,.217.217c0,.054-.054.108-.054.163s0,.108.054.108.108.054.163,0a1.133,1.133,0,0,0,.325-.217c0-.163-.217-.271-.163-.433-.054,0-.108-.054-.163-.108m-8.072-.488h0c-.163-.108-.108-.325-.325-.379a2.977,2.977,0,0,0-.379.488l.108.108a1.436,1.436,0,0,0,.325-.271l.108.108a.546.546,0,0,1,.163-.054m11.7,2.763a.1.1,0,0,0,0,.163.951.951,0,0,0,.217.271c.054-.054.054-.108.108-.108-.054-.108-.163-.217-.217-.325a1.133,1.133,0,0,0-.217-.325c-.054.108-.054.108.108.325M13.923,8.235h0a.075.075,0,0,0,.108,0c.054,0,.054.054.108.054a2.064,2.064,0,0,0,.542-.163c0-.054-.054-.054-.054-.108a5.032,5.032,0,0,1-.7.217m-.65,1.571c.163,0,.217-.163.379-.163-.217-.108-.325-.054-.379.163m-1.138-.271a.951.951,0,0,0-.271.217c.163.054.217,0,.271-.217m1.842,4.009c.108.054.217.163.379.054a.342.342,0,0,0-.379-.054m.325.65a1.058,1.058,0,0,1-.379-.054.053.053,0,0,0,.054.054c.054,0,.163.054.217.054.054.054.054,0,.108-.054m12.839.054a.458.458,0,0,0-.379,0,.458.458,0,0,0,.379,0m.813-.271-.108.108a.168.168,0,0,0,.054.108.053.053,0,0,0,.054-.054q0-.081,0-.163M10.131,23.945a.2.2,0,0,1-.163-.054l.108.217c0-.108,0-.108.054-.163m1.9-12.839h0A.281.281,0,0,0,12.244,11l-.054-.054c-.054.108-.108.108-.163.163M23.62,13.977h0a.2.2,0,0,0-.054-.163c-.054.054-.054.054-.054.108.054.054.054.054.108.054M12.3,11.214h0c.054,0,.108-.054.163-.108-.108,0-.163.054-.163.108m7.91-.542c0-.054.054-.054,0-.054l-.054-.054-.054.054c.054,0,.054.054.108.054M17.228,8.4h0a.168.168,0,0,0,.108.054V8.4c0-.054-.054,0-.108,0" fill="#0067ac" fill-rule="evenodd"/>
      <path id="Path_8" data-name="Path 8" d="M41.3,18.354a.748.748,0,0,0-.217-.163l-.163.163c-.108-.108-.271-.054-.325-.217.108,0,.217.054.325.054,0-.108-.054-.163.054-.217v-.108c.054,0,.054-.054.108-.054,0-.054,0-.054-.054-.108l-.217-.217c-.054-.054-.054-.108-.108-.108,0,0-.054-.054,0-.054.054-.108,0-.163-.054-.163-.054-.054-.108-.054-.217-.108a1.133,1.133,0,0,1-.325-.217.748.748,0,0,1-.163-.217.411.411,0,0,1-.108-.217c0-.108-.054-.163-.163-.217a.541.541,0,0,1-.271-.217c.163-.054.271-.054.325.054a.488.488,0,0,1,.325.325.748.748,0,0,0,.163.217c.108.054.163.108.271.163.163.054.271.163.433.217.054.054.108,0,.163-.054.054-.108.163-.108.271-.108.054,0,.108,0,.108.054,0,.108,0,.108-.163.163a.189.189,0,0,0-.108.054c0,.054.054.108.054.163a.053.053,0,0,1-.054.054H41.3c.108-.054.163-.054.217.054l.163.163c-.108.054-.163-.108-.271-.054a.748.748,0,0,0,.163.217c.054.054.108.163.217.217v.217c-.217-.054-.217-.054-.379.108-.054.054-.054.108-.108.163m-.163-.758h0c0-.054,0-.108-.054-.108h0a.189.189,0,0,0,.054.108" transform="translate(-18.055 -7.302)" fill="#0067ac" fill-rule="evenodd"/>
      <path id="Path_9" data-name="Path 9" d="M48.4,22.2c.108.054.217.054.325.108,0,.163.163.163.271.271a.053.053,0,0,1,.054-.054c.054-.054.108-.108.163-.054a2.481,2.481,0,0,1,.7.433.053.053,0,0,1,.054.054c0,.054.054.108.054.163s-.108.108-.163.108a.411.411,0,0,1-.217-.108c-.217-.108-.325-.054-.379.163v.054c-.163,0-.379,0-.488-.163l-.054-.054c-.054-.217-.108-.379-.163-.6-.163-.217-.163-.271-.163-.325" transform="translate(-22.179 -10.173)" fill="#0067ac" fill-rule="evenodd"/>
      <path id="Path_10" data-name="Path 10" d="M50.7,21.6a2.356,2.356,0,0,1,.379.217v.054c-.054.108.054.217.108.271.163.163.379.325.542.488a.053.053,0,0,1,.054.054,1.223,1.223,0,0,0,.433.6.2.2,0,0,1,.054.163c-.054.054-.108,0-.163-.054a1.436,1.436,0,0,1-.271-.325,3,3,0,0,0-.325-.433,4.884,4.884,0,0,0-.542-.488A.667.667,0,0,1,50.7,21.6" transform="translate(-23.233 -9.898)" fill="#0067ac" fill-rule="evenodd"/>
      <path id="Path_11" data-name="Path 11" d="M19.213,26.617a.326.326,0,0,0,.054.217.687.687,0,0,0-.325.054h-.108c-.054,0-.054-.054-.108-.054-.108,0-.217.217-.325,0a4.737,4.737,0,0,1,.542-.433c.054,0,.054.054.108.054.108-.054.108,0,.163.054-.108.108-.054.108,0,.108" transform="translate(-8.432 -12.098)" fill="#0067ac" fill-rule="evenodd"/>
      <path id="Path_12" data-name="Path 12" d="M19.479,27.5c-.054.054-.163.108-.217.217-.054-.054-.108-.054-.163-.108a.457.457,0,0,1,.379-.108.053.053,0,0,1,.054-.054.642.642,0,0,1,.433-.054c.163,0,.163.108.108.271-.054-.054-.108-.054-.163-.108a1.722,1.722,0,0,1-.163.488.2.2,0,0,1-.054-.163h-.108c.108-.325.108-.325-.108-.379" transform="translate(-8.753 -12.545)" fill="#0067ac" fill-rule="evenodd"/>
      <path id="Path_13" data-name="Path 13" d="M49.281,21.9c.054.054.054.108.108.108a.2.2,0,0,1,.054.163c-.163.054-.217.054-.271,0-.054-.108-.054-.163.108-.271" transform="translate(-22.519 -10.036)" fill="#0067ac" fill-rule="evenodd"/>
      <path id="Path_14" data-name="Path 14" d="M21.688,27.9c.054.108,0,.108-.054.163-.108.054-.271.054-.433.108.054-.163.217-.217.488-.271" transform="translate(-9.715 -12.785)" fill="#0067ac" fill-rule="evenodd"/>
      <path id="Path_15" data-name="Path 15" d="M16.5,21.671c.217,0,.271-.163.379-.271l.108.108c-.163.108-.271.217-.433.325H16.5v-.163" transform="translate(-7.561 -9.807)" fill="#0067ac" fill-rule="evenodd"/>
      <path id="Path_16" data-name="Path 16" d="M18.133,19.5c0,.054.054.054.054.108l-.488.325h0l.054-.054c.054-.054.163-.054.163-.163.108-.163.163-.217.217-.217" transform="translate(-8.111 -8.936)" fill="#0067ac" fill-rule="evenodd"/>
      <path id="Path_17" data-name="Path 17" d="M19.9,18.617a.528.528,0,0,1,.488-.217c-.054.054-.108.163-.217.163a.406.406,0,0,0-.271.054" transform="translate(-9.119 -8.432)" fill="#0067ac" fill-rule="evenodd"/>
      <path id="Path_18" data-name="Path 18" d="M16.6,22.737c.163-.217.163-.217.271-.163-.108.108-.163.163-.271.163" transform="translate(-7.607 -10.331)" fill="#0067ac" fill-rule="evenodd"/>
      <path id="Path_19" data-name="Path 19" d="M20.6,28.608c.108-.054.217-.054.325-.108-.108.163-.163.217-.325.108" transform="translate(-9.44 -13.06)" fill="#0067ac" fill-rule="evenodd"/>
      <path id="Path_20" data-name="Path 20" d="M49.417,24.254c-.108.054-.163.108-.217.108V24.2a.41.41,0,0,1,.217.054" transform="translate(-22.546 -11.09)" fill="#0067ac" fill-rule="evenodd"/>
      <path id="Path_21" data-name="Path 21" d="M22.108,19.208c-.108,0-.108,0-.108-.108,0,.054.054.054.108.108" transform="translate(-10.082 -8.753)" fill="#0067ac" fill-rule="evenodd"/>
      <path id="Path_22" data-name="Path 22" d="M53.7,29.708c.054-.054.163-.054.217-.108.054.054.054.054.054.108.217.379.433.65.65.975a3.636,3.636,0,0,1,.325.813,3.27,3.27,0,0,1-.433-.433.414.414,0,0,1-.108-.271c-.054-.054-.054-.108-.108-.163-.054-.108-.108-.163-.163-.271a1.4,1.4,0,0,0-.379-.6.053.053,0,0,1-.054-.054" transform="translate(-24.608 -13.564)" fill="#0067ac" fill-rule="evenodd"/>
      <path id="Path_23" data-name="Path 23" d="M54.9,37.654c.054,0,.108-.054.163-.054a.2.2,0,0,1,.054.163c0,.054-.054.163-.054.217,0,.108,0,.108-.163.108Z" transform="translate(-25.158 -17.23)" fill="#0067ac" fill-rule="evenodd"/>
      <path id="Path_24" data-name="Path 24" d="M49.717,34.071c-.108-.108-.163-.217-.217-.271.163,0,.217.108.379.108q-.163.081-.163.163" transform="translate(-22.683 -15.489)" fill="#0067ac" fill-rule="evenodd"/>
      <path id="Path_25" data-name="Path 25" d="M54.473,39.2c.054.163.054.325.108.488-.163-.108-.163-.271-.108-.488" transform="translate(-24.947 -17.963)" fill="#0067ac" fill-rule="evenodd"/>
      <path id="Path_26" data-name="Path 26" d="M55.466,41.579c-.054-.108-.054-.163,0-.379v.379" transform="translate(-25.399 -18.88)" fill="#0067ac" fill-rule="evenodd"/>
      <path id="Path_27" data-name="Path 27" d="M19.72,34.446a4.519,4.519,0,0,1,.65.433c-.163.054-.379.054-.542.108l.108.108c-.054.054-.054.108-.108.108s-.054,0-.108.054h.108a.41.41,0,0,0,.217-.054h.217c.108-.108.271-.108.433-.163a.358.358,0,0,1,.325.054c.921.542,1.788,1.029,2.709,1.571.054.054.108.054.163.108-.217.108-.325.108-.433.163H23.4a1.358,1.358,0,0,1-.379-.217.585.585,0,0,0-.379-.163.951.951,0,0,1-.271-.217.67.67,0,0,0,.108-.163h-.163c0,.054-.054.108-.054.163-.108,0-.163-.054-.108-.108h-.325a.25.25,0,0,1-.271.163c-.108-.054-.217,0-.379,0a.2.2,0,0,1-.163-.054.189.189,0,0,0-.108-.054c-.108,0-.217,0-.271-.108,0,.217-.163.163-.271.271-.108-.108,0-.163,0-.217a.1.1,0,0,0-.163,0,.541.541,0,0,1-.271.217c-.108.054-.163.108-.271.163-.054,0-.054.054-.054.108a.548.548,0,0,1-.217.379.168.168,0,0,0-.108-.054.33.33,0,0,0-.433,0c-.108.054-.217.163-.325.108-.054-.054-.163-.108-.217-.163a.449.449,0,0,1-.163-.433v-.325a.117.117,0,0,0-.108-.108.476.476,0,0,0-.379-.054,2.346,2.346,0,0,0-.271.054h-.217c.054-.163.054-.325.108-.433v-.108a.651.651,0,0,1,.108-.433V35.1a.2.2,0,0,0-.163-.054c-.108.054-.271.108-.379.163-.054,0-.054.054-.054.108s-.054.163-.054.217c-.054.108-.108.217-.217.163-.054,0-.108.054-.163.054-.217.054-.325.054-.433-.163a1.147,1.147,0,0,1-.163-.379,1.113,1.113,0,0,1,0-.6.488.488,0,0,0,.054-.271c0-.108-.054-.217.054-.271a.168.168,0,0,1,.054-.108c0-.054.054-.054.054-.108.054-.054.163-.054.163-.163l.054-.054a.805.805,0,0,1,.488-.108h.325c0-.054.054-.108-.108-.163.217-.054.379-.108.542-.163.108,0,.163.054.271.108.054,0,.108-.054.163-.054a.19.19,0,0,1,.271.163.752.752,0,0,0,.271.542c.054.108.163.054.163-.054v-.163a.41.41,0,0,0-.054-.217h.054c.379.217.758.433,1.083.65,0,.217,0,.217.054.271h-.108c0,.054,0,.054.054.108,0-.054,0-.108.054-.108m-.054.433c-.054,0-.108-.054-.163-.054a2.064,2.064,0,0,1-.542-.163.2.2,0,0,0-.163-.054c-.108.054-.163,0-.217,0s-.054-.054-.108-.054a.915.915,0,0,0-.542.163.338.338,0,0,0-.163.271,3.109,3.109,0,0,1,.379-.217.2.2,0,0,0,.163.054h.433c.054,0,.054,0,.108.054a.748.748,0,0,1,.217.163.168.168,0,0,1-.054.108,3.314,3.314,0,0,0,.65-.271m-.7.488a.262.262,0,0,0,.379,0,.458.458,0,0,0-.379,0m-.108-1.3c-.054.108-.054.108.054.163a.2.2,0,0,0-.054-.163m.975.65H19.72v.054a.168.168,0,0,1,.108-.054" transform="translate(-7.206 -15.214)" fill="#0067ac" fill-rule="evenodd"/>
      <path id="Path_28" data-name="Path 28" d="M24.336,39.4c.054.108.163.163.054.271-.163-.054-.163-.108-.054-.271" transform="translate(-11.117 -18.055)" fill="#0067ac" fill-rule="evenodd"/>
    </g>
  </g>
</svg>
