<svg xmlns="http://www.w3.org/2000/svg" width="14.83398" height="20.79102" viewBox="0 0 14.83398 20.79102">
  <path d="M7.417,20.791l-.45947-.498C6.67383,19.98535,0,12.69434,0,7.417a7.417,7.417,0,0,1,14.834,0c0,5.27735-6.67382,12.56836-6.95752,12.876Zm0-19.541A6.1741,6.1741,0,0,0,1.25,7.417c0,4.03906,4.665,9.76856,6.167,11.50781,1.502-1.73925,6.167-7.46875,6.167-11.50781A6.1741,6.1741,0,0,0,7.417,1.25Zm-.001,9.05615A2.89117,2.89117,0,0,1,4.52783,7.41943V7.417A2.88892,2.88892,0,1,1,7.417,10.30615ZM5.77783,7.417A1.63875,1.63875,0,0,0,7.416,9.05615h.001A1.63916,1.63916,0,1,0,5.77783,7.417Z"/>
</svg>
