<svg xmlns="http://www.w3.org/2000/svg" viewBox="0 0 100 100">
  <path d="M88.46262,42.30259H79.74331a30.7687,30.7687,0,1,1-59.51451,0H11.50949V84.61566A3.83648,3.83648,0,0,0,15.346,88.45215H84.61217a3.83649,3.83649,0,0,0,3.83649-3.83649h0Zm0-26.92173a3.8365,3.8365,0,0,0-3.8365-3.8365H73.07827a3.83649,3.83649,0,0,0-3.83649,3.8365V26.92173a3.83649,3.83649,0,0,0,3.83649,3.8365H84.61218a3.83649,3.83649,0,0,0,3.83649-3.8365ZM50,30.7687a19.22782,19.22782,0,1,0,.007,0H50M88.46262,100H11.53739A11.54087,11.54087,0,0,1,0,88.45912V11.53739A11.53739,11.53739,0,0,1,11.53739,0H88.46262A11.5339,11.5339,0,0,1,100,11.53042v76.9287A11.53739,11.53739,0,0,1,88.4661,100h-.0035"/>
</svg>
