<svg xmlns="http://www.w3.org/2000/svg" xmlns:xlink="http://www.w3.org/1999/xlink" class="video-overlay-play-button" viewBox="0 0 200 200" alt="Play video">
  <rect x="0" y="90" width="8" height="20" fill="#999"/>
  <rect x="10" y="70" width="8" height="60" fill="#999"/>
  <rect x="20" y="40" width="8" height="120" fill="#999"/>
  <rect x="30" y="70" width="8" height="60" fill="#999"/>
  <rect x="40" y="90" width="8" height="20" fill="#999"/>
  <rect x="50" y="40" width="8" height="120" fill="#999"/>
  <rect x="60" y="55" width="8" height="90" fill="#999"/>
  <rect x="70" y="60" width="8" height="75" fill="#999"/>
  <rect x="64" y="90" width="8" height="20" fill="#999"/>
  <rect x="120" y="80" width="8" height="45" fill="#999"/>
  <rect x="130" y="70" width="8" height="60" fill="#999"/>
  <rect x="140" y="50" width="8" height="100" fill="#999"/>
  <rect x="150" y="30" width="8" height="140" fill="#999"/>
  <rect x="160" y="45" width="8" height="110" fill="#999"/>
  <rect x="170" y="70" width="8" height="60" fill="#999"/>
  <rect x="180" y="80" width="8" height="40" fill="#999"/>
  <rect x="190" y="90" width="8" height="20" fill="#999"/>
  <polygon points="70, 55 70, 145 145, 100" fill="#fff"/>
</svg>
